<svg id="Layer_1" data-name="Layer 1" xmlns="http://www.w3.org/2000/svg" viewBox="0 0 500 500"><defs><style>.cls-1{fill:#5e5e5e;}.cls-1,.cls-2,.cls-3{stroke:#231f20;stroke-miterlimit:10;}.cls-2{fill:#271f22;}.cls-3{fill:#fff;}</style></defs><title>ad-logoswithdesign-freelogo</title><rect class="cls-1" x="142.22" y="148.32" width="201.85" height="201.85"/><rect class="cls-2" x="220.93" y="-37.18" width="44.44" height="579.63" transform="translate(249.86 -97.94) rotate(45)"/><rect class="cls-3" x="181.54" y="187.63" width="123.23" height="123.23"/><path class="cls-2" d="M66.33,157.21H50.74v-3.1l7.36-7.84a17.84,17.84,0,0,0,2.24-2.89,4.57,4.57,0,0,0,.73-2.34,3.5,3.5,0,0,0-.77-2.39,2.75,2.75,0,0,0-2.18-.86,3,3,0,0,0-2.42,1.05,4.16,4.16,0,0,0-.88,2.77H50.29a7.44,7.44,0,0,1,1-3.79,7,7,0,0,1,2.8-2.7,8.54,8.54,0,0,1,4.11-1,8.07,8.07,0,0,1,5.46,1.68,6,6,0,0,1,1.95,4.77,7.61,7.61,0,0,1-.88,3.44,19,19,0,0,1-3,4.07l-5.17,5.46h9.78Z"/><path class="cls-2" d="M84.41,147.8c0,3.15-.65,5.55-2,7.22a6.81,6.81,0,0,1-5.72,2.5,6.89,6.89,0,0,1-5.69-2.45c-1.31-1.64-2-4-2-7v-4.18q0-4.77,2-7.24a6.89,6.89,0,0,1,5.7-2.46,6.89,6.89,0,0,1,5.69,2.44q2,2.44,2,7Zm-4.51-4.6a8.26,8.26,0,0,0-.78-4.12,2.61,2.61,0,0,0-2.41-1.29A2.55,2.55,0,0,0,74.36,139a7.73,7.73,0,0,0-.81,3.84v5.54a8.73,8.73,0,0,0,.76,4.14,2.58,2.58,0,0,0,2.43,1.35,2.53,2.53,0,0,0,2.39-1.3,8.52,8.52,0,0,0,.77-4Z"/><path class="cls-2" d="M87.88,155a2.26,2.26,0,0,1,.73-1.75,2.82,2.82,0,0,1,3.65,0A2.26,2.26,0,0,1,93,155a2.22,2.22,0,0,1-.72,1.72,2.85,2.85,0,0,1-3.67,0A2.22,2.22,0,0,1,87.88,155Z"/><path class="cls-2" d="M112.07,147.8c0,3.15-.66,5.55-2,7.22a7.8,7.8,0,0,1-11.4,0c-1.32-1.64-2-4-2-7v-4.18q0-4.77,2-7.24a7.83,7.83,0,0,1,11.38,0q2,2.44,2,7Zm-4.52-4.6a8.39,8.39,0,0,0-.77-4.12,2.62,2.62,0,0,0-2.42-1.29A2.56,2.56,0,0,0,102,139a7.86,7.86,0,0,0-.8,3.84v5.54a8.88,8.88,0,0,0,.75,4.14,2.59,2.59,0,0,0,2.43,1.35,2.52,2.52,0,0,0,2.39-1.3,8.52,8.52,0,0,0,.77-4Z"/><path class="cls-2" d="M130.71,157.21h-15.6v-3.1l7.36-7.84a17.84,17.84,0,0,0,2.24-2.89,4.57,4.57,0,0,0,.73-2.34,3.5,3.5,0,0,0-.77-2.39,2.75,2.75,0,0,0-2.18-.86,3,3,0,0,0-2.42,1.05,4.16,4.16,0,0,0-.88,2.77h-4.53a7.44,7.44,0,0,1,1-3.79,7,7,0,0,1,2.81-2.7,8.48,8.48,0,0,1,4.1-1,8.12,8.12,0,0,1,5.47,1.68A6,6,0,0,1,130,140.6a7.72,7.72,0,0,1-.87,3.44,19.68,19.68,0,0,1-3,4.07l-5.18,5.46h9.79Z"/><path class="cls-2" d="M133.89,138.46a4.13,4.13,0,0,1,1.27-3.05,4.08,4.08,0,0,1,3-1.26,4,4,0,0,1,3,1.25,4.19,4.19,0,0,1,1.24,3.06,4.22,4.22,0,0,1-4.19,4.25,4.18,4.18,0,0,1-3-1.23A4,4,0,0,1,133.89,138.46Zm4.25,1.93a1.83,1.83,0,0,0,1.37-.55,1.9,1.9,0,0,0,.54-1.38,2,2,0,0,0-.54-1.41,1.79,1.79,0,0,0-1.37-.59,1.87,1.87,0,0,0-1.39.59,2,2,0,0,0-.56,1.41,1.84,1.84,0,0,0,.57,1.37A1.87,1.87,0,0,0,138.14,140.39Z"/><path class="cls-2" d="M101.3,182.37a5.73,5.73,0,0,1-4.13,1.73A6.1,6.1,0,0,1,92.35,182a8.16,8.16,0,0,1-1.81-5.58,8.7,8.7,0,0,1,1-4.1,7.1,7.1,0,0,1,2.73-2.91,7.57,7.57,0,0,1,3.93-1,7.22,7.22,0,0,1,4,1.13,7.31,7.31,0,0,1,2.72,3.23,11.57,11.57,0,0,1,1,4.83v1.67c0,3.79-.95,6.77-2.83,8.94a10.7,10.7,0,0,1-8,3.46l-1.11,0v-3.77h1C98.85,187.72,101,185.88,101.3,182.37Zm-3-1.72a3.22,3.22,0,0,0,1.89-.56,3.85,3.85,0,0,0,1.19-1.36v-1.86a6.22,6.22,0,0,0-.87-3.56A2.72,2.72,0,0,0,98.14,172a2.63,2.63,0,0,0-2.23,1.24A5.32,5.32,0,0,0,95,176.4a5.09,5.09,0,0,0,.85,3A2.75,2.75,0,0,0,98.28,180.65Z"/><path class="cls-2" d="M109.77,180.27l1.31-11.56h12.75v3.77h-9l-.56,4.89a7.17,7.17,0,0,1,3.42-.86,6.55,6.55,0,0,1,5.1,2,8.08,8.08,0,0,1,1.84,5.64,8.25,8.25,0,0,1-.93,3.94,6.59,6.59,0,0,1-2.66,2.7,8.34,8.34,0,0,1-4.1,1,8.75,8.75,0,0,1-3.82-.83,6.78,6.78,0,0,1-2.79-2.35,6.33,6.33,0,0,1-1.09-3.46h4.47a3.29,3.29,0,0,0,1,2.21,3.14,3.14,0,0,0,2.23.79,2.77,2.77,0,0,0,2.36-1.1,5.09,5.09,0,0,0,.82-3.11,4.17,4.17,0,0,0-1-3,3.47,3.47,0,0,0-2.7-1,3.93,3.93,0,0,0-2.61.84l-.44.41Z"/><path class="cls-2" d="M127.88,189.24a2.28,2.28,0,0,1,.72-1.75,2.83,2.83,0,0,1,3.66,0,2.29,2.29,0,0,1,.73,1.75,2.24,2.24,0,0,1-.72,1.73,2.64,2.64,0,0,1-1.85.66,2.56,2.56,0,0,1-1.82-.66A2.24,2.24,0,0,1,127.88,189.24Z"/><path class="cls-2" d="M141.34,178.09h2.41a3.4,3.4,0,0,0,2.55-.86,3.16,3.16,0,0,0,.82-2.28,2.77,2.77,0,0,0-.82-2.14,3.15,3.15,0,0,0-2.25-.77,3.33,3.33,0,0,0-2.17.71,2.26,2.26,0,0,0-.88,1.85h-4.51a5.55,5.55,0,0,1,1-3.19,6.39,6.39,0,0,1,2.68-2.21,9,9,0,0,1,3.81-.8,8.5,8.5,0,0,1,5.65,1.73,5.86,5.86,0,0,1,2,4.75,4.83,4.83,0,0,1-.95,2.88,6.19,6.19,0,0,1-2.5,2,5.34,5.34,0,0,1,3.81,5.32,6,6,0,0,1-2.21,4.86,8.92,8.92,0,0,1-5.85,1.82,8.41,8.41,0,0,1-5.57-1.79,5.85,5.85,0,0,1-2.17-4.75h4.52a2.61,2.61,0,0,0,1,2.09,4,4,0,0,0,4.89,0,2.94,2.94,0,0,0,.91-2.26q0-3.41-3.75-3.4h-2.39Z"/><path class="cls-2" d="M168.47,182.9h2.58v3.64h-2.58v4.92H164v-4.92h-9.33l-.2-2.84,9.49-15h4.56Zm-9.55,0h5v-8l-.29.51Z"/><path class="cls-2" d="M173.89,172.71a4.12,4.12,0,0,1,1.27-3,4,4,0,0,1,3-1.27,4,4,0,0,1,2.94,1.26,4.19,4.19,0,0,1,1.25,3.05,4.22,4.22,0,0,1-4.19,4.25,4.18,4.18,0,0,1-3-1.22A4,4,0,0,1,173.89,172.71Zm4.25,1.94a1.83,1.83,0,0,0,1.37-.55,1.92,1.92,0,0,0,.53-1.39,2,2,0,0,0-.53-1.4,1.77,1.77,0,0,0-1.37-.6,1.82,1.82,0,0,0-1.39.6,1.93,1.93,0,0,0-.56,1.4,1.88,1.88,0,0,0,.57,1.38A1.91,1.91,0,0,0,178.14,174.65Z"/></svg>