<svg id="Layer_1" data-name="Layer 1" xmlns="http://www.w3.org/2000/svg" viewBox="0 0 500 500"><defs><style>.cls-1,.cls-2{fill:#271f22;}.cls-1,.cls-3{stroke:#231f20;}.cls-1,.cls-2,.cls-3{stroke-miterlimit:10;}.cls-2{stroke:#24c2cb;stroke-width:10px;}.cls-3{fill:#24c2cb;}</style></defs><title>ab-logoswithdesign-freelogo</title><circle class="cls-1" cx="253.96" cy="258.51" r="239.44"/><circle class="cls-2" cx="253.96" cy="258.51" r="218.02"/><polygon class="cls-3" points="154.12 128.96 154.12 178.22 178.66 185.24 190.65 185.26 185.81 398.21 230.44 398.21 225.59 185.33 237.16 185.36 262.13 178.22 262.13 128.96 237.58 121.94 224.16 121.92 223.94 112.29 192.31 112.29 192.09 121.84 179.53 121.82 154.12 128.96"/><path class="cls-3" d="M290.81,117.94V259.59l1.06,1.27c.21.21,10.6,13.78,11,26.7H297v97.05a18.86,18.86,0,1,0,37.71,0h0V287.56h-5.93c.64-12.92,11-26.49,11-26.7l1.06-1.27V117.94Z"/></svg>