<svg id="Layer_1" data-name="Layer 1" xmlns="http://www.w3.org/2000/svg" viewBox="0 0 500 500"><defs><style>.cls-1{fill:#271f22;stroke:#231f20;stroke-miterlimit:10;}</style></defs><title>i-logoswithdesign-freelogo</title><path class="cls-1" d="M251.89,27.46a211.35,211.35,0,0,1,0,208.5,211.28,211.28,0,0,1,0-208.5Z"/><path class="cls-1" d="M303.2,167.28a168.18,168.18,0,0,1,72.24-42.51A169.1,169.1,0,0,1,298.74,223a167.89,167.89,0,0,1-34.08,15.11,222.71,222.71,0,0,0,19.06-47.52,167.11,167.11,0,0,1,19.48-23.26Z"/><path class="cls-1" d="M317.32,263.37a2.33,2.33,0,0,0-.37,0,136.91,136.91,0,0,1-49-13.52A180.5,180.5,0,0,0,303.93,234a136.3,136.3,0,0,1,88.3,13.79,135.64,135.64,0,0,1-74.91,15.54Z"/><path class="cls-1" d="M270.93,264.53A149.2,149.2,0,0,0,314,275.3a91.22,91.22,0,0,1,17,18.85,92.17,92.17,0,0,1-60.07-29.62Z"/><path class="cls-1" d="M259.41,478.85a211.35,211.35,0,0,1,0-208.5,211.35,211.35,0,0,1,0,208.5Z"/><path class="cls-1" d="M208.09,339a168.12,168.12,0,0,1-72.24,42.51A168.3,168.3,0,0,1,246.63,268.25a223.2,223.2,0,0,0-19,47.52A167.19,167.19,0,0,1,208.09,339Z"/><path class="cls-1" d="M194,242.94l.37.05a136.9,136.9,0,0,1,49,13.51,180,180,0,0,0-35.95,15.77,136.33,136.33,0,0,1-88.31-13.79A135.67,135.67,0,0,1,194,242.94Z"/><path class="cls-1" d="M240.37,241.78A149.2,149.2,0,0,0,197.31,231a90.65,90.65,0,0,1-17-18.85,92.17,92.17,0,0,1,60.07,29.62Z"/></svg>