<!-- Generator: Adobe Illustrator 22.0.1, SVG Export Plug-In  -->
<svg version="1.1"
	 xmlns="http://www.w3.org/2000/svg" xmlns:xlink="http://www.w3.org/1999/xlink" xmlns:a="http://ns.adobe.com/AdobeSVGViewerExtensions/3.0/"
	 x="0px" y="0px" width="139.2px" height="115.9px" viewBox="0 0 139.2 115.9" style="enable-background:new 0 0 139.2 115.9;"
	 xml:space="preserve">
<style type="text/css">
	.st0{fill:#082E41;}
	.st1{fill:#FFFFFF;}
	.st2{fill:#F9E23A;}
	.st3{opacity:0.5;fill:#FFFFFF;}
</style>
<defs>
</defs>
<g>
	<rect x="76.4" y="49.2" class="st0" width="7.4" height="34.5"/>
	<rect x="89.4" y="33.4" class="st0" width="7.4" height="50.3"/>
	<rect x="105.6" y="59.2" class="st0" width="7.4" height="24.6"/>
	<rect x="120.1" y="49.2" class="st0" width="7.4" height="34.5"/>
	<rect x="65.4" y="17.2" class="st1" width="2.7" height="69.2"/>
	<rect x="65.4" y="83.7" class="st1" width="73.8" height="2.6"/>
</g>
<g>
	<g>

			<rect x="43.6" y="59.6" transform="matrix(0.7663 -0.6425 0.6425 0.7663 -28.3337 52.3804)" class="st2" width="28.5" height="11"/>
		<path class="st3" d="M120.1,12.9c-12.8-15.3-35.7-17.3-51-4.5c-15.3,12.8-17.3,35.7-4.5,51c12.8,15.3,35.6,17.3,51,4.5
			C130.9,51.1,133,28.3,120.1,12.9z"/>
		<path class="st2" d="M120.1,12.9c-12.8-15.3-35.7-17.3-51-4.5c-15.3,12.8-17.3,35.7-4.5,51c12.8,15.3,35.6,17.3,51,4.5
			C130.9,51.1,133,28.3,120.1,12.9z M72,53.2c-9.4-11.2-7.9-28,3.3-37.4c11.2-9.4,28-7.9,37.4,3.3c9.4,11.2,7.9,28-3.3,37.4
			C98.2,66,81.5,64.5,72,53.2z"/>
		<path class="st0" d="M16.4,114.7c-2.1,1.8-5.3,1.5-7-0.6l-8.2-9.8c-1.8-2.1-1.5-5.3,0.6-7L43,62.7c2.1-1.8,5.3-1.5,7,0.6l8.2,9.8
			c1.8,2.1,1.5,5.3-0.6,7L16.4,114.7z"/>
	</g>
</g>
</svg>