<svg version="1.1"
	 xmlns="http://www.w3.org/2000/svg" xmlns:xlink="http://www.w3.org/1999/xlink" xmlns:a="http://ns.adobe.com/AdobeSVGViewerExtensions/3.0/"
	 x="0px" y="0px" width="81.5px" height="28.5px" viewBox="0 0 81.5 28.5" style="enable-background:new 0 0 81.5 28.5;"
	 xml:space="preserve">
<style type="text/css">
	.st0{fill:#082E41;}
</style>
<defs>
</defs>
<g>
	<g>
		<path class="st0" d="M2.8,10.2C2.8,10.2,2.8,10.2,2.8,10.2C5.1,10,7.4,9.9,9.7,9.8L11,9.7c15.4-0.7,31,0,46,0.7l1.9,0.1
			c5.9,0.3,12.1,0.5,18.4,0.7c1.7,0,3,1.4,3,3.1c0,1.7-1.4,3-3.1,3c-6.4-0.2-12.7-0.4-18.6-0.7l-1.9-0.1
			c-14.9-0.7-30.3-1.4-45.4-0.7L10,15.9c-2.2,0.1-4.5,0.2-6.7,0.4c-1.7,0.2-3.2-1.1-3.3-2.8C-0.1,11.9,1.1,10.4,2.8,10.2z"/>
	</g>
</g>
<g>
	<g>
		<path class="st0" d="M66.1,0C67-0.1,68,0.2,68.7,1c2.7,2.9,5.3,5.2,8,7.6c1.2,1.1,2.5,2.2,3.8,3.4c0.7,0.6,1,1.5,1,2.3
			c0,0.9-0.4,1.7-1.1,2.3c-0.8,0.6-1.5,1.3-2.3,1.9c-3.4,2.7-6.6,5.3-8.8,8.6C68.4,28.6,66.4,29,65,28c-1.4-0.9-1.8-2.8-0.9-4.3
			c2.6-3.9,6.1-6.8,9.5-9.6c-0.4-0.3-0.7-0.7-1.1-1c-2.8-2.5-5.5-4.9-8.4-8C63,3.9,63.1,2,64.3,0.8C64.8,0.4,65.5,0.1,66.1,0z"/>
	</g>
</g>
</svg>