<svg version="1.1"
	 xmlns="http://www.w3.org/2000/svg" xmlns:xlink="http://www.w3.org/1999/xlink" xmlns:a="http://ns.adobe.com/AdobeSVGViewerExtensions/3.0/"
	 x="0px" y="0px" width="27.6px" height="66px" viewBox="0 0 27.6 66" style="enable-background:new 0 0 27.6 66;"
	 xml:space="preserve">
<style type="text/css">
	.st0{fill:#082E41;}
</style>
<defs>
</defs>
<g>
	<g>
		<path class="st0" d="M10.7,65c-0.4,0-0.7-0.1-1.1-0.2c-1.6-0.6-2.3-2.4-1.7-3.9c2.2-5.5,4-11.3,5.3-17.1
			c2.6-11.2,3.2-22.1,1.9-32.3c-0.3-2.6-0.8-5.2-1.4-7.6c-0.4-1.6,0.6-3.3,2.3-3.7c1.6-0.4,3.3,0.6,3.7,2.3c0.6,2.7,1.1,5.4,1.5,8.2
			c1.4,10.9,0.7,22.5-2,34.4c-1.4,6.1-3.3,12.2-5.6,18C13,64.2,11.9,65,10.7,65z"/>
	</g>
</g>
<g>
	<g>
		<path class="st0" d="M10.3,66c-0.4,0-0.8-0.1-1.1-0.2c-0.8-0.3-1.5-1-1.7-1.8C5.6,58.7,4,54.4,0.9,51.2c-1.2-1.2-1.2-3.1,0-4.3
			c1.2-1.2,3.1-1.2,4.3,0c3.3,3.4,5.3,7.7,6.7,11.6c2.3-1.3,4.5-2.7,6.8-4.2c1.3-0.8,2.7-1.7,4.2-2.6c1.4-0.9,3.3-0.4,4.2,1
			c0.9,1.4,0.4,3.3-1,4.2c-1.4,0.9-2.8,1.8-4.1,2.6c-3.4,2.2-6.6,4.2-10.4,6.2C11.2,65.9,10.7,66,10.3,66z"/>
	</g>
</g>
</svg>