<?xml version="1.0" encoding="utf-8"?>
<!-- Generator: Adobe Illustrator 22.0.1, SVG Export Plug-In . SVG Version: 6.00 Build 0)  -->
<svg version="1.1" id="Layer_1" xmlns="http://www.w3.org/2000/svg" xmlns:xlink="http://www.w3.org/1999/xlink" x="0px" y="0px"
	 viewBox="0 0 496.1 134.6" style="enable-background:new 0 0 496.1 134.6;" xml:space="preserve">
<style type="text/css">
	.st0{fill:#082E41;}
	.st1{fill:#FFFFFF;}
	.st2{fill:#FC704F;}
	.st3{fill:#3672A8;}
	.st4{fill:#1A5C8E;}
	.st5{fill:#82CC69;}
	.st6{fill:#9BFF7D;}
	.st7{opacity:0.63;fill:#A3AEAF;enable-background:new    ;}
	.st8{fill:#30E2E2;}
	.st9{fill:#E8EFEF;}
	.st10{opacity:0.39;}
	.st11{fill:#F1F2F2;}
	.st12{fill:#F0EFEE;}
	.st13{fill:#F9E23A;}
	.st14{fill:#1A2144;}
	.st15{fill:#EA1D24;}
	.st16{fill:#F37422;}
	.st17{fill:#77B751;}
	.st18{fill:#F9C319;}
	.st19{fill:#F9EB6B;}
	.st20{fill:#CEDBDD;}
	.st21{opacity:0.63;fill:#FFFFFF;enable-background:new    ;}
	.st22{fill:#2682BC;}
</style>
<g>
	<g>
		<g>
			<path class="st0" d="M421,130.6c-0.4,0-0.7-0.1-1.1-0.2c-1.6-0.6-2.4-2.3-1.8-3.9l28.5-75.3c0.4-1.2,1.5-1.9,2.8-2
				c1.3,0.1,2.4,0.7,2.8,1.8l31.9,75.3c0.7,1.5-0.1,3.3-1.6,4c-1.5,0.6-3.3-0.1-4-1.6l-28.9-68.3l-25.9,68.2
				C423.4,129.9,422.2,130.6,421,130.6z"/>
		</g>
	</g>
	<g>
		<path class="st1" d="M492.1,50.8c0,23.5-19.1,42.6-42.6,42.6C426,93.3,407,74.3,407,50.8s19.1-42.6,42.6-42.6
			C473.1,8.2,492.1,27.2,492.1,50.8L492.1,50.8z"/>
	</g>
	<g>
		<path class="st2" d="M482.5,17.9C474,9.4,462.4,4.2,449.6,4.2s-24.5,5.2-32.9,13.6s-13.6,20.1-13.6,32.9s5.2,24.5,13.6,32.9
			s20.1,13.6,32.9,13.6s24.5-5.2,32.9-13.6s13.6-20.1,13.6-32.9S490.9,26.3,482.5,17.9z M476.9,78.1c-7,7-16.6,11.3-27.3,11.3
			c-10.7,0-20.3-4.3-27.3-11.3S411,61.5,411,50.8s4.3-20.3,11.3-27.3s16.6-11.3,27.3-11.3c10.7,0,20.3,4.3,27.3,11.3
			s11.3,16.6,11.3,27.3C488.2,61.4,483.9,71.1,476.9,78.1z"/>
	</g>
	<g>
		<path class="st1" d="M474.2,50.8c0,13.6-11,24.6-24.6,24.6S425,64.4,425,50.8s11-24.6,24.6-24.6C463.1,26.2,474.2,37.2,474.2,50.8
			L474.2,50.8z"/>
	</g>
	<g>
		<path class="st2" d="M469.7,30.6c-5.2-5.2-12.3-8.4-20.2-8.4c-7.9,0-15,3.2-20.2,8.4s-8.4,12.3-8.4,20.2s3.2,15,8.4,20.2
			c5.2,5.2,12.3,8.4,20.2,8.4c7.9,0,15-3.2,20.2-8.4c5.2-5.2,8.4-12.3,8.4-20.2S474.9,35.7,469.7,30.6z M464.2,65.4
			c-3.7,3.7-8.9,6-14.6,6s-10.9-2.3-14.6-6c-3.7-3.7-6-8.9-6-14.6s2.3-10.9,6-14.6c3.7-3.7,8.9-6,14.6-6s10.9,2.3,14.6,6
			s6,8.9,6,14.6S467.9,61.6,464.2,65.4z"/>
	</g>
	<g>
		<path class="st1" d="M458,50.8c0,4.7-3.8,8.5-8.5,8.5s-8.5-3.8-8.5-8.5s3.8-8.5,8.5-8.5S458,46.1,458,50.8L458,50.8z"/>
	</g>
	<g>
		<path class="st2" d="M458.3,42c-2.2-2.2-5.4-3.6-8.8-3.6s-6.5,1.4-8.8,3.6c-2.2,2.2-3.6,5.4-3.6,8.8c0,3.4,1.4,6.5,3.6,8.8
			c2.2,2.2,5.4,3.6,8.8,3.6s6.5-1.4,8.8-3.6c2.2-2.2,3.6-5.4,3.6-8.8C462,47.3,460.6,44.2,458.3,42z M452.7,53.9
			c-0.8,0.8-1.9,1.3-3.2,1.3c-1.3,0-2.4-0.5-3.2-1.3c-0.8-0.8-1.3-1.9-1.3-3.2s0.5-2.4,1.3-3.2s1.9-1.3,3.2-1.3
			c1.3,0,2.4,0.5,3.2,1.3c0.8,0.8,1.3,1.9,1.3,3.2C454.1,52,453.6,53.1,452.7,53.9z"/>
	</g>
	<g>
		<g>
			<rect x="418.6" y="-1.5" transform="matrix(0.64 -0.7684 0.7684 0.64 129.6913 332.7168)" class="st3" width="2.6" height="59"/>
		</g>
		<g>
			<path class="st4" d="M391.2,11.6l5.3-3.2l12.9,10.7c-2.3,3-6.3,4.3-10.1,3l-6.2-2.1c-2-0.7-3.4-2.4-3.8-4.3
				C389,14.1,389.8,12.5,391.2,11.6z"/>
		</g>
		<g>
			<path class="st3" d="M398.7,2.6l-2.2,5.8l12.9,10.7c2.5-2.8,3.1-7,1.2-10.4L407.4,3c-1-1.8-2.9-2.9-4.9-3
				C400.8-0.1,399.3,1.1,398.7,2.6z"/>
		</g>
		<g>
			<polygon class="st3" points="442.4,46.8 443.2,45.8 449.6,52.3 441.6,47.9 			"/>
		</g>
	</g>
	<g>
		<rect x="425.7" y="23.9" transform="matrix(0.64 -0.7683 0.7683 0.64 127.452 341.4085)" class="st4" width="4.7" height="21.5"/>
	</g>
</g>
<g>
	<g>
		
			<rect x="270.6" y="40.4" transform="matrix(0.9971 -7.629851e-02 7.629851e-02 0.9971 -3.3968 23.4924)" class="st5" width="70.3" height="31.6"/>
		<path class="st6" d="M329.9,42l-50.3,3.8c0.3,3.4-2.3,6.4-5.7,6.7l0.5,6v0.2l0.5,6c3.4-0.3,6.4,2.3,6.7,5.7l50.3-3.8
			c-0.3-3.4,2.3-6.4,5.7-6.7l-0.5-6v-0.2l-0.5-6C333.2,48,330.2,45.4,329.9,42z"/>
		<path class="st5" d="M317,55.4c0.6,7.8-3.9,14.5-10.1,14.9c-6.2,0.5-11.7-5.4-12.3-13.2c-0.6-7.8,3.9-14.5,10.1-14.9
			C310.9,41.7,316.4,47.6,317,55.4z"/>
		<path class="st5" d="M287.3,57.6c0.1,1.5-1,2.8-2.5,2.9c-1.5,0.1-2.8-1-2.9-2.5s1-2.8,2.5-2.9C285.8,55,287.2,56.1,287.3,57.6z"/>
		<path class="st5" d="M328.3,54.5c0.1,1.2-0.8,2.2-2,2.3s-2.2-0.8-2.3-2c-0.1-1.2,0.8-2.2,2-2.3C327.1,52.4,328.2,53.3,328.3,54.5z
			"/>
		<g>
			<path class="st6" d="M311.7,59.2c0.1,1.1-0.3,2.1-1.1,2.9c-0.8,0.8-2,1.4-3.5,1.7l0.2,2.9l-1.6,0.1l-0.2-2.8
				c-0.9,0.1-1.9,0.1-2.7,0c-0.9-0.1-1.6-0.2-2.2-0.4l-0.1-2c0.7,0.3,1.5,0.4,2.5,0.6c0.9,0.1,1.8,0.2,2.5,0.1l-0.4-5.5
				c-1.8-0.4-3-1-3.8-1.6c-0.7-0.7-1.2-1.6-1.2-2.7c-0.1-1.1,0.3-2,1.1-2.8c0.8-0.8,1.9-1.3,3.3-1.5l-0.2-2.3l1.6-0.1l0.2,2.3
				c1.5-0.1,3.1,0.1,4.5,0.6l-0.5,1.7c-1.3-0.4-2.6-0.6-3.9-0.6l0.4,5.4c1.3,0.3,2.4,0.7,3,1c0.7,0.3,1.2,0.8,1.5,1.3
				C311.4,57.8,311.6,58.4,311.7,59.2z M302.1,52.2c0,0.6,0.3,1.1,0.7,1.5c0.4,0.4,1.1,0.7,2,0.9l-0.4-4.9c-0.8,0.2-1.4,0.5-1.8,0.9
				C302.2,51.1,302,51.6,302.1,52.2z M309.6,59.5c0-0.6-0.3-1.1-0.7-1.4c-0.4-0.3-1.2-0.7-2.2-0.9L307,62
				C308.8,61.6,309.7,60.8,309.6,59.5z"/>
		</g>
	</g>
</g>
<path class="st7" d="M295.1,134.6H117.3c-3.5,0-6.3-2.8-6.3-6.3v-1.9h190.3v1.9C301.4,131.8,298.6,134.6,295.1,134.6z"/>
<g>
	<path class="st1" d="M465.5,27.6c-0.3-0.8-0.6-1.6-0.9-2.4c-0.8-0.3-1.6-0.6-2.4-0.9c0.8-0.3,1.6-0.6,2.4-0.9
		c0.3-0.8,0.6-1.6,0.9-2.4c0.3,0.8,0.6,1.6,0.9,2.4c0.8,0.3,1.6,0.6,2.4,0.9c-0.8,0.3-1.6,0.6-2.4,0.9
		C466.1,26,465.8,26.8,465.5,27.6z"/>
</g>
<g>
	<g>
		<rect x="85.1" y="69.1" class="st8" width="20.2" height="61.7"/>
	</g>
	<g>
		<g>
			<rect x="99.4" y="69.1" class="st8" width="5.9" height="61.7"/>
		</g>
	</g>
</g>
<g>
	<g>
		<rect x="56.7" y="59.9" class="st8" width="20.2" height="71"/>
	</g>
	<g>
		<g>
			<rect x="71" y="59.8" class="st8" width="5.9" height="71.1"/>
		</g>
	</g>
</g>
<g>
	<g>
		<rect x="28.4" y="94.7" class="st8" width="20.2" height="36.1"/>
	</g>
	<g>
		<g>
			<rect x="42.6" y="94.7" class="st8" width="5.9" height="36.1"/>
		</g>
	</g>
</g>
<g>
	<rect y="100" class="st8" width="20.2" height="30.9"/>
	<g>
		<g>
			<rect x="14.2" y="100.1" class="st8" width="5.9" height="30.7"/>
		</g>
	</g>
</g>
<path class="st1" d="M284.5,119.7H127.9V24.4c0-3.8,3.1-6.9,6.9-6.9h142.7c3.8,0,6.9,3.1,6.9,6.9v95.3
	C284.4,119.7,284.5,119.7,284.5,119.7z"/>
<rect x="135" y="30" class="st9" width="142.4" height="83.1"/>
<g class="st10">
	<polygon class="st11" points="187.4,17.5 141.3,118.7 166.8,118.7 212.9,17.5 	"/>
	<polygon class="st11" points="220.9,17.5 174.8,118.7 186.6,118.7 232.7,17.5 	"/>
</g>
<rect x="143.9" y="43.6" class="st12" width="78.5" height="16.7"/>
<rect x="143.9" y="41.5" class="st13" width="78.5" height="16.7"/>
<g>
	<rect x="144.1" y="67.7" class="st12" width="78.5" height="16.7"/>
	<rect x="144.1" y="65.7" class="st1" width="78.5" height="16.7"/>
</g>
<g>
	<rect x="144.3" y="91.9" class="st12" width="78.5" height="16.7"/>
	<rect x="144.3" y="89.9" class="st1" width="78.5" height="16.7"/>
</g>
<path class="st0" d="M238.1,72.1c1.1-0.9,0.9-2.7-0.4-3.3l-44.5-21.2l0,0l0,0l12.4,47.8c0.4,1.4,2.1,2,3.2,1l7.8-6.5
	c0.9-0.7,2.1-0.6,2.8,0.3l8,9.7c0.7,0.9,2,1,2.8,0.3l7.5-6.2c0.9-0.7,1-2,0.3-2.8l-8-9.7c-0.7-0.9-0.6-2.1,0.3-2.8L238.1,72.1z"/>
<path class="st14" d="M209.1,22.8c0,1.6-1.3,2.9-2.9,2.9c-1.6,0-2.9-1.3-2.9-2.9s1.3-2.9,2.9-2.9S209.1,21.2,209.1,22.8z"/>
<g>
	<g>
		<rect x="192.2" y="29.8" transform="matrix(0.9921 -0.1255 0.1255 0.9921 -2.9073 24.652)" class="st0" width="4" height="11.2"/>
	</g>
	<g>
		
			<rect x="181.9" y="34.7" transform="matrix(0.7407 -0.6719 0.6719 0.7407 20.6051 134.0057)" class="st0" width="4" height="11.2"/>
	</g>
	<g>
		<rect x="176.3" y="44.5" transform="matrix(0.2213 -0.9752 0.9752 0.2213 89.9975 212.84)" class="st0" width="4" height="11.2"/>
	</g>
	<g>
		
			<rect x="173.8" y="59.4" transform="matrix(0.9258 -0.3781 0.3781 0.9258 -9.8988 72.3904)" class="st0" width="11.2" height="4"/>
	</g>
	<g>
		
			<rect x="202.6" y="37.1" transform="matrix(0.6127 -0.7903 0.7903 0.6127 49.7235 179.6987)" class="st0" width="11.2" height="4"/>
	</g>
</g>
<g>
	<path class="st15" d="M146.5,35.2c0,1.2-1,2.2-2.2,2.2s-2.2-1-2.2-2.2s1-2.2,2.2-2.2C145.5,32.9,146.5,33.9,146.5,35.2z"/>
	<path class="st16" d="M154.8,35.2c0,1.2-1,2.2-2.2,2.2s-2.2-1-2.2-2.2s1-2.2,2.2-2.2C153.8,32.9,154.8,33.9,154.8,35.2z"/>
	<path class="st17" d="M163.2,35.2c0,1.2-1,2.2-2.2,2.2s-2.2-1-2.2-2.2s1-2.2,2.2-2.2C162.2,32.9,163.2,33.9,163.2,35.2z"/>
</g>
<ellipse class="st18" cx="128.8" cy="81.6" rx="28.6" ry="28.6"/>
<ellipse class="st19" cx="128.8" cy="81.6" rx="20.6" ry="20.6"/>
<g>
	<path class="st18" d="M138.3,86.6c0,2-0.7,3.6-2.2,4.8c-1.5,1.2-3.5,1.9-6.1,2.2v3.9h-2.6v-3.8c-3.1-0.1-5.8-0.6-8.1-1.6v-5
		c1.1,0.5,2.4,1,4,1.4c1.5,0.4,2.9,0.7,4.1,0.7v-5.9l-1.3-0.5c-2.5-1-4.3-2.1-5.3-3.2c-1-1.2-1.6-2.6-1.6-4.3c0-1.8,0.7-3.3,2.1-4.5
		s3.4-1.9,6-2.1v-2.9h2.6v2.8c2.9,0.1,5.5,0.7,7.8,1.7l-1.8,4.4c-2-0.8-4-1.3-6.1-1.5v5.6c2.5,0.9,4.2,1.8,5.3,2.5
		c1,0.7,1.8,1.5,2.3,2.3C138.1,84.5,138.3,85.5,138.3,86.6z M125,75.4c0,0.6,0.2,1,0.6,1.4s1,0.7,1.9,1.1v-4.4
		C125.8,73.6,125,74.3,125,75.4z M132.6,86.9c0-0.5-0.2-1-0.6-1.3s-1.1-0.7-1.9-1.1v4.7C131.7,88.8,132.6,88.1,132.6,86.9z"/>
</g>
<path class="st20" d="M296,130.9H116.4c-3,0-5.4-2.4-5.4-5.4v-6.6h190.3v6.6C301.4,128.5,299,130.9,296,130.9z"/>
<rect x="111" y="118.9" class="st21" width="190.3" height="3.6"/>
<g>
	<g>
		
			<rect x="250.9" y="23.9" transform="matrix(0.9456 -0.3254 0.3254 0.9456 2.6494 95.2416)" class="st5" width="70.3" height="31.6"/>
		<path class="st6" d="M305.9,19.9l-47.7,16.4c1.1,3.3-0.6,6.8-3.9,7.9l2,5.7l0.1,0.2l2,5.7c3.3-1.1,6.8,0.6,7.9,3.9L314,43.3
			c-1.1-3.3,0.6-6.8,3.9-7.9l-2-5.7l-0.1-0.2l-2-5.7C310.6,24.8,307,23.1,305.9,19.9z"/>
		<path class="st5" d="M296.7,36.1c2.5,7.4-0.2,15-6,17s-12.7-2.3-15.2-9.7s0.2-15,6-17C287.4,24.4,294.2,28.7,296.7,36.1z"/>
		<path class="st5" d="M268.6,45.8c0.5,1.4-0.3,3-1.7,3.5c-1.4,0.5-3-0.3-3.5-1.7s0.3-3,1.7-3.5C266.5,43.6,268.1,44.3,268.6,45.8z"
			/>
		<path class="st5" d="M307.5,32.4c0.4,1.1-0.2,2.3-1.3,2.7c-1.1,0.4-2.3-0.2-2.7-1.3c-0.4-1.1,0.2-2.3,1.3-2.7
			C305.9,30.7,307.1,31.3,307.5,32.4z"/>
		<g>
			<path class="st6" d="M292.6,41.1c0.4,1.1,0.3,2.1-0.3,3.1c-0.6,1-1.5,1.8-2.9,2.5l0.9,2.8l-1.5,0.5l-0.9-2.7
				c-0.9,0.3-1.8,0.5-2.7,0.7c-0.9,0.1-1.6,0.2-2.2,0.1l-0.6-1.9c0.8,0.1,1.6,0,2.5-0.1s1.7-0.3,2.4-0.5l-1.8-5.2
				c-1.8,0-3.2-0.2-4-0.6c-0.9-0.5-1.5-1.2-1.9-2.3c-0.4-1-0.2-2,0.3-3c0.6-0.9,1.5-1.7,2.8-2.3L282,30l1.5-0.5l0.7,2.1
				c1.5-0.5,3-0.7,4.5-0.6l-0.1,1.8c-1.3-0.1-2.6,0.1-3.9,0.4l1.8,5.2c1.4,0,2.4,0,3.2,0.2c0.7,0.2,1.4,0.4,1.8,0.8
				C292,39.8,292.3,40.4,292.6,41.1z M281.5,36.8c0.2,0.6,0.6,1,1,1.3c0.5,0.2,1.2,0.4,2.2,0.4l-1.6-4.6c-0.7,0.4-1.3,0.9-1.5,1.4
				C281.4,35.7,281.4,36.2,281.5,36.8z M290.6,41.9c-0.2-0.6-0.5-1-1-1.2s-1.3-0.3-2.4-0.3l1.6,4.6C290.4,44.2,291,43.2,290.6,41.9z
				"/>
		</g>
	</g>
</g>
<g>
	<g>
		<rect x="312.5" y="123.3" class="st13" width="28.6" height="7.3"/>
		<rect x="312.5" y="123.3" class="st13" width="28.6" height="2"/>
	</g>
	<g>
		<rect x="312.5" y="115.9" class="st13" width="28.6" height="7.3"/>
		<rect x="312.5" y="115.9" class="st13" width="28.6" height="2"/>
	</g>
	<g>
		<rect x="312.5" y="108.6" class="st13" width="28.6" height="7.3"/>
		<rect x="312.5" y="108.6" class="st13" width="28.6" height="2"/>
	</g>
	<rect x="330.8" y="108.6" class="st13" width="10.3" height="22"/>
	<g>
		<rect x="355" y="123.3" class="st13" width="28.6" height="7.3"/>
		<rect x="355" y="123.3" class="st13" width="28.6" height="2"/>
	</g>
	<g>
		<rect x="355" y="115.9" class="st13" width="28.6" height="7.3"/>
		<rect x="355" y="115.9" class="st13" width="28.6" height="2"/>
	</g>
	<g>
		<rect x="355" y="108.6" class="st13" width="28.6" height="7.3"/>
		<rect x="355" y="108.6" class="st13" width="28.6" height="2"/>
	</g>
	<g>
		<rect x="355" y="101.3" class="st13" width="28.6" height="7.3"/>
		<rect x="355" y="101.3" class="st13" width="28.6" height="2"/>
	</g>
	<g>
		<rect x="355" y="93.9" class="st13" width="28.6" height="7.3"/>
		<rect x="355" y="93.9" class="st13" width="28.6" height="2"/>
	</g>
	<rect x="373.3" y="93.9" class="st13" width="10.3" height="36.7"/>
	<g>
		<rect x="397.5" y="123.3" class="st13" width="28.6" height="7.3"/>
		<rect x="397.5" y="123.3" class="st13" width="28.6" height="2"/>
	</g>
	<g>
		<rect x="397.5" y="115.9" class="st13" width="28.6" height="7.3"/>
		<rect x="397.5" y="115.9" class="st13" width="28.6" height="2"/>
	</g>
	<g>
		<rect x="397.5" y="108.6" class="st13" width="28.6" height="7.3"/>
		<rect x="397.5" y="108.6" class="st13" width="28.6" height="2"/>
	</g>
	<g>
		<rect x="397.5" y="101.3" class="st13" width="28.6" height="7.3"/>
		<rect x="397.5" y="101.3" class="st13" width="28.6" height="2"/>
	</g>
	<g>
		<rect x="397.5" y="93.9" class="st13" width="28.6" height="7.3"/>
		<rect x="397.5" y="93.9" class="st13" width="28.6" height="2"/>
	</g>
	<g>
		<rect x="397.5" y="86.6" class="st13" width="28.6" height="7.3"/>
		<rect x="397.5" y="86.6" class="st13" width="28.6" height="2"/>
	</g>
	<g>
		<rect x="397.5" y="79.2" class="st13" width="28.6" height="7.3"/>
		<rect x="397.5" y="79.2" class="st13" width="28.6" height="2"/>
	</g>
	<g>
		<rect x="397.5" y="71.9" class="st13" width="28.6" height="7.3"/>
		<rect x="397.5" y="71.9" class="st13" width="28.6" height="2"/>
	</g>
	<g>
		<rect x="397.5" y="64.6" class="st13" width="28.6" height="7.3"/>
		<rect x="397.5" y="64.6" class="st13" width="28.6" height="2"/>
	</g>
	<rect x="397.5" y="57.2" class="st13" width="28.6" height="7.3"/>
	<rect x="397.5" y="57.2" class="st13" width="28.6" height="2"/>
	<rect x="415.8" y="57.2" class="st13" width="10.3" height="73.4"/>
</g>
<g>
	<polygon class="st0" points="326.8,98.6 284.5,98.6 284.5,92.3 325.5,92.3 367.6,74.9 409.5,32.7 414,37.2 371.2,80.3 	"/>
</g>
<path class="st22" d="M332.2,95.6c0,3.1-2.6,5.7-5.7,5.7s-5.7-2.6-5.7-5.7s2.6-5.7,5.7-5.7S332.2,92.4,332.2,95.6z"/>
<path class="st22" d="M374.6,77.1c0,3.1-2.6,5.7-5.7,5.7s-5.7-2.6-5.7-5.7s2.6-5.7,5.7-5.7C372.1,71.4,374.6,74,374.6,77.1z"/>
<circle class="st22" cx="409.4" cy="37.8" r="5.7"/>
</svg>
