<!-- Generator: Adobe Illustrator 22.0.1, SVG Export Plug-In  -->
<svg version="1.1"
	 xmlns="http://www.w3.org/2000/svg" xmlns:xlink="http://www.w3.org/1999/xlink" xmlns:a="http://ns.adobe.com/AdobeSVGViewerExtensions/3.0/"
	 x="0px" y="0px" width="45.8px" height="65.5px" viewBox="0 0 45.8 65.5" style="enable-background:new 0 0 45.8 65.5;"
	 xml:space="preserve">
<style type="text/css">
	.st0{fill:#FFFFFF;}
	.st1{fill:#E0DFE6;}
	.st2{fill:#082E41;}
</style>
<defs>
</defs>
<g>
	<polygon class="st0" points="29.1,28.1 29.9,64.5 44.4,65.5 44.9,27.2 40.1,30 36.7,27.8 33.2,30.5 	"/>
	<g>
		<path class="st1" d="M29.9,64.5c1.6,1.2,4.4,0.9,6.3,0.8c1.4-0.1,2.9-0.1,4.3-0.3c1.5,1,3.9,0.2,4.7-1.7c1-2.6,0.5-5.8,0.5-8.6
			c-0.1-2.8-0.2-5.6-0.3-8.3c-0.3-5.4-0.6-11-1.9-16.3c-0.2-0.7-1.4-0.8-1.5,0c-1,5.4-1.2,10.9-1.6,16.3c-0.2,2.8-0.5,5.6-0.8,8.3
			c-0.2,1.7-0.5,3.4-0.6,5.1c-0.9,0.1-1.8,0.3-2.7,0.4c-1.5,0.1-3.1,0.2-4.6,0.3c0-0.1-0.1-0.1-0.1-0.2c-0.3-0.8-1.3-0.7-1.5,0
			c-0.1,0.3-0.3,0.6-0.5,0.9C28.3,62.2,28.9,63.8,29.9,64.5z"/>
		<path class="st2" d="M1,42.3c0.3,0,0.6,0,0.9,0c0-1.1,0-2.2-0.1-3.4c-0.3,0-0.6,0-0.8,0c0,0,0,0,0,0c-0.5,0-0.8-0.4-0.9-0.8
			c0,1.7,0.1,3.4,0.1,5C0.2,42.7,0.6,42.3,1,42.3z"/>
		<path class="st2" d="M0.9,22C0.9,22,0.9,22,0.9,22c0.3,0,0.6,0,0.9,0c0-1,0-1.9,0-2.9c-0.3,0-0.6,0-0.8,0c0,0,0,0,0,0
			c-0.5,0-0.8-0.4-0.9-0.8c0-0.5,0.3-0.9,0.8-0.9c0.3,0,0.6,0,0.9,0c0-4.9,0.1-10.1,0.2-15.6c5.2,0.4,9.9,0.7,14.4,0.8
			c0.5,13.7,0.7,27.5,1,40.9c0.1,5.3,0.2,10.6,0.3,16c0,1.3,0.2,2.6,0.3,3.9c0,0.1,0,0.3,0,0.4c0,0.3,0.1,0.6,0.1,0.9
			c0,0.4,0.4,0.8,0.8,0.8c0,0,0,0,0,0c0,0,0,0,0,0c0,0,0.1,0,0.1,0c0.5,0,0.8-0.5,0.8-0.9c0-0.3-0.1-0.5-0.1-0.8
			c0-0.2,0-0.4-0.1-0.6c-0.2-1.3-0.3-2.5-0.3-3.7c-0.1-5.3-0.2-10.7-0.3-16c-0.2-13.7-0.5-27.8-1-41.7c0-0.5-0.4-0.8-0.8-0.8
			C12.2,0.8,7,0.5,1.1,0C0.9,0,0.7,0.1,0.5,0.2C0.3,0.4,0.2,0.6,0.2,0.8C0.1,8.8,0,16,0,22.8C0,22.4,0.4,22,0.9,22z"/>
		<path class="st2" d="M0.9,31.6h0.8c0-1,0-2,0-2.9c-0.3,0-0.6,0-0.9,0c-0.5,0-0.8-0.4-0.8-0.9c0-0.5,0.4-0.8,0.9-0.8
			c0.3,0,0.5,0,0.8,0c0-1.1,0-2.2,0-3.3c-0.3,0-0.6,0-0.9,0c-0.5,0-0.8-0.4-0.8-0.9c0,0.2,0,0.4,0,0.6c0,3.1,0,6.1,0,9
			C0,32,0.4,31.6,0.9,31.6z"/>
		<path class="st2" d="M1.3,52.6c0.3,0,0.6,0,0.8,0c0-1.2-0.1-2.4-0.1-3.7c-0.3,0-0.6,0-0.9,0c-0.5,0-0.8-0.4-0.8-0.9
			c0-0.5,0.4-0.8,0.9-0.8c0,0,0,0,0,0c0.3,0,0.5,0,0.8,0C2,46.1,2,45.1,1.9,44c-0.3,0-0.6,0-0.8,0c-0.5,0-0.9-0.3-0.9-0.8
			c0.1,3.5,0.2,6.9,0.3,10.2C0.5,53,0.9,52.6,1.3,52.6z"/>
		<path class="st2" d="M0.9,37.3c0.3,0,0.6,0,0.9,0c0-1.3,0-2.6,0-3.9H0.9C0.4,33.3,0,33,0,32.5c0,1.9,0,3.8,0.1,5.6
			C0.1,37.7,0.5,37.3,0.9,37.3z"/>
		<path class="st2" d="M1.9,65.4c0.5,0,0.8-0.4,0.8-0.9c0-0.3,0-0.5,0-0.8c-0.1-1.5-0.2-3.1-0.2-4.6l-0.9,0c-0.5,0-0.8-0.4-0.8-0.9
			c0-0.5,0.4-0.8,0.9-0.8l0.8,0c0-1-0.1-2.1-0.1-3.1c-0.3,0-0.6,0-0.9,0c-0.5,0-0.9-0.4-0.9-0.8C0.6,57,0.8,60.4,1,63.7
			c0,0.3,0,0.6,0,0.9C1,65.1,1.4,65.4,1.9,65.4z"/>
		<path class="st2" d="M8.6,5.6c-2.8-0.3-4.1,2-4.1,4.1c0,2.8,2.9,4.3,3.8,4.3c2.5,0,4.2-1.7,4.2-4.4c0-0.4-0.1-0.8-0.2-1.2
			C11.8,6.9,10.3,5.7,8.6,5.6z M8.3,12.3c-0.3,0-2.1-1-2.1-2.6c0-0.9,0.4-2.4,1.9-2.4c0.1,0,0.2,0,0.3,0c0,0,0,0,0,0
			c0.9,0.1,2,0.7,2.3,1.7c0.1,0.2,0.1,0.4,0.1,0.7C10.8,10.6,10.5,12.3,8.3,12.3z"/>
		<path class="st2" d="M8.3,19c0.5,0,0.9-0.4,0.9-0.8c0-0.5-0.4-0.9-0.8-0.9c-2.2-0.1-4.5,0-6.6,0.1c-0.3,0-0.6,0-0.9,0
			c-0.5,0-0.8,0.4-0.8,0.9c0,0.5,0.4,0.8,0.9,0.8c0,0,0,0,0,0c0.3,0,0.5,0,0.8,0C3.8,19,6.1,19,8.3,19z"/>
		<path class="st2" d="M0.8,23.7c0.3,0,0.6,0,0.9,0c1,0,1.9,0.1,2.8,0.2c0,0,0.1,0,0.1,0c0.4,0,0.8-0.3,0.8-0.8
			c0-0.5-0.3-0.9-0.8-0.9c-0.9-0.1-1.8-0.1-2.9-0.2c-0.3,0-0.5,0-0.8,0c0,0,0,0,0,0C0.4,22,0,22.4,0,22.8c0,0,0,0,0,0c0,0,0,0,0,0
			C0,23.3,0.4,23.7,0.8,23.7z"/>
		<path class="st2" d="M9,28.8c0.5,0,0.8-0.4,0.8-0.9c0-0.5-0.4-0.8-0.9-0.8c0,0,0,0,0,0c-2.4,0.1-4.9,0-7.2-0.1c-0.3,0-0.6,0-0.8,0
			c-0.5,0-0.9,0.4-0.9,0.8c0,0.5,0.4,0.9,0.8,0.9c0.3,0,0.6,0,0.9,0c1.7,0.1,3.5,0.1,5.2,0.1C7.6,28.8,8.3,28.8,9,28.8z"/>
		<path class="st2" d="M0.9,33.3h0.9h3.7c0.5,0,0.9-0.4,0.9-0.9c0-0.5-0.4-0.9-0.9-0.9H1.7H0.9C0.4,31.6,0,32,0,32.5c0,0,0,0,0,0
			c0,0,0,0,0,0C0,33,0.4,33.3,0.9,33.3z"/>
		<path class="st2" d="M1,39C1,39,1,39,1,39c0.3,0,0.6,0,0.9,0c0.5,0,1-0.1,1.5-0.1c1.5-0.1,3.1-0.2,4.6-0.1c0.5,0,0.9-0.3,0.9-0.8
			c0-0.5-0.3-0.9-0.8-0.9c-1.6-0.1-3.2,0-4.8,0.1c-0.5,0-1,0.1-1.5,0.1c-0.3,0-0.6,0-0.9,0c-0.5,0-0.8,0.4-0.8,0.9c0,0,0,0,0,0
			c0,0,0,0,0,0C0.1,38.6,0.5,39,1,39z"/>
		<path class="st2" d="M1.1,44c0.3,0,0.6,0,0.8,0c0.2,0,0.5,0,0.7,0c0.9,0,1.7,0,2.5,0.1c0,0,0.1,0,0.1,0c0.4,0,0.8-0.3,0.8-0.8
			c0.1-0.5-0.3-0.9-0.8-0.9c-0.8-0.1-1.7-0.1-2.7-0.1c-0.3,0-0.5,0-0.8,0c-0.3,0-0.6,0-0.9,0c-0.5,0-0.8,0.4-0.8,0.9c0,0,0,0,0,0
			c0,0,0,0,0,0C0.2,43.7,0.6,44,1.1,44z"/>
		<path class="st2" d="M8.2,48.9c0.5,0,0.8-0.4,0.8-0.9c0-0.5-0.4-0.9-0.9-0.8c-2,0-4.1,0-6.2,0c-0.3,0-0.5,0-0.8,0c0,0,0,0,0,0
			c-0.5,0-0.8,0.4-0.9,0.8c0,0.5,0.4,0.9,0.8,0.9c0.3,0,0.6,0,0.9,0c1.1,0,2.3,0,3.5,0C6.4,48.9,7.3,48.9,8.2,48.9z"/>
		<path class="st2" d="M1.4,54.3c0.3,0,0.6,0,0.9,0c0.1,0,0.3,0,0.4,0c0.9,0,1.8,0,2.5,0.1c0,0,0.1,0,0.1,0c0.4,0,0.8-0.3,0.8-0.8
			c0-0.5-0.3-0.9-0.8-0.9c-0.8-0.1-1.7-0.1-2.7-0.1c-0.2,0-0.3,0-0.5,0c-0.3,0-0.6,0-0.8,0c-0.5,0-0.8,0.4-0.8,0.9c0,0,0,0,0,0
			c0,0,0,0,0,0C0.5,53.9,0.9,54.3,1.4,54.3z"/>
		<path class="st2" d="M8.2,59.4C8.3,59.4,8.3,59.4,8.2,59.4c0.5,0,0.9-0.3,0.9-0.8c0-0.5-0.3-0.9-0.8-0.9c-1.8-0.2-3.7-0.2-5.5-0.3
			l-0.5,0l-0.8,0c-0.5,0-0.9,0.4-0.9,0.8c0,0.5,0.4,0.9,0.8,0.9l0.9,0l0.4,0C4.6,59.1,6.5,59.2,8.2,59.4z"/>
		<path class="st2" d="M29.8,65.5c0.5,0,0.8-0.4,0.8-0.9c0-0.3,0-0.5,0-0.8c-0.5-10.3-0.6-20.8-0.7-31c0-1.3,0-2.6,0-3.9
			c-0.3-0.3-0.5-0.6-0.7-0.8c-0.2-0.3-0.5-0.6-0.7-0.8c-0.3-0.3-0.3-0.9,0.1-1.2c0.3-0.3,0.9-0.3,1.2,0.1c0.2,0.2,0.4,0.4,0.5,0.6
			c0.5-0.5,1.1-1.1,1.7-1.6c0.4-0.4,0.9-0.9,1.3-1.3c-0.2-0.1-0.4-0.2-0.6-0.2c-0.4-0.2-0.6-0.7-0.4-1.1c0.2-0.4,0.7-0.6,1.1-0.4
			c0.4,0.2,0.7,0.3,1.1,0.4c0.1-0.1,0.2-0.2,0.4-0.4c0.5-0.5,1.1-0.8,1.8-0.8c0.7,0,1.3,0.3,1.8,0.7c0.2,0.2,0.5,0.5,0.7,0.7
			c0.5-0.1,1-0.2,1.5-0.3c0.5-0.1,0.9,0.1,1.1,0.6c0.1,0.5-0.1,0.9-0.6,1.1c-0.2,0-0.3,0.1-0.5,0.1c0.8,0.8,1.6,1.5,2.5,2.3
			c0.3-0.2,0.5-0.4,0.8-0.6c0.4-0.3,0.9-0.2,1.2,0.1c0.3,0.4,0.2,0.9-0.1,1.2c-0.5,0.4-0.9,0.8-1.4,1.2c0,1.8,0,3.6,0,5.3
			c0,4,0,8.1,0,12.1c0,7,0,12.7,0.1,18c0,0.3,0,0.6,0,0.9c0,0.5,0.4,0.8,0.9,0.8l0,0c0,0,0,0,0,0c0,0,0,0,0,0c0.5,0,0.8-0.4,0.8-0.9
			c0-0.3,0-0.6,0-0.8c-0.1-5.2-0.1-11-0.1-18c0-4,0-8.1,0-12.1c0-2.4,0-4.8,0-7.2c0-0.3-0.1-0.5-0.3-0.7c-1.5-1.1-2.7-2.4-3.9-3.7
			c-0.4-0.4-0.8-0.8-1.2-1.3c-0.8-0.8-1.9-1.2-3-1.2c-1.1,0-2.2,0.5-3,1.3c-1,1-2,2-3,2.9c-0.8,0.8-1.6,1.5-2.3,2.3
			c-0.2,0.2-0.2,0.4-0.2,0.6c0,2,0,4.1,0.1,6.1c0.1,10.2,0.2,20.7,0.7,31c0,0.3,0,0.6,0,0.9C28.9,65.2,29.3,65.5,29.8,65.5z"/>
		<path class="st2" d="M31.5,30.6c0-0.2,0-0.3,0-0.5c0-0.5,0.3-0.9,0.8-0.9c0.5,0,0.9,0.3,0.9,0.8c0,0.2,0,0.3,0,0.4
			c0.7-0.6,1.5-1.2,2.3-1.7c0.4-0.3,0.8-0.6,1.3-1c0.3,0.3,0.5,0.7,0.8,1c0.5,0.6,1,1.3,1.6,1.9l0-0.6c0-0.5,0.4-0.9,0.8-0.9
			c0,0,0,0,0,0c0.5,0,0.8,0.4,0.9,0.8l0,0.4c0.9-0.7,1.7-1.4,2.6-2.1c0,0,0.1,0,0.1-0.1c0.5-0.4,0.9-0.8,1.4-1.2
			c0.4-0.3,0.4-0.8,0.1-1.2c-0.3-0.4-0.8-0.4-1.2-0.1c-0.3,0.2-0.5,0.4-0.8,0.6c-0.2,0.2-0.5,0.4-0.7,0.6c-0.8,0.7-1.6,1.3-2.4,1.9
			c-0.4-0.4-0.7-0.8-1-1.3c-0.4-0.6-0.9-1.2-1.4-1.7c-0.3-0.3-0.8-0.4-1.1-0.1c-0.6,0.5-1.3,1-1.9,1.4c-0.7,0.5-1.4,1.1-2.2,1.6
			c-0.7-0.6-1.3-1.4-1.9-2.1c-0.1-0.1-0.1-0.2-0.2-0.2c-0.2-0.2-0.4-0.4-0.5-0.6c-0.3-0.4-0.9-0.4-1.2-0.1c-0.3,0.3-0.4,0.9-0.1,1.2
			c0.2,0.3,0.5,0.5,0.7,0.8c0.2,0.3,0.5,0.6,0.7,0.8C30.4,29.5,30.9,30.1,31.5,30.6z"/>
		<path class="st2" d="M40.6,24.2c0.2,0,0.3-0.1,0.5-0.1c0.5-0.1,0.7-0.6,0.6-1.1c-0.1-0.5-0.6-0.7-1.1-0.6c-0.5,0.1-1,0.2-1.5,0.3
			c-0.6,0.1-1.2,0.1-1.8,0.1c-1,0-2-0.2-2.9-0.4c-0.4-0.1-0.8-0.3-1.1-0.4c-0.4-0.2-0.9,0-1.1,0.4c-0.2,0.4,0,0.9,0.4,1.1
			c0.2,0.1,0.4,0.2,0.6,0.2c1.3,0.5,2.7,0.8,4.2,0.8C38.5,24.6,39.5,24.5,40.6,24.2z"/>
		<path class="st2" d="M34.3,65.5C34.3,65.5,34.3,65.5,34.3,65.5c0.5,0,0.9-0.4,0.8-0.9c0-0.3,0-0.5,0-0.8
			c-0.6-11.1-1.2-22.1-1.9-33.3c0-0.2,0-0.3,0-0.4c0-0.5-0.4-0.8-0.9-0.8c-0.5,0-0.8,0.4-0.8,0.9c0,0.2,0,0.3,0,0.5
			c0.7,11.2,1.3,22.2,1.9,33.2c0,0.3,0,0.6,0,0.9C33.4,65.2,33.8,65.5,34.3,65.5C34.3,65.5,34.3,65.5,34.3,65.5
			C34.3,65.5,34.3,65.5,34.3,65.5z"/>
		<path class="st2" d="M41.3,64.6c0-0.3,0-0.6,0-0.8c-0.3-10.2-0.4-20.6-0.5-30.6l0-2.7l0-0.4c0-0.5-0.4-0.8-0.9-0.8c0,0,0,0,0,0
			c-0.5,0-0.8,0.4-0.8,0.9l0,0.6l0,2.5c0.1,10,0.2,20.4,0.5,30.6c0,0.3,0,0.6,0,0.9c0,0.5,0.4,0.8,0.9,0.8c0,0,0,0,0,0c0,0,0,0,0,0
			c0,0,0,0,0,0C40.9,65.5,41.3,65.1,41.3,64.6z"/>
	</g>
</g>
</svg>