<!-- Generator: Adobe Illustrator 22.0.1, SVG Export Plug-In  -->
<svg version="1.1"
	 xmlns="http://www.w3.org/2000/svg" xmlns:xlink="http://www.w3.org/1999/xlink" xmlns:a="http://ns.adobe.com/AdobeSVGViewerExtensions/3.0/"
	 x="0px" y="0px" width="172.7px" height="200.4px" viewBox="0 0 172.7 200.4" style="enable-background:new 0 0 172.7 200.4;"
	 xml:space="preserve">
<style type="text/css">
	.st0{fill:#E0DFE6;}
	.st1{fill:#082E41;}
</style>
<defs>
</defs>
<path class="st0" d="M26.1,187.7c2,2.1,4.3,4.1,6.9,5.7c13.1,8.1,28.9,5.5,41.5-2.3c1.2-0.8,1.9-1.8,2.2-2.9
	c7.6-6.6,14-15.5,18.4-23.5c0.7-1.3-1.1-2.9-2.2-1.7c-6.5,7.2-13.1,12.5-22.2,16.2c-9,3.6-17.9,4.1-27.3,5.4c-0.4-1.4-1.4-2.7-3-3.4
	c-4.6-1.9-9-2.8-13.1-5c-4.5-4.8-8.3-10.4-12-15.7c-0.1-0.2-0.5-0.1-0.4,0.1c0.2,1.9,0.5,3.8,0.8,5.6c-3.2-3.4-5.9-7-5.1-8.9
	c0.4-1-1-2-1.8-1.4c-6.3,4.5,2.6,17.1,5.7,21.4C17.3,181.1,21.4,185.1,26.1,187.7z"/>
<path class="st0" d="M96.9,168.5c-0.9,0.9-1.8,1.9-2.7,2.8c-1.3,1.4,0.4,3.9,2.1,2.7c1.1-0.7,2.1-1.4,3.2-2.1
	c1.1-0.7,1.4-2.1,0.6-3.2C99.3,167.7,97.8,167.5,96.9,168.5z"/>
<path class="st0" d="M140.1,56.4c-5.4-2.6-10.8-5.1-16-8.1c0,0-0.1,0-0.1,0c-8.4-8.2-17.8-15.7-26-23.5c-0.3-0.3-0.9,0.1-0.7,0.5
	c8.2,11.3,14.8,24.4,23,36c0,0,0,0.1,0,0.1c-0.2,0.6-0.3,1.3-0.3,1.9c-1,0.6-1.6,2.1-1,3.3c0.4,0.8,0.9,1.5,1.4,2.2
	c0.4,1.9,0.9,3.8,1.3,5.6c1.2,4.5,2.2,9.3,6.3,11.9c2.7,1.7,6.2-0.5,6.2-3.6c0-3.2-1.6-5.9-3.3-8.6c0.2,0.2,0.4,0.4,0.6,0.6
	c4.4,4.4,11.9-1.2,8.7-6.7c-0.8-1.3-1.6-2.5-2.4-3.8c0-0.4,0-0.7-0.1-1.1C141.2,63.7,143.8,58.3,140.1,56.4z"/>
<path class="st1" d="M6.3,169.4c8.6,16.3,22.2,31,47.4,31c14,0,28.6-7.6,40.5-20.5c-0.3,0-0.7,0.1-1,0.1c-0.1,0-0.1,0-0.2,0
	c-1.3,0-2.4-1-2.5-2.4c-0.1-1.4,0.9-2.6,2.4-2.7c2.1-0.2,4.2-0.4,6.2-0.7c2.1-2.8,4.1-5.7,6-8.8c0.5-0.8,0.5-1.7,0.1-2.5
	c-11-20.3-25-39.1-52.9-39.1c-19.6,0-39.4,11.3-51.7,29.5c-0.5,0.7-0.6,1.6-0.3,2.4C1.2,158.4,6.8,169.5,6.3,169.4z M52.2,128.9
	c23.3,0,36,14,47.7,35.1c-12,19.3-29.6,31.3-46.1,31.3c-15.1,0-34.1-4.6-48.2-40.2C16.9,138.9,34.7,128.9,52.2,128.9z"/>
<path class="st1" d="M53,185.5c14.9,0,24.9-9.9,24.9-24.5c0-11.5-10.1-24.9-23.2-24.9c-0.7,0-1.4,0-2.2,0.1c-0.7,0-1.5,0.1-2.3,0.1
	c-13.9,0-23.6,12.8-23.6,24.4C26.6,174.4,41,185.5,53,185.5z M50.2,141.3c0.9,0,1.8,0,2.6-0.1c0.7,0,1.3-0.1,1.9-0.1
	c10.9,0,18.1,11.9,18.1,19.8c0,11.8-7.8,19.4-19.8,19.4c-9.6,0-21.3-9.1-21.3-19.8C31.7,151.5,39.3,141.3,50.2,141.3z"/>
<path class="st1" d="M52.5,171c6.1,0,10.3-4.2,10.3-10.2c0-5.9-5.1-10.3-9.7-10.3c-0.3,0-0.6,0-0.8,0c-0.2,0-0.5,0-0.7,0
	c-5.9,0-9.8,5.2-9.8,10.1C41.7,166.5,47.5,171,52.5,171z M51.5,155.7c0.4,0,0.7,0,1,0c0.2,0,0.4,0,0.6,0c1.9,0,4.6,2.2,4.6,5.2
	c0,3.2-1.9,5-5.2,5c-2.5,0-5.7-2.5-5.7-5.2C46.8,158.4,48.8,155.7,51.5,155.7z"/>
<path class="st1" d="M114.5,175.3c0.3,0,0.6-0.1,0.9-0.2c2.2-0.9,4.4-1.9,6.4-2.9c1.2-0.7,1.7-2.2,1.1-3.5c-0.7-1.2-2.2-1.7-3.5-1.1
	c-1.9,1-3.9,1.9-5.9,2.7c-1.3,0.5-2,2-1.4,3.3C112.5,174.7,113.5,175.3,114.5,175.3z"/>
<path class="st1" d="M152.8,121.4c0-1.1,0.1-2.1,0.1-3.2c0-1.2,0-2.4,0-3.8c0-1.4-1.2-2.5-2.6-2.5c-1.4,0-2.5,1.2-2.5,2.6
	c0,1.3,0,2.5,0,3.6c0,1,0,2-0.1,3c-0.1,1.4,1,2.6,2.4,2.7c0,0,0.1,0,0.1,0C151.6,123.9,152.7,122.8,152.8,121.4z"/>
<path class="st1" d="M139.3,154c-1.1-0.9-2.7-0.7-3.6,0.4c-1.3,1.7-2.8,3.3-4.4,4.8c-1,1-1.1,2.6-0.1,3.6c0.5,0.5,1.2,0.8,1.8,0.8
	c0.6,0,1.3-0.2,1.8-0.7c1.7-1.6,3.3-3.4,4.8-5.3C140.6,156.5,140.4,154.9,139.3,154z"/>
<path class="st1" d="M148.5,134c-1.4-0.4-2.8,0.4-3.2,1.7c-0.6,2.1-1.3,4.2-2.2,6.1c-0.5,1.3,0.1,2.8,1.4,3.3c0.3,0.1,0.7,0.2,1,0.2
	c1,0,1.9-0.6,2.4-1.6c0.9-2.2,1.7-4.4,2.4-6.7C150.6,135.8,149.8,134.4,148.5,134z"/>
<path class="st1" d="M146.5,91.8c-1-1-2.6-1.1-3.6-0.2c-1,1-1.1,2.6-0.2,3.6c1.1,1.2,2,2.9,2.8,5c0.4,1.1,1.4,1.7,2.4,1.7
	c0.3,0,0.6,0,0.8-0.1c1.3-0.5,2-1.9,1.6-3.3C149.4,95.8,148.1,93.5,146.5,91.8z"/>
<path class="st1" d="M90.4,177.7c0.1,1.3,1.2,2.4,2.5,2.4c0.1,0,0.1,0,0.2,0c0.3,0,0.7-0.1,1-0.1c2-0.2,4-0.4,6-0.7
	c1.4-0.2,2.3-1.5,2.1-2.9c-0.2-1.4-1.5-2.3-2.9-2.1c-0.1,0-0.3,0-0.4,0.1c-2,0.3-4.1,0.6-6.2,0.7C91.4,175,90.3,176.3,90.4,177.7z"
	/>
<path class="st1" d="M87.3,48.9c3.6,7.3,7.3,14.8,10.8,22.2c0.6,1.2,2,1.8,3.2,1.3c2.7-1.1,5.5-2.1,8.2-3.2
	c7.3,8.3,14.6,17,22.3,26.5c0.5,0.6,1.2,0.9,2,0.9c0.2,0,0.4,0,0.6-0.1c1-0.2,1.7-1,1.9-2c1.4-6.5,2.6-13.2,3.7-19.7
	c1.1-6,2.2-12.1,3.4-18.1c6.3-2.3,9.8-4.6,13.2-6.8c3.7-2.4,7.2-4.6,14.2-6.9c1-0.3,1.7-1.3,1.8-2.4c0-1.1-0.6-2.1-1.7-2.5L69.2,0.2
	c-1-0.4-2-0.1-2.7,0.6c-0.7,0.7-0.9,1.8-0.5,2.8C72.5,19,80,34.2,87.3,48.9z M162.9,40.6c-3.7,1.7-6.3,3.4-8.9,5
	c-3.4,2.2-6.6,4.3-12.5,6.4c0.3,0.1,0.6,0.2,0.9,0.3c1.3,0.5,2,1.9,1.6,3.2c-0.5,1.3-1.9,2-3.2,1.6c-0.8-0.3-1.5-0.5-2.3-0.8
	c-1.2,5.9-2.3,11.8-3.3,17.6c-0.8,4.7-1.7,9.5-2.6,14.2c-6.3-7.7-12.4-14.8-18.4-21.7c-3,1.2-5.8,2.4-8.4,3.6
	c-0.3,0.2-0.7,0.2-1,0.2c-1,0-1.9-0.6-2.3-1.5c-0.4-0.8-0.3-1.7,0.1-2.4c-0.2,0.1-0.5,0.2-0.7,0.3c-3.2-6.8-6.6-13.5-9.9-20.1
	C85.5,33.7,79,20.5,73.1,7L162.9,40.6z"/>
<path class="st1" d="M112,42.5c-0.7,0.8-0.9,2-0.3,3c2.4,4.3,4.9,8.9,7.3,13.6c-5.9,2.3-10.8,4.4-15.3,6.4c-0.5,0.2-0.9,0.6-1.1,1
	c-0.4,0.7-0.5,1.6-0.1,2.4c0.4,0.9,1.4,1.5,2.3,1.5c0.4,0,0.7-0.1,1-0.2c2.6-1.2,5.4-2.4,8.4-3.6c2.8-1.2,5.9-2.4,9.3-3.8
	c0.7-0.3,1.2-0.8,1.4-1.4c0.3-0.7,0.2-1.4-0.1-2c-1.6-3.4-3.3-6.7-5.1-9.9c5.8,2.3,12.5,4.8,18.8,7c0.8,0.3,1.5,0.5,2.3,0.8
	c1.3,0.5,2.8-0.3,3.2-1.6c0.5-1.3-0.3-2.8-1.6-3.2c-0.3-0.1-0.6-0.2-0.9-0.3c-9.2-3.2-19.5-7.1-26.7-10.2
	C113.9,41.4,112.7,41.7,112,42.5z"/>
</svg>