<!-- Generator: Adobe Illustrator 22.0.1, SVG Export Plug-In  -->
<svg version="1.1"
	 xmlns="http://www.w3.org/2000/svg" xmlns:xlink="http://www.w3.org/1999/xlink" xmlns:a="http://ns.adobe.com/AdobeSVGViewerExtensions/3.0/"
	 x="0px" y="0px" width="80.6px" height="65.6px" viewBox="0 0 80.6 65.6" style="enable-background:new 0 0 80.6 65.6;"
	 xml:space="preserve">
<style type="text/css">
	.st0{fill:#E0DFE6;}
	.st1{fill:#082E41;}
</style>
<defs>
</defs>
<path class="st0" d="M23.2,40.6c1.9,0.3,3.6-0.7,5.4-1.2c2-0.5,4.4-0.2,5.8-1.9c1.2-1.4,1.1-3.7-0.6-4.7c-2.3-1.4-5,0-7.2,1.2
	c-1.8,0.9-4.3,2.2-4.7,4.3C21.7,39.2,22.2,40.4,23.2,40.6z"/>
<path class="st0" d="M51.6,55c5,4.3,12.7,10.3,19.6,8.8c3.1-0.7,4.1-4.9,1.9-7.1c-2.5-2.4-5.5-2.9-8.5-4.4c-3.1-1.6-5.9-3.6-8.7-5.7
	c-6-4.3-11.4-8.9-18.1-12.1c-1.3-0.6-3,0.7-2.1,2.1C40,43.5,45.5,49.7,51.6,55z"/>
<path class="st1" d="M23.7,48.4c-0.2,0.1-0.4,0.1-0.6,0.1c-0.6,0-1.1-0.3-1.4-0.9c-0.1-0.3-0.2-0.6-0.3-0.9
	c-0.3,0.2-0.7,0.4-1.1,0.4c-4.1-0.2-8.3-0.6-12.5-1.2c-1.4-0.2-2.6-1.3-2.8-2.7c-0.2-1-0.4-2-0.6-3c-0.6-0.1-1.2-0.1-1.8-0.2
	c-0.8-0.1-1.4-0.9-1.3-1.7C1.4,37.4,2.2,36.9,3,37c0.3,0,0.6,0.1,1,0.1c-0.3-1.9-0.5-3.9-0.6-5.8c-0.6-0.1-1.2-0.1-1.8-0.2
	c-0.8-0.1-1.4-0.9-1.3-1.7C0.4,28.5,1.1,28,2,28.1c0.4,0.1,0.8,0.1,1.2,0.1C3,26.8,3,25.4,3,23.9c0-0.7,0.3-1.3,0.7-1.7
	c0.5-0.4,1.1-0.7,1.8-0.6c2,0.1,4.1,0.3,6.2,0.5c1.3,0.1,2.6,0.2,3.9,0.3c-0.1-0.6-0.1-1.2-0.2-1.8c0-0.5,0.1-0.9,0.4-1.2
	c-1.3-0.1-2.6-0.2-3.9-0.3c-2-0.2-4.2-0.4-6.3-0.5c-1.5-0.1-2.9,0.4-4,1.5C0.6,21,0,22.5,0,23.9c0,6.6,0.7,13.2,2,19.8
	c0.5,2.6,2.7,4.7,5.3,5.1c4.3,0.7,8.6,1.1,12.8,1.2c1.4,0,2.7-0.5,3.6-1.5c0.2-0.2,0.4-0.5,0.5-0.7C24.2,48.1,24,48.3,23.7,48.4z"/>
<path class="st1" d="M18.4,20.3c0.1,0.8,0.1,1.5,0.2,2.3c0.5,0,0.9-0.2,1.2-0.6c0.3-0.4,0.3-1,0.1-1.5c-1.4-3.1-2.8-6.9-2.8-10.9
	c0-2.3,0.7-4.3,2-5.9c0.4-0.5,1.1-0.8,1.8-0.6c0.7,0.1,1.2,0.6,1.4,1.2c5.5,14.8,16,29.8,54.8,39.3c0.6,0.1,1.1,0.3,1.7,0.4
	c0.8,0.2,1.6-0.3,1.8-1.1c0.2-0.8-0.3-1.6-1.1-1.8c-0.4-0.1-0.8-0.2-1.2-0.3C67.9,38.3,57.5,35,48.1,29.7c-6.1-3.4-11.7-7.8-16-13.4
	c-1-1.3-1.9-2.7-2.8-4.1c-0.4-0.7-0.8-1.3-1.1-2c-1.2-2.3-2.2-4.6-3.1-7c-0.6-1.6-2-2.8-3.8-3.1c-1.7-0.3-3.5,0.3-4.6,1.7
	c-1,1.2-1.7,2.6-2.2,4.1c-1.2,4.3,0,9.2,1.5,13.3c0.2-0.1,0.4-0.2,0.6-0.2C17.6,18.9,18.3,19.5,18.4,20.3z"/>
<path class="st1" d="M72,65.6c0.6,0,1.1-0.3,1.4-0.9c0.3-0.8,0-1.6-0.8-2c-0.5-0.2-1-0.5-1.6-0.7c-7.5-3.5-20.6-10.8-34-23.8
	c-1.7-1.7-4.4-1.8-6.3-0.4c-2.7,2-5.2,3.5-7.8,4.7c0.5,1.4,1,2.7,1.6,4c0.2,0.5,0.1,1-0.1,1.4c0.5-0.9,0.8-2,0.6-3l0,0
	c2.4-1.2,4.9-2.7,7.5-4.6c0.7-0.5,1.8-0.5,2.4,0.2C49,53.9,62.8,61.4,70.3,64.9c0.4,0.2,0.7,0.3,1.1,0.5
	C71.6,65.5,71.8,65.6,72,65.6z"/>
<path class="st1" d="M24.5,46.4c-0.6-1.3-1.1-2.6-1.6-4c-2.1-6-3.6-12.6-4.3-19.8c-0.1-0.7-0.2-1.5-0.2-2.3
	c-0.1-0.8-0.8-1.4-1.6-1.4c-0.2,0-0.4,0.1-0.6,0.2c-0.1,0.1-0.2,0.2-0.3,0.2c-0.3,0.3-0.5,0.7-0.4,1.2c0,0.6,0.1,1.2,0.2,1.8
	c0.2,2.2,0.5,4.4,0.9,6.5c0.6,0,1.2,0,1.8,0c0.8,0,1.5,0.7,1.5,1.5c0,0.8-0.7,1.5-1.5,1.5c-0.4,0-0.8,0-1.2,0
	c0.4,1.9,0.8,3.8,1.3,5.6c0.6,0,1.3,0,1.9,0c0.8,0,1.5,0.6,1.5,1.5c0,0.8-0.6,1.5-1.5,1.5c-0.4,0-0.7,0-1.1,0
	c0.7,2.1,1.4,4.2,2.2,6.2c0.1,0.3,0.2,0.6,0.3,0.9c0.2,0.6,0.8,0.9,1.4,0.9c0.2,0,0.4,0,0.6-0.1c0.3-0.1,0.5-0.3,0.6-0.5
	c0,0,0,0,0-0.1C24.6,47.4,24.7,46.9,24.5,46.4z"/>
<path class="st1" d="M4,37.1c-0.3,0-0.6-0.1-1-0.1c-0.8-0.1-1.6,0.5-1.7,1.3c-0.1,0.8,0.5,1.6,1.3,1.7c0.6,0.1,1.2,0.2,1.8,0.2
	c2.9,0.3,6,0.4,9.8,0.4c1.6,0,3.3,0,4.9-0.1c0.4,0,0.7,0,1.1,0c0.8,0,1.5-0.7,1.5-1.5c0-0.8-0.8-1.5-1.5-1.5c-0.6,0-1.3,0-1.9,0
	c-1.4,0-2.7,0-4.1,0C10.2,37.6,6.9,37.4,4,37.1z"/>
<path class="st1" d="M3.1,28.2c-0.4,0-0.8-0.1-1.2-0.1c-0.8-0.1-1.6,0.5-1.7,1.3c-0.1,0.8,0.5,1.6,1.3,1.7c0.6,0.1,1.2,0.2,1.8,0.2
	c3.8,0.4,8,0.7,13,0.7c0.2,0,0.4,0,0.6,0c0.4,0,0.8,0,1.2,0c0.8,0,1.5-0.7,1.5-1.5c0-0.8-0.7-1.5-1.5-1.5c-0.6,0-1.2,0-1.8,0
	c0,0-0.1,0-0.1,0C11.2,28.9,7,28.7,3.1,28.2z"/>
</svg>