<?xml version="1.0"?>
<svg xmlns="http://www.w3.org/2000/svg" viewBox="0 0 32 32">
    <path style="text-indent:0;text-align:start;line-height:normal;text-transform:none;block-progression:tb;-inkscape-font-specification:Sans" d="M 9.125 3 C 7.3983048 3 6 4.4580187 6 6.1875 L 6 25 L 6 26 L 7 26 L 7 28 L 7 29 L 8 29 L 24 29 L 25 29 L 25 28 L 25 26 L 26 26 L 26 25 L 26 6.1875 C 26 4.4580187 24.601695 3 22.875 3 L 9.125 3 z M 9.125 5 L 22.875 5 C 23.488305 5 24 5.5069813 24 6.1875 L 24 24 L 8 24 L 8 6.1875 C 8 5.5069813 8.5116952 5 9.125 5 z M 9 6 L 9 7 L 9 18 L 9 19 L 10 19 L 22 19 L 23 19 L 23 18 L 23 7 L 23 6 L 22 6 L 10 6 L 9 6 z M 11 8 L 21 8 L 21 17 L 11 17 L 11 8 z M 12 9 L 12 11 L 14 11 L 14 9 L 12 9 z M 15 9 L 15 11 L 15 12 L 15 13 L 16 13 L 17 13 L 17 12 L 17 9 L 15 9 z M 18 9 L 18 11 L 20 11 L 20 9 L 18 9 z M 13 14 C 13 14.465679 13.124742 14.967384 13.46875 15.375 C 13.812758 15.782616 14.356289 16 14.875 16 L 17 16 C 17.518711 16 18.060186 15.810014 18.4375 15.4375 C 18.814814 15.064986 19 14.530909 19 14 L 17 14 L 15 14 L 14.875 14 L 13 14 z M 10 21 L 10 23 L 12 23 L 12 21 L 10 21 z M 18 21 L 18 23 L 22 23 L 22 21 L 18 21 z M 9 26 L 23 26 L 23 27 L 9 27 L 9 26 z"/>
</svg>
