<?xml version="1.0" encoding="utf-8"?>
<!-- Generator: Adobe Illustrator 22.0.1, SVG Export Plug-In . SVG Version: 6.00 Build 0)  -->
<svg version="1.1" id="Layer_1" xmlns="http://www.w3.org/2000/svg" xmlns:xlink="http://www.w3.org/1999/xlink" x="0px" y="0px"
	 viewBox="0 0 396.3 57.8" style="enable-background:new 0 0 396.3 57.8;" xml:space="preserve">
<style type="text/css">
	.st0{fill:#FFFFFF;}
</style>
<g>
	<path class="st0" d="M32.5,41.4l-6.6-26.6l-6.6,26.6h-8.1L1.2,1h8.6l5.5,29.5L22.6,1H29l7.3,29.5L41.8,1h8.3L40,41.4H32.5z"/>
	<path class="st0" d="M54.3,11.8h6v29.7h-6V11.8z"/>
	<path class="st0" d="M78.3,17.2v24.2h-6V17.2h-7.8v-5.5H86v5.5H78.3z"/>
	<path class="st0" d="M90.3,11.8h6v11.7h10.2V11.8h6v29.7h-6V29.1H96.3v12.3h-6C90.3,41.4,90.3,11.8,90.3,11.8z"/>
	<path class="st0" d="M141.1,1c4.7,0,8,3.2,8,8v24.5c0,4.7-3.2,8-8,8h-21V1H141.1z M139.1,33.8c1.3,0,1.9-0.7,1.9-1.9V10.6
		c0-1.3-0.7-1.9-1.9-1.9h-10.9v25.1H139.1z"/>
	<path class="st0" d="M175.3,11.8v5.6h-13.5v6.1h10.9v5.6h-10.9v6.7h13.5v5.6h-19.4V11.8H175.3z"/>
	<path class="st0" d="M194,18.6c0-0.9-0.5-1.4-1.4-1.4h-6c-0.9,0-1.4,0.5-1.4,1.4v2.8c0,0.9,0.5,1.2,1.4,1.4l7.6,1.7
		c3.2,0.7,6,2.7,6,6v5.3c0,3.4-2.4,5.9-5.9,5.9h-9.3c-3.4,0-5.9-2.4-5.9-5.9V32h5.7v2.7c0,0.9,0.5,1.4,1.4,1.4h6.5
		c0.9,0,1.4-0.5,1.4-1.4v-3.2c0-0.9-0.5-1.2-1.4-1.4l-7.5-1.7c-3.2-0.7-6-2.7-6-6v-5c0-3.4,2.4-5.9,5.9-5.9h8.8
		c3.4,0,5.9,2.4,5.9,5.9v3.4H194V18.6z"/>
	<path class="st0" d="M205.9,11.8h6v29.7h-6V11.8z"/>
	<path class="st0" d="M233.2,18.6c0-0.9-0.5-1.4-1.4-1.4H225c-0.9,0-1.4,0.5-1.4,1.4v16c0,0.9,0.5,1.4,1.4,1.4h6.8
		c0.9,0,1.4-0.5,1.4-1.4v-4.4h-5.5v-5.3h11.4v10.9c0,3.4-2.4,5.9-5.9,5.9h-9.7c-3.4,0-5.9-2.4-5.9-5.9V17.5c0-3.4,2.4-5.9,5.9-5.9
		h9.7c3.4,0,5.9,2.4,5.9,5.9v3.9h-6L233.2,18.6L233.2,18.6z"/>
	<path class="st0" d="M267.8,11.8v29.7h-6.5l-10.9-20.3v20.3h-5.5V11.8h6.4L262.2,32V11.8H267.8z"/>
	<path class="st0" d="M273.3,41.4v-6h5.7v6H273.3z"/>
</g>
<g>
	<path class="st0" d="M15.3,46.7c1.1,0,1.9,0.8,1.9,1.9V50c0,0.6-0.2,1.1-0.8,1.4c0.7,0.3,0.9,0.9,0.9,1.4v1.6
		c0,1.1-0.8,1.9-1.9,1.9h-5v-9.6H15.3z M14.8,50.6c0.3,0,0.5-0.1,0.5-0.5V49c0-0.3-0.2-0.5-0.5-0.5h-2.5v2.1H14.8z M14.9,54.6
		c0.3,0,0.5-0.2,0.5-0.5v-1.4c0-0.4-0.2-0.4-0.6-0.4h-2.4v2.3H14.9z"/>
	<path class="st0" d="M20.9,56.4V53l-3-6.3H20l1.8,4.1l1.8-4.1h2.1l-3,6.3v3.3H20.9z"/>
	<path class="st0" d="M34.9,49c0-0.3-0.2-0.5-0.5-0.5h-2.1c-0.3,0-0.5,0.2-0.5,0.5v5.2c0,0.3,0.2,0.5,0.5,0.5h2.1
		c0.3,0,0.5-0.2,0.5-0.5V53h1.9v1.5c0,1.1-0.8,1.9-1.9,1.9h-3c-1.1,0-1.9-0.8-1.9-1.9v-5.9c0-1.1,0.8-1.9,1.9-1.9h3
		c1.1,0,1.9,0.8,1.9,1.9v1.6h-1.9V49z"/>
	<path class="st0" d="M43.4,46.7c1.1,0,1.9,0.8,1.9,1.9v5.9c0,1.1-0.8,1.9-1.9,1.9h-3.2c-1.1,0-1.9-0.8-1.9-1.9v-5.9
		c0-1.1,0.8-1.9,1.9-1.9H43.4z M43.4,49c0-0.3-0.2-0.5-0.5-0.5h-2.3c-0.3,0-0.5,0.2-0.5,0.5v5.2c0,0.3,0.2,0.5,0.5,0.5h2.3
		c0.3,0,0.5-0.2,0.5-0.5V49z"/>
	<path class="st0" d="M52.2,46.7c1.1,0,1.9,0.8,1.9,1.9v5.8c0,1.1-0.8,1.9-1.9,1.9h-5v-9.6H52.2z M51.7,54.5c0.3,0,0.5-0.2,0.5-0.5
		V49c0-0.3-0.2-0.5-0.5-0.5h-2.6v6H51.7z"/>
	<path class="st0" d="M57.7,56.4V53l-3-6.3h2.1l1.8,4.1l1.8-4.1h2.1l-3,6.3v3.3H57.7z"/>
	<path class="st0" d="M72.1,56.4l-1.5-3.6H69v3.6h-1.9v-9.6H72c1.1,0,1.9,0.8,1.9,1.9v2.3c0,0.9-0.5,1.6-1.3,1.8l1.6,3.6H72.1z
		 M71.9,49c0-0.3-0.2-0.5-0.5-0.5H69V51h2.5c0.3,0,0.5-0.2,0.5-0.5V49z"/>
	<path class="st0" d="M82,46.7v1.8h-4.4v2h3.5v1.8h-3.5v2.2H82v1.8h-6.3v-9.6H82z"/>
	<path class="st0" d="M90,46.7v1.8h-4.4v2h3.5v1.8h-3.5v2.2H90v1.8h-6.3v-9.6H90z"/>
	<path class="st0" d="M96.1,56.4h-2.2l-2.9-9.6h2.2l1.9,7.3l1.9-7.3H99L96.1,56.4z"/>
	<path class="st0" d="M106.6,46.7v1.8h-4.4v2h3.5v1.8h-3.5v2.2h4.4v1.8h-6.3v-9.6H106.6z"/>
	<path class="st0" d="M112.7,49c0-0.3-0.2-0.5-0.5-0.5h-1.9c-0.3,0-0.5,0.2-0.5,0.5v0.9c0,0.3,0.2,0.4,0.5,0.5l2.5,0.5
		c1,0.2,1.9,0.9,1.9,1.9v1.7c0,1.1-0.8,1.9-1.9,1.9h-3c-1.1,0-1.9-0.8-1.9-1.9v-1.2h1.9v0.9c0,0.3,0.2,0.5,0.5,0.5h2.1
		c0.3,0,0.5-0.2,0.5-0.5v-1c0-0.3-0.2-0.4-0.5-0.5l-2.5-0.5c-1-0.2-1.9-0.9-1.9-1.9v-1.6c0-1.1,0.8-1.9,1.9-1.9h2.8
		c1.1,0,1.9,0.8,1.9,1.9v1.1h-1.9V49z"/>
</g>
</svg>
