<!-- Generator: Adobe Illustrator 22.0.1, SVG Export Plug-In  -->
<svg version="1.1"
	 xmlns="http://www.w3.org/2000/svg" xmlns:xlink="http://www.w3.org/1999/xlink" xmlns:a="http://ns.adobe.com/AdobeSVGViewerExtensions/3.0/"
	 x="0px" y="0px" width="396.3px" height="57.8px" viewBox="0 0 396.3 57.8" style="enable-background:new 0 0 396.3 57.8;"
	 xml:space="preserve">
<style type="text/css">
	.st0{fill:#010101;}
</style>
<defs>
</defs>
<g>
	<path class="st0" d="M44.6,57.6l-9.4-37.9l-9.4,37.9H14.3L0,0h12.3l7.8,42.1L30.6,0h9.1l10.4,42.1L57.9,0h11.8L55.4,57.6H44.6z"/>
	<path class="st0" d="M75.8,15.3h8.5v42.3h-8.5V15.3z"/>
	<path class="st0" d="M110,23.1v34.5h-8.5V23.1H90.4v-7.9H121v7.9H110z"/>
	<path class="st0" d="M127.1,15.3h8.5V32h14.6V15.3h8.5v42.3h-8.5V40h-14.6v17.6h-8.5V15.3z"/>
	<path class="st0" d="M199.6,0c6.7,0,11.4,4.6,11.4,11.4v34.9c0,6.7-4.6,11.4-11.4,11.4h-30V0H199.6z M196.7,46.7
		c1.8,0,2.7-1,2.7-2.7V13.6c0-1.8-1-2.7-2.7-2.7h-15.6v35.8H196.7z"/>
	<path class="st0" d="M248.3,15.3v8H229V32h15.6v8H229v9.6h19.2v8h-27.7V15.3H248.3z"/>
	<path class="st0" d="M275,25c0-1.3-0.7-2-2-2h-8.5c-1.3,0-2,0.7-2,2v4c0,1.3,0.7,1.7,2,2l10.9,2.4c4.6,1,8.5,3.8,8.5,8.5v7.6
		c0,4.9-3.4,8.4-8.4,8.4h-13.2c-4.9,0-8.4-3.4-8.4-8.4v-5.4h8.2v3.8c0,1.3,0.7,2,2,2h9.2c1.3,0,2-0.7,2-2v-4.5c0-1.3-0.7-1.7-2-2
		L262.6,39c-4.6-1-8.5-3.8-8.5-8.5v-7.2c0-4.9,3.4-8.4,8.4-8.4h12.5c4.9,0,8.4,3.4,8.4,8.4v4.9H275V25z"/>
	<path class="st0" d="M292,15.3h8.5v42.3H292V15.3z"/>
	<path class="st0" d="M330.9,25c0-1.3-0.7-2-2-2h-9.7c-1.3,0-2,0.7-2,2v22.8c0,1.3,0.7,2,2,2h9.7c1.3,0,2-0.7,2-2v-6.3h-7.8v-7.6
		h16.2v15.6c0,4.9-3.4,8.4-8.4,8.4h-13.9c-4.9,0-8.4-3.4-8.4-8.4V23.4c0-4.9,3.4-8.4,8.4-8.4h13.9c4.9,0,8.4,3.4,8.4,8.4v5.5h-8.5
		V25z"/>
	<path class="st0" d="M380.2,15.3v42.3H371l-15.6-28.9v28.9h-7.9V15.3h9.1l15.6,28.9V15.3H380.2z"/>
	<path class="st0" d="M388,57.6V49h8.2v8.6H388z"/>
</g>
</svg>