<?xml version="1.0" encoding="utf-8"?>
<!-- Generator: Adobe Illustrator 22.0.1, SVG Export Plug-In . SVG Version: 6.00 Build 0)  -->
<svg version="1.1" id="Layer_1" xmlns="http://www.w3.org/2000/svg" xmlns:xlink="http://www.w3.org/1999/xlink" x="0px" y="0px"
	 viewBox="0 0 752.4 492.2" style="enable-background:new 0 0 752.4 492.2;" xml:space="preserve">
<style type="text/css">
	.st0{fill:#F8C31D;}
	.st1{fill:#F8EA6A;}
	.st2{fill:#FFFFFF;}
	.st3{fill:#F37152;}
	.st4{fill:#3873A8;}
	.st5{fill:#1B5D8F;}
	.st6{opacity:0.63;fill:#A4AFB0;enable-background:new    ;}
	.st7{fill:#FFFFFF;stroke:#CFDCDD;stroke-width:3;stroke-miterlimit:10;}
	.st8{fill:#E8EFEF;}
	.st9{opacity:0.39;}
	.st10{fill:#F2F2F2;}
	.st11{fill:#F1EFEE;}
	.st12{fill:#F8E23D;}
	.st13{fill:#1A2144;}
	.st14{fill:#E92327;}
	.st15{fill:#F47523;}
	.st16{fill:#78B751;}
	.st17{fill:#CFDCDD;}
	.st18{opacity:0.63;fill:#FFFFFF;enable-background:new    ;}
	.st19{fill:#243349;}
</style>
<polygon class="st0" points="523.4,214 446.4,214 446.4,202.6 521,202.6 597.7,170.9 673.9,94.1 682.1,102.3 604.2,180.7 "/>
<path class="st1" d="M533.2,208.6c0,5.7-4.6,10.4-10.4,10.4c-5.7,0-10.4-4.6-10.4-10.4c0-5.7,4.6-10.4,10.4-10.4l0,0
	C528.6,198.2,533.2,202.8,533.2,208.6z"/>
<path class="st1" d="M610.4,174.9c0,5.7-4.6,10.4-10.4,10.4c-5.7,0-10.4-4.6-10.4-10.4c0-5.7,4.6-10.4,10.4-10.4
	C605.8,164.5,610.4,169.1,610.4,174.9L610.4,174.9z"/>
<circle class="st1" cx="673.7" cy="103.4" r="10.4"/>
<path class="st2" d="M551,70.1c0,32.4-26.4,58.7-58.8,58.6c-32.4,0-58.7-26.4-58.6-58.8c0-32.4,26.4-58.7,58.8-58.6
	C524.8,11.4,551,37.7,551,70.1z"/>
<path class="st3" d="M537.8,24.7c-25-25-65.6-25-90.7,0s-25,65.6,0,90.7c25,25,65.6,25,90.7,0c12-12,18.8-28.4,18.8-45.4
	S549.8,36.7,537.8,24.7z M530.1,107.8c-20.8,20.8-54.5,20.8-75.3,0s-20.8-54.5,0-75.3s54.5-20.8,75.3,0c10,10,15.6,23.5,15.6,37.7
	C545.7,84.2,540.1,97.8,530.1,107.8z"/>
<path class="st2" d="M526.3,70.1c0,18.8-15.2,34-33.9,34s-34-15.2-34-33.9c0-18.8,15.2-34,33.9-34l0,0
	C511.1,36.1,526.3,51.3,526.3,70.1L526.3,70.1z"/>
<path class="st3" d="M520.1,42.2c-15.4-15.3-40.3-15.2-55.6,0.2s-15.2,40.3,0.2,55.6c15.4,15.3,40.3,15.2,55.6-0.2
	c7.3-7.4,11.4-17.3,11.4-27.7C531.7,59.6,527.6,49.6,520.1,42.2z M512.5,90.2c-11.1,11.3-29.3,11.4-40.5,0.2s-11.4-29.3-0.2-40.5
	c11.1-11.3,29.3-11.4,40.5-0.2c5.4,5.4,8.5,12.7,8.5,20.4C520.8,77.6,517.9,84.9,512.5,90.2L512.5,90.2z"/>
<path class="st2" d="M504,70.1c0,6.5-5.3,11.7-11.7,11.7c-6.5,0-11.7-5.3-11.7-11.7c0-6.5,5.2-11.7,11.7-11.7
	C498.7,58.4,504,63.6,504,70.1L504,70.1z"/>
<path class="st3" d="M504.4,58c-3.2-3.2-7.6-5-12.2-5c-4.5,0-8.9,1.8-12.1,5s-5,7.6-5,12.1s1.8,8.9,5,12.1s7.6,5,12.1,5
	s8.9-1.8,12.1-5s5-7.6,5-12.1C509.5,65.6,507.7,61.1,504.4,58z M496.7,74.4c-2.4,2.5-6.4,2.5-8.9,0.1s-2.5-6.4-0.1-8.9
	s6.4-2.5,8.9-0.1c1.2,1.2,1.9,2.8,1.9,4.5C498.6,71.7,497.9,73.3,496.7,74.4L496.7,74.4z"/>
<rect x="449.6" y="-2.1" transform="matrix(0.64 -0.7684 0.7684 0.64 132.8694 360.7262)" class="st4" width="3.6" height="81.4"/>
<path class="st5" d="M411.8,16l7.3-4.4l17.8,14.8c-3.3,4.2-8.9,5.9-13.9,4.1l-8.5-2.9c-2.6-0.9-4.6-3.2-5.2-5.9
	C408.9,19.4,409.9,17.2,411.8,16z"/>
<path class="st4" d="M422.2,3.6l-3,8L437,26.4c3.5-4,4.2-9.7,1.6-14.4l-4.4-7.9c-1.4-2.4-3.9-4-6.8-4.1C425.1,0,423,1.4,422.2,3.6z"
	/>
<polygon class="st4" points="482.5,64.6 483.6,63.2 492.4,72.2 481.4,66.1 "/>
<rect x="459.6" y="32.2" transform="matrix(0.6392 -0.769 0.769 0.6392 130.8071 372.9348)" class="st5" width="6.5" height="29.7"/>
<circle class="st0" cx="41.6" cy="218.7" r="21.6"/>
<circle class="st1" cx="41.6" cy="218.7" r="15.6"/>
<path class="st0" d="M48.8,222.5c0.1,1.4-0.6,2.8-1.7,3.6c-1.4,1-3,1.6-4.6,1.7v2.9h-2v-2.9c-2.1,0-4.2-0.4-6.1-1.2v-3.8
	c1,0.4,2,0.8,3,1.1s2.1,0.5,3.1,0.5V220l-1-0.4c-1.5-0.5-2.9-1.3-4-2.4c-0.7-0.9-1.2-2-1.2-3.2c0-1.3,0.6-2.6,1.6-3.4
	c1.3-1,2.9-1.5,4.5-1.6v-2.2h2v2.1c2,0.1,4,0.5,5.9,1.3l-1.4,3.3c-1.5-0.6-3-1-4.6-1.1v4.2c1.4,0.5,2.7,1.1,4,1.9
	c0.7,0.5,1.3,1,1.7,1.7C48.6,220.9,48.9,221.7,48.8,222.5z M38.8,214c0,0.4,0.2,0.8,0.4,1.1c0.4,0.4,0.9,0.6,1.4,0.8v-3.3
	C39.4,212.7,38.8,213.2,38.8,214z M44.5,222.7c0-0.4-0.2-0.8-0.4-1c-0.5-0.3-0.9-0.6-1.4-0.8v3.6C43.8,224.2,44.5,223.6,44.5,222.7
	L44.5,222.7z"/>
<circle class="st0" cx="41.6" cy="312.9" r="21.6"/>
<circle class="st1" cx="41.6" cy="312.9" r="15.6"/>
<path class="st0" d="M48.8,316.7c0.1,1.4-0.6,2.8-1.7,3.6c-1.3,1-2.9,1.6-4.6,1.7v3h-2v-3c-2.1,0-4.2-0.4-6.1-1.2V317
	c1,0.4,2,0.8,3,1.1c1,0.3,2.1,0.5,3.1,0.5v-4.5l-1-0.4c-1.5-0.5-2.9-1.3-4-2.4c-0.8-0.9-1.2-2.1-1.2-3.2c0-1.3,0.6-2.6,1.6-3.4
	c1.3-1,2.9-1.6,4.5-1.6v-2.2h2v2.1c2,0.1,4,0.5,5.9,1.3l-1.4,3.3c-1.5-0.6-3-1-4.6-1.1v4.2c1.4,0.5,2.7,1.1,4,1.9
	c0.7,0.5,1.3,1,1.7,1.7C48.6,315,48.9,315.8,48.8,316.7z M38.8,308.2c0,0.4,0.2,0.8,0.4,1.1c0.4,0.4,0.9,0.6,1.4,0.8v-3.3
	C39.4,306.8,38.8,307.3,38.8,308.2L38.8,308.2z M44.5,316.9c0-0.4-0.2-0.8-0.4-1c-0.5-0.3-0.9-0.6-1.4-0.8v3.6
	C43.8,318.3,44.5,317.8,44.5,316.9L44.5,316.9z"/>
<circle class="st0" cx="41.6" cy="400.6" r="21.6"/>
<circle class="st1" cx="41.6" cy="400.6" r="15.6"/>
<path class="st0" d="M48.8,404.4c0.1,1.4-0.6,2.8-1.7,3.6c-1.4,1-3,1.6-4.6,1.7v3h-2v-2.9c-2.1,0-4.2-0.4-6.1-1.2v-3.8
	c1,0.4,2,0.8,3,1.1c1,0.3,2.1,0.5,3.1,0.5v-4.5l-1-0.4c-1.5-0.5-2.9-1.3-4-2.4c-0.8-0.9-1.2-2.1-1.2-3.2c0-1.3,0.6-2.6,1.6-3.4
	c1.3-1,2.9-1.5,4.5-1.6v-2.2h2v2.1c2,0.1,4,0.5,5.9,1.3l-1.4,3.3c-1.5-0.6-3-1-4.6-1.1v4.2c1.4,0.5,2.7,1.1,4,1.9
	c0.7,0.5,1.3,1,1.7,1.7C48.6,402.8,48.9,403.6,48.8,404.4z M38.8,395.9c0,0.4,0.2,0.8,0.5,1.1c0.4,0.4,0.9,0.6,1.4,0.8v-3.3
	C39.4,394.6,38.8,395.1,38.8,395.9L38.8,395.9z M44.5,404.6c0-0.4-0.2-0.8-0.4-1c-0.5-0.3-0.9-0.6-1.4-0.8v3.6
	C43.8,406.1,44.5,405.5,44.5,404.6L44.5,404.6z"/>
<circle class="st0" cx="448.8" cy="109.9" r="21.6"/>
<circle class="st1" cx="448.8" cy="109.9" r="15.6"/>
<path class="st0" d="M445.1,117.1c-1.4,0.1-2.8-0.6-3.6-1.7c-1-1.4-1.6-3-1.7-4.6h-3v-2h2.9c0-2.1,0.4-4.2,1.2-6.1h3.8
	c-0.4,1-0.8,2-1.1,3c-0.3,1-0.5,2-0.5,3.1h4.5l0.4-1c0.5-1.5,1.3-2.9,2.4-4c0.9-0.8,2.1-1.2,3.2-1.2c1.3,0,2.6,0.6,3.4,1.6
	c1,1.3,1.6,2.9,1.6,4.5h2.2v2h-2.1c-0.1,2-0.5,4-1.3,5.9l-3.3-1.4c0.6-1.5,1-3,1.2-4.6H451c-0.5,1.4-1.1,2.7-1.9,4
	c-0.5,0.7-1.1,1.3-1.7,1.7C446.7,116.9,445.9,117.2,445.1,117.1z M453.5,107.1c-0.4,0-0.8,0.2-1.1,0.4c-0.4,0.4-0.6,0.9-0.8,1.4h3.3
	C454.9,107.7,454.4,107.1,453.5,107.1z M444.8,112.8c0.4,0,0.8-0.2,1-0.5c0.3-0.5,0.6-0.9,0.8-1.4H443
	C443.4,112.1,443.9,112.8,444.8,112.8z"/>
<circle class="st0" cx="354.7" cy="109.9" r="21.6"/>
<circle class="st1" cx="354.7" cy="109.9" r="15.6"/>
<path class="st0" d="M350.9,117.1c-1.4,0.1-2.8-0.6-3.6-1.7c-1-1.4-1.6-3-1.7-4.6h-3v-2h2.9c0-2.1,0.4-4.2,1.2-6.1h3.8
	c-0.4,1-0.8,2-1.1,3c-0.3,1-0.5,2-0.5,3.1h4.5l0.4-1c0.5-1.5,1.3-2.9,2.4-4c0.9-0.8,2.1-1.2,3.2-1.2c1.3,0,2.6,0.6,3.4,1.6
	c1,1.3,1.5,2.9,1.6,4.5h2.2v2h-2.1c-0.1,2-0.5,4-1.3,5.9l-3.3-1.4c0.6-1.5,1-3,1.1-4.6h-4.2c-0.5,1.4-1.1,2.7-1.9,4
	c-0.5,0.7-1.1,1.3-1.7,1.7C352.5,116.9,351.7,117.2,350.9,117.1z M359.4,107.1c-0.4,0-0.8,0.2-1.1,0.4c-0.4,0.4-0.6,0.9-0.8,1.4h3.3
	C360.8,107.7,360.2,107.1,359.4,107.1z M350.7,112.8c0.4,0,0.8-0.2,1-0.5c0.3-0.5,0.6-0.9,0.8-1.4H349
	C349.2,112.1,349.8,112.8,350.7,112.8L350.7,112.8z"/>
<circle class="st0" cx="266.9" cy="109.9" r="21.6"/>
<circle class="st1" cx="266.9" cy="109.9" r="15.6"/>
<path class="st0" d="M263.2,117.1c-1.4,0.1-2.8-0.6-3.6-1.7c-1-1.4-1.6-3-1.7-4.6h-3v-2h2.9c0-2.1,0.4-4.2,1.2-6.1h3.8
	c-0.4,1-0.8,2-1.1,3c-0.3,1-0.5,2-0.5,3.1h4.5l0.4-1c0.5-1.5,1.3-2.9,2.4-4c0.9-0.8,2.1-1.2,3.2-1.2c1.3,0,2.6,0.6,3.4,1.6
	c1,1.3,1.6,2.9,1.6,4.5h2.2v2h-2.1c-0.1,2-0.5,4-1.3,5.9l-3.3-1.4c0.6-1.5,1-3,1.1-4.6h-4.2c-0.5,1.4-1.1,2.7-1.9,4
	c-0.5,0.7-1.1,1.3-1.7,1.7C264.8,116.9,264,117.2,263.2,117.1z M271.6,107.1c-0.4,0-0.8,0.2-1.1,0.4c-0.4,0.4-0.6,0.9-0.8,1.4h3.3
	C273,107.7,272.5,107.1,271.6,107.1z M262.9,112.8c0.4,0,0.8-0.2,1-0.5c0.3-0.5,0.6-0.9,0.8-1.4h-3.5
	C261.5,112.1,262,112.8,262.9,112.8L262.9,112.8z"/>
<path class="st6" d="M550.9,492.2H108.1c-8.6,0-15.6-6.9-15.7-15.6v-0.1v-4.7h473.9v4.7c0.2,8.4-6.4,15.4-14.8,15.7
	C551.3,492.2,551.1,492.2,550.9,492.2z"/>
<path class="st7" d="M524.5,455.1h-390V217.7c0-9.5,7.7-17.2,17.2-17.2h355.4c9.5,0,17.1,7.7,17.2,17.2V455h0.2V455.1z"/>
<rect x="152.2" y="231.7" class="st8" width="354.6" height="207"/>
<g class="st9">
	<polygon class="st10" points="282.7,200.6 167.9,452.6 231.4,452.6 346.2,200.6 	"/>
	<polygon class="st10" points="366.1,200.6 251.3,452.6 280.7,452.6 395.5,200.6 	"/>
</g>
<rect x="174.4" y="265.6" class="st11" width="195.5" height="41.6"/>
<rect x="174.4" y="260.3" class="st12" width="195.5" height="41.6"/>
<rect x="174.9" y="325.6" class="st11" width="195.5" height="41.6"/>
<rect x="174.9" y="320.6" class="st2" width="195.5" height="41.6"/>
<rect x="175.4" y="385.8" class="st11" width="195.5" height="41.6"/>
<rect x="175.4" y="380.9" class="st2" width="195.5" height="41.6"/>
<path class="st13" d="M336.7,213.8c0,4-3.2,7.2-7.2,7.2s-7.2-3.2-7.2-7.2s3.2-7.2,7.2-7.2l0,0C333.5,206.5,336.7,209.8,336.7,213.8z
	"/>
<path class="st14" d="M180.8,244.6c0,3-2.5,5.5-5.5,5.5s-5.5-2.5-5.5-5.5s2.5-5.5,5.5-5.5l0,0c2.9-0.1,5.3,2.1,5.5,4.9
	C180.9,244.3,180.9,244.5,180.8,244.6z"/>
<path class="st15" d="M201.5,244.6c0,3-2.5,5.5-5.5,5.5s-5.5-2.5-5.5-5.5s2.5-5.5,5.5-5.5l0,0c2.9-0.1,5.3,2.1,5.5,4.9
	C201.5,244.3,201.5,244.5,201.5,244.6z"/>
<path class="st16" d="M222.4,244.6c0,3-2.5,5.5-5.5,5.5s-5.5-2.5-5.5-5.5s2.5-5.5,5.5-5.5c2.9-0.1,5.3,2.1,5.5,4.9
	C222.4,244.3,222.4,244.5,222.4,244.6z"/>
<path class="st17" d="M553.2,483H105.9c-7.4,0-13.4-5.9-13.4-13.3v-0.1v-16.5h473.9v16.4c0.3,7.2-5.3,13.2-12.5,13.5
	C553.6,483,553.4,483,553.2,483z"/>
<rect x="92.4" y="453.1" class="st18" width="473.9" height="9"/>
<path class="st19" d="M87.1,133.2c-0.6-2.4-4.5-3.4-5.8-0.5c-3.3,7.4-7.4,7.7-10.7,6.8c-1.3-0.3-6.2-2.7-7.1-4.1
	c-2.6-3.7-7.9,0.6-4,4.5c-3.4,2.8-6.9,0.3-7,0.2c-3.3-2.4-6.9,2.5-3.6,4.9c4.9,3.6,11.4,2.8,15.6-1.5c6.9,3.8,14.5,3.3,19.7-3.8
	c0.2,0,0.4,0,0.6-0.1c4.8-0.9,13.7-2.1,17.9,0.8c3.3,2.3,6.8-2.7,3.5-5C101.2,132.1,93.4,132.2,87.1,133.2z"/>
<path class="st19" d="M124,134.7c-0.7,3.5-5.2,3.7-8,3.5c-4-0.4-4.6,5.7-0.6,6.1c5.9,0.6,12.1-1.1,14.2-7.1c0.2-0.6,0.4-1.2,0.4-1.8
	C130.5,131.2,124.4,130.6,124,134.7z"/>
<path class="st19" d="M146.3,113.5c-1-3.3-2.9-6.2-5.5-8.6c0-3-1.3-5.8-3.5-7.7c0.3-1.6,0.4-3.2,0.4-4.8c-0.3-5.7-4.1-9.8-8.7-11.7
	c-1.1-7.1-5.6-10.3-10.2-11.4c-2.4-0.5-4.8-0.7-7.2-0.4c-4.4-6.5-14.5-9.1-19.8-6.4C87,58.8,79.7,58.6,73,61.1
	c-10-3.1-19.3-1.3-25.2,2.1c-8.4-2.1-16.3,0.2-21.1,7.5c-0.4,0.7-0.8,1.3-1.2,2c-3.6,0.8-6.8,2.8-9.1,5.7
	C3.3,81.8,0.7,91.3,4.1,101.3c-4.4,4.2-4.6,12.9-3.5,18.1c2.5,11.8,11.7,18.1,22.9,19c0.8,0.1,1.6,0.1,2.1,0.1
	c0.4,1.1,0.9,2.2,1.6,3.2l0,0c2,3.2,4.8,5.8,8,7.6c3,7.4,18.3,16.3,35.4,5.1c7.7,1.6,15.7,0.8,23-2.2c0.3-0.1,0.6-0.3,0.8-0.5
	c5.6,2.5,12.3,3.4,17.6,0.9c11.7,12.6,31.5-5.3,31.6-17.1C147.3,129.1,148.6,120.7,146.3,113.5z M137.4,134.9
	c1.2,12-17.3,19.4-22.3,12c-2.8-4.2-11.3,5.4-23.3-3.7c-3.1-2.4-6.7,2.1-4,4.6c-6.2,1.9-12.8,1.8-19-0.2c-0.6-0.2-1.2-0.4-1.8-0.7
	c-3.1-1.5-5.5,2.4-3.8,4.6c-13.4,6.3-22.3-2.7-22.6-4.7c-0.4-0.8-0.9-1.6-1.6-2.2c-2.1-1.1-3.9-2.6-5.4-4.5l0,0
	c-9.3-12.1,2.7-34.4,24-28.2c2.4,0.7,7.1,4.3,9.2,1.4c8.3-11.7,24.9-8,35.4-1.7c3.5,2.1,6.6-3.1,3.1-5.2c-2.6-1.6-5.3-2.9-8.2-4.1
	c1.8-1.9,6.3-6.2,6.6-6.5c2.9-2.8-1.3-7.2-4.2-4.4c-2.6,2.4-5.2,4.9-7.5,7.6c-0.4,0.4-0.7,0.9-0.9,1.4c-8.1-1.9-16.3-1.2-23.3,3.6
	c-0.2-0.3-0.4-0.6-0.6-0.8c-1.3-1.3-2.2-3-2.5-4.8c-0.8-4-6.8-2.7-5.9,1.3c0.5,2.8,1.8,5.4,3.8,7.5c-3.8-1.7-7.9-2.6-12.1-2.5
	c0.1-0.4,0-0.9-0.1-1.3c-0.7-2.8-1.5-5.7-2.3-8.5c-2.8-8.7-8.5-2.2-6.1,0.8c0.3,0.3,2.4,8.5,2.5,9.1c0.1,0.2,0.1,0.4,0.2,0.6
	c-3.1,0.8-6.1,2.2-8.7,4.1c-1.3-1.9-2.6-3.8-4-5.7c-5.5-7.4-8.7,0.7-5.5,2.7c0.3,0.2,3.6,5.1,4.9,7.1c-2.1,2.3-3.8,4.9-5,7.8
	c-2.9-0.3-9-1.7-9.3-4.6c-0.4-4-6.5-3.4-6,0.7c0.7,6.4,7.9,8.9,13.3,9.7l0.3,0.1c-0.3,1.7-0.4,3.4-0.3,5.1
	C16,132.1,8.5,127,6.6,118.2c-0.7-3.2-0.9-7.2,0.5-10.3c0.5,0.8,0.8,1.3,0.8,1.3c2.3,3.4,7.3,0,5-3.4C8.4,99,6.3,90.3,13.7,86
	c-0.2,3.5,0.6,6.9,2.3,10c0.3,0.5,0.5,0.9,0.7,1.2c-2,4.8-1.8,10.7,1,14.2c10.6,13.1-3.4-24.2,13.9-14.4c7.9,4.5,2.1-21.1,19.4-7.6
	c2.7,2.1,5.4,0.5,4.9-2.9c-1.3-8,1.1-10,7-11.1c4-0.8,2.8-6.8-1.2-6c-7,1.4-11.5,4.7-12.2,11.8c-9.5-4.7-16,0.3-18.7,8.8
	c-4.2-1.3-7.7-0.5-10.3,1.6c-3.2-7.5,1.8-14.1,11.2-13.1c0.5,0.1,1.1,0.1,1.6,0.2c3.9,0.9,5.4-5,1.4-5.9c-0.7-0.2-1.3-0.3-2-0.4
	c2.3-2.7,5.7-3.9,9.3-3.9c-0.2,0.4-0.4,0.8-0.5,1.3c-1.1,3.9,4.7,5.6,5.8,1.7c0.5-0.8,1.2-1.5,2-2c0.5-0.2,0.9-0.4,1.2-0.8
	c4-2.4,11.7-4.8,21.5-1.5c2.7,0.9,12-4.3,16.4,0.4c0.1,0.7,0.6,1.4,1.2,1.8c0.3,0.7,0.6,1.4,0.7,2.2c-0.7,4.5,7.2,5.2,5.9-1.3
	c-0.2-0.8-0.4-1.5-0.7-2.3c5.2-0.8,12.1,1.5,11.9,8c-0.1,4.1,6,4.2,6.1,0.1c0-0.4,0-0.9,0-1.3c4.2-0.1,7.4,1.1,8.7,4.8
	c-3.6,0.1-6.9,1.6-9.4,4.2c-5.5-5.6-14.7-7.5-20.5,2.7c-2,3.5,3.3,6.6,5.3,3c6-10.4,15.6,1.7,13.2,5.8c-2,3.5,3.2,6.6,5.2,3.1
	c1.6-2.8,1.6-6.1,0.4-9.1c2-4.3,7.1-4,11.1-2.4c3.5,1.4,4.2,4.5,3.9,7.6c-1.1-0.2-2.3-0.4-3.5-0.5c-4.1-0.2-4.4,5.8-0.3,6.1
	c5.8,0.3,7.2,2.8,7,5.3c0,0.3-0.1,0.7-0.1,1l-0.1,0.5c-2.9,10.2-14,3.4-12,10.4c0.2,0.5,0.3,1.1,0.4,1.6c1.6,8.3-6,9.9-8.2,9.4
	c-4-0.8-5.2,5.1-1.2,5.9c3,0.6,15.5-1,15.8-12.2c2.2,0.9,2.9,3.1,3,5.5c0.3,4,6.3,3.6,6.1-0.4c-0.3-3.8-1.7-7.4-4.7-9.6
	c0.8-0.5,1.5-1,2.2-1.7l0,0c1.2-1.1,2.2-2.4,3-3.8c0.5,0.9,1,1.8,1.4,2.7l0,0C144.4,124.8,137.2,132.4,137.4,134.9z"/>
<path class="st19" d="M116.8,114.1c4-1.4,6.6-6.6,7.2-10.4c0.6-4-5.4-5-6-1c-0.4,2.3-1.3,4.5-3.4,5.7
	C110.8,109.9,113,115.6,116.8,114.1z"/>
<path class="st19" d="M78.6,75c4-0.4,3.4-6.5-0.6-6c-0.8,0.1-1.6,0.3-2.4,0.5c-8.2,2.6-11.4,10-10.3,18.5c0.5,4,6.6,3.3,6-0.7
	c-0.7-5.5,0.7-10.3,6.1-12C77.8,75.1,78.2,75,78.6,75z"/>
<path class="st19" d="M59.8,130.2l0.3-0.2c5.6,2.6,12.6-0.1,18.5-4.1c1.4,0.7,2.8,1.1,4.4,1.2c4.2,0.2,7.3-0.2,9.7-1.2
	c0.1,0.1,0.2,0.2,0.4,0.3l0,0c6.6,4.2,15.3,3.5,20.2-3.6c0.3-0.4,0.4-0.8,0.5-1.3l0,0c0.5-2.9-3.6-5.1-5.6-2.1
	c-3.6,5.3-9.1,3.3-11.2,2.2c0.6-1.1,1-2.2,1.4-3.4c1.3-3.8-4.5-5.7-5.8-1.9c-1.2,3.6-2,5.4-9.3,5c-4.2-0.2-3.4-5.2-2.9-6.9
	c1.1-3.9-4.7-5.6-5.8-1.7c-0.9,2.9-0.8,5.9,0.1,8.7c-4.8,3.3-11.5,6.5-14.9,0.1c-0.3-0.5-0.5-1-0.7-1.6c-1-3.9-6.9-2.4-5.9,1.6
	c0.3,1,0.7,2,1.2,2.9c0.3,0.5,0.5,1,0.8,1.4c-4.1,1.5-8.7,0.9-12.2-1.7c-0.3-0.2-0.7-0.5-1-0.8c-2.9-2.9-7.2,1.5-4.3,4.3
	c1,1,2.1,1.9,3.4,2.6c-2.1,2.3-3.3,5.2-3.5,8.2c0,0.3,0,0.6,0.1,1l0,0c0.8,3.1,5.9,2.9,6-0.8c0-0.2,0-0.4,0.1-0.6l0,0
	c0.4-2.9,3.4-5.1,4-5.6C51.9,132.7,56.1,132,59.8,130.2z"/>
<path class="st19" d="M81.1,78.2c-0.6-0.3-1.2-0.5-1.8-0.6c-4-0.8-5.2,5.1-1.3,5.9c3.9,1,5.5,5.2,5.3,9c-0.2,4,5.9,4.3,6.1,0.2
	C89.7,86.4,87,80.7,81.1,78.2z"/>
<path class="st19" d="M751.1,140.5c1.5-1.3,1.7-3.5,0.5-5.1c-0.3-0.4-0.7-0.7-1.2-0.9l-81-38.5l0,0l22.6,87c0.5,1.9,2.4,3.1,4.4,2.6
	c0.5-0.1,1-0.4,1.5-0.8L712,173c1.5-1.3,3.7-1.1,5,0.4l0.1,0.1l14.6,17.6c1.2,1.6,3.4,1.8,5,0.6l0.1-0.1l13.7-11.3
	c1.5-1.2,1.8-3.4,0.6-5l-0.1-0.1l-14.6-17.6c-1.3-1.5-1.1-3.7,0.4-5l0.1-0.1L751.1,140.5z"/>
<rect x="667.6" y="63.6" transform="matrix(0.9921 -0.1255 0.1255 0.9921 -3.9543 84.8262)" class="st19" width="7.3" height="20.4"/>
<rect x="648.8" y="72.6" transform="matrix(0.7407 -0.6718 0.6718 0.7407 113.5678 459.7823)" class="st19" width="7.3" height="20.4"/>
<rect x="638.6" y="90.3" transform="matrix(0.2214 -0.9752 0.9752 0.2214 402.0338 704.5747)" class="st19" width="7.3" height="20.4"/>
<rect x="634.1" y="117.4" transform="matrix(0.9257 -0.3782 0.3782 0.9257 2.0909 252.6662)" class="st19" width="20.4" height="7.3"/>
<rect x="686.6" y="76.8" transform="matrix(0.6128 -0.7903 0.7903 0.6128 206.229 581.8394)" class="st19" width="20.4" height="7.3"/>
</svg>
