<?xml version="1.0" encoding="utf-8"?>
<!-- Generator: Adobe Illustrator 22.0.1, SVG Export Plug-In . SVG Version: 6.00 Build 0)  -->
<svg version="1.1" id="Layer_1" xmlns="http://www.w3.org/2000/svg" xmlns:xlink="http://www.w3.org/1999/xlink" x="0px" y="0px"
	 viewBox="0 0 250 544" style="enable-background:new 0 0 250 544;" xml:space="preserve">
<style type="text/css">
	.st0{fill:#A72D34;}
	.st1{fill:#CA3C44;}
	.st2{fill:#FAEBEC;}
	.st3{opacity:0.33;fill:#CA3C44;}
	.st4{opacity:0.33;fill:#A72D34;}
</style>
<title>Asset 1</title>
<g id="Layer_2_1_">
	<g id="Layer_1-2">
		<path class="st0" d="M72.3,434.6c0.6-22.8,19.6-40.8,42.4-40.3c10.7,0.3,20.8,4.7,28.3,12.3l0.1,0.1l9.3-9.3l-0.1-0.1
			c-21.2-21.4-55.7-21.6-77.1-0.4c-10.1,10-15.9,23.5-16.1,37.6L72.3,434.6z"/>
		<path class="st1" d="M71,109.2c0.6,22.8,19.5,40.8,42.3,40.3c10.7-0.3,20.8-4.7,28.4-12.3l0.1-0.1l9.3,9.3l-0.1,0.1
			c-21.2,21.4-55.7,21.6-77.1,0.4c-10.1-10-15.9-23.5-16.2-37.7H71z"/>
		<rect x="59.1" y="434.6" class="st0" width="13.2" height="109.5"/>
		<rect x="57.8" class="st1" width="13.2" height="109.5"/>
		<path class="st1" d="M227.7,191.4c9.7,0,17.6-7.9,17.6-17.6s-7.9-17.6-17.6-17.6c-9.7,0-17.6,7.9-17.6,17.6c0,0,0,0,0,0
			C210.1,183.5,218,191.4,227.7,191.4z M227.7,188.2c-7.9,0-14.4-6.4-14.4-14.4c0-7.9,6.4-14.4,14.4-14.4c7.9,0,14.4,6.4,14.4,14.4
			C242.1,181.8,235.7,188.2,227.7,188.2L227.7,188.2z"/>
		<path class="st2" d="M66.3,290c9.7,0,17.6-7.9,17.6-17.6s-7.9-17.6-17.6-17.6c-9.7,0-17.6,7.9-17.6,17.6
			C48.7,282.1,56.6,290,66.3,290C66.3,290,66.3,290,66.3,290z M66.3,286.8c-7.9,0-14.4-6.5-14.4-14.4c0-7.9,6.5-14.4,14.4-14.4
			c7.9,0,14.4,6.4,14.4,14.4C80.7,280.3,74.3,286.8,66.3,286.8L66.3,286.8z"/>
		<path class="st0" d="M227.3,387.8c9.7,0,17.6-7.8,17.7-17.5c0-9.7-7.8-17.6-17.5-17.7s-17.6,7.8-17.7,17.5c0,0,0,0,0,0.1
			C209.7,379.9,217.6,387.8,227.3,387.8z M227.3,384.6c-7.9,0-14.4-6.4-14.4-14.4c0-7.9,6.4-14.4,14.4-14.4
			c7.9,0,14.4,6.4,14.4,14.4C241.6,378.1,235.2,384.6,227.3,384.6z"/>
		<path class="st0" d="M143,406.7l9.2-9.3c16.3,16,42.5,15.8,58.5-0.5c3.2-3.3,5.9-7.1,7.9-11.3c4.1,2.3,9.1,2.9,13.6,1.5
			c-10.6,28.2-42.1,42.4-70.3,31.7C154.9,416.1,148.4,412,143,406.7z"/>
		<path class="st0" d="M227.3,352.6c-2.4,0-4.8,0.5-7,1.5c-7.6-21.5-31.2-32.8-52.7-25.3c-5.9,2.1-11.2,5.5-15.6,9.9l-0.1,0.1
			l-9.3-9.2l0.1-0.1c21.2-21.4,55.7-21.6,77.1-0.4c6.9,6.8,11.9,15.4,14.4,24.8C231.8,353.1,229.6,352.6,227.3,352.6z"/>
		<path class="st2" d="M75.3,228.2c-4-2.4-8.8-3.1-13.3-1.9c9.7-28.5,40.7-43.7,69.2-34c7.8,2.6,14.8,7,20.7,12.8l-9.3,9.3
			c-16.3-16-42.5-15.8-58.5,0.5C80.3,218.7,77.3,223.3,75.3,228.2L75.3,228.2z"/>
		<path class="st2" d="M75.2,338.6c-6.3-6.2-11-13.9-13.6-22.3c4.5,1.3,9.3,0.7,13.4-1.6c8.2,21.3,32.1,32,53.4,23.8
			c5.5-2.1,10.5-5.4,14.6-9.6c0,0,0.1-0.1,0.1-0.1l9.3,9.3l-0.1,0.1C131.1,359.6,96.6,359.8,75.2,338.6
			C75.2,338.6,75.2,338.6,75.2,338.6z"/>
		<path class="st1" d="M227.7,156.2c-3.2,0-6.4,0.9-9.2,2.6c-9.2-20.9-33.5-30.5-54.5-21.3c-4.8,2.1-9.1,5.1-12.8,8.8l-0.1,0.1
			l-9.3-9.3l0.1-0.1c21.2-21.4,55.7-21.5,77.1-0.4c5.7,5.7,10.1,12.5,12.8,20C230.5,156.4,229.1,156.2,227.7,156.2z"/>
		<path class="st1" d="M142.4,214.3l9.2-9.3c16.3,16,42.5,15.8,58.5-0.5c4.2-4.3,7.4-9.4,9.4-15c2.5,1.3,5.3,2,8.1,2
			c1.8,0,3.6-0.3,5.3-0.8c-8.4,28.9-38.7,45.5-67.6,37.1C156.7,225.2,148.8,220.6,142.4,214.3L142.4,214.3z"/>
		<path class="st1" d="M132.3,191.4c-3.4-1-5.5,1.1-4.6,4.5l1,4l3.2,12.5l1,4c0.9,3.4,3.7,4.2,6.2,1.8l2.9-2.9l9.2-9l2.9-2.9
			c2.5-2.5,1.8-5.3-1.6-6.2l-3.9-1.1l-12.4-3.5L132.3,191.4z"/>
		<path class="st2" d="M141.3,321c-3.4,0.9-4.2,3.7-1.7,6.2l2.9,2.9l9.1,9.1l2.9,2.9c2.5,2.5,5.3,1.8,6.2-1.7l1-4
			c0.9-3.4,2.4-9,3.3-12.4l1.1-4c0.9-3.4-1.1-5.5-4.6-4.5l-4,1.1c-3.4,0.9-9,2.4-12.4,3.4L141.3,321z"/>
		<path class="st2" d="M61.9,226.3c0,0-4.7,10.8-4.1,34.4l8.5-6l4.6,0.4c0,0,0.5-17.5,4.4-27C79,219,61.9,226.3,61.9,226.3z"/>
		<path class="st2" d="M62.3,318.5c0,0-5-10.2-4.3-33.9l8.3,4.9l4.6-0.5c0,0,0.5,17,4.5,26.5C79.1,324.9,62.3,318.5,62.3,318.5z"/>
		<path class="st3" d="M12.8,253.8l2-3.6c1.7-3.1,4.6-3.2,6.4-0.1l2.1,3.5l0.7,1.1V0H10.8v257.4L12.8,253.8z"/>
		<path class="st4" d="M32.1,268.1l-2.1-3.5l-6.7-11l-2.1-3.5c-1.8-3.1-4.7-3-6.4,0.1l-2,3.6l-6.2,11.3l-2,3.6
			c-1.7,3.1-0.2,5.6,3.3,5.5l3.9-0.1v271H25V273.8l4-0.1C32.6,273.7,34,271.1,32.1,268.1z"/>
	</g>
</g>
</svg>
