<?xml version="1.0" encoding="utf-8"?>
<!-- Generator: Adobe Illustrator 22.0.1, SVG Export Plug-In . SVG Version: 6.00 Build 0)  -->
<svg version="1.1" id="Layer_1" xmlns="http://www.w3.org/2000/svg" xmlns:xlink="http://www.w3.org/1999/xlink" x="0px" y="0px"
	 viewBox="0 0 807.2 1100.1" style="enable-background:new 0 0 807.2 1100.1;" xml:space="preserve">
<style type="text/css">
	.st0{fill:#A82E35;}
	.st1{fill:#CA3E45;}
	.st2{fill:#FAEBEC;}
	.st3{opacity:0.33;fill:#CA3C44;enable-background:new    ;}
	.st4{opacity:0.33;fill:#A82E35;enable-background:new    ;}
	.st5{fill:#082E41;}
	.st6{font-family:'IndustryInc-Base';}
	.st7{font-size:35.7184px;}
	.st8{font-size:68.8273px;}
	.st9{font-size:35.5608px;}
</style>
<title>process-2_1</title>
<g id="Layer_2_1_">
	<g id="Layer_1-2">
		<g id="Layer_1-2-2">
			<path class="st0" d="M206,895.5c1-39.9,34.2-71.3,74-70.3c18.6,0.5,36.4,8.2,49.5,21.4l0.2,0.2l16.3-16.2l-0.2-0.2
				c-37-37.4-97.3-37.7-134.6-0.7c-17.6,17.4-27.7,41-28.2,65.7L206,895.5z"/>
			<path class="st1" d="M203.9,327.2c1,39.9,34.1,71.3,74,70.3c18.7-0.5,36.4-8.1,49.5-21.4l0.2-0.2l16.3,16.2l-0.2,0.2
				c-37,37.4-97.2,37.7-134.6,0.7c-17.6-17.4-27.7-41-28.2-65.8H203.9z"/>
			<rect x="183.1" y="895.5" class="st0" width="23" height="191.2"/>
			<rect x="180.8" y="-2.7" class="st1" width="23" height="330.2"/>
			<path class="st1" d="M477.6,470.7c17,0,30.8-13.7,30.8-30.7c0-17-13.7-30.8-30.7-30.8c-17,0-30.8,13.7-30.8,30.7l0,0l0,0
				C446.9,457,460.6,470.7,477.6,470.7z M477.6,465.1c-13.9,0-25.1-11.2-25.1-25.1s11.2-25.1,25.1-25.1c13.9,0,25.1,11.2,25.1,25.1
				C502.7,453.9,491.5,465.1,477.6,465.1L477.6,465.1z"/>
			<path class="st2" d="M195.6,642.9c17,0,30.8-13.7,30.8-30.7c0-17-13.7-30.8-30.7-30.8c-17,0-30.8,13.7-30.8,30.7c0,0,0,0,0,0
				C164.9,629.1,178.7,642.9,195.6,642.9C195.7,642.9,195.7,642.9,195.6,642.9L195.6,642.9z M195.6,637.3c-13.9,0-25.1-11.3-25-25.2
				c0-13.9,11.3-25.1,25.2-25c13.8,0,25,11.3,25,25.1c0,13.9-11.2,25.1-25.1,25.1C195.7,637.3,195.7,637.3,195.6,637.3L195.6,637.3z
				"/>
			<path class="st0" d="M476.8,813.8c17,0.1,30.8-13.6,30.9-30.6c0.1-17-13.6-30.8-30.6-30.9c-17-0.1-30.8,13.6-30.9,30.6
				c0,0,0,0,0,0.1v0.1C446.2,799.9,459.8,813.7,476.8,813.8z M476.8,808.1c-13.9,0-25.1-11.2-25.1-25.1s11.2-25.1,25.1-25.1
				c13.9,0,25.1,11.2,25.1,25.1C501.9,796.9,490.6,808.1,476.8,808.1L476.8,808.1z"/>
			<path class="st0" d="M329.6,846.7l16.2-16.3c28.5,28,74.2,27.5,102.2-0.9c5.6-5.7,10.3-12.4,13.7-19.7c7.2,4.1,15.8,5.1,23.8,2.7
				c-18.6,49.2-73.6,74-122.8,55.4C350.3,863.2,339,856,329.6,846.7z"/>
			<path class="st0" d="M476.8,752.3c-4.2,0-8.4,0.9-12.2,2.5c-13.2-37.6-54.5-57.4-92.1-44.1c-10.3,3.6-19.7,9.6-27.4,17.3
				l-0.2,0.2l-16.3-16.2l0.2-0.2c37-37.4,97.3-37.7,134.6-0.7c12.1,12,20.7,26.9,25.1,43.4C484.8,753.1,480.8,752.3,476.8,752.3z"/>
			<path class="st2" d="M211.3,535c-7-4.2-15.4-5.3-23.3-3.3c16.9-49.8,71-76.4,120.8-59.4c13.5,4.6,25.9,12.2,36.1,22.3l-16.2,16.3
				c-28.4-28-74.1-27.6-102.1,0.8C220,518.4,214.8,526.3,211.3,535L211.3,535z"/>
			<path class="st2" d="M211.1,727.8c-11-10.8-19.2-24.2-23.8-38.9c7.9,2.2,16.2,1.2,23.4-2.8c14.2,37.2,56,55.9,93.2,41.6
				c9.6-3.7,18.3-9.4,25.6-16.7l0.2-0.2L346,727l-0.2,0.2C308.8,764.6,248.5,764.9,211.1,727.8C211.2,727.9,211.2,727.9,211.1,727.8
				L211.1,727.8z"/>
			<path class="st1" d="M477.6,409.3c-5.7,0-11.2,1.5-16,4.5c-16-36.5-58.6-53.2-95.1-37.2c-8.4,3.7-16,8.9-22.5,15.4l-0.2,0.2
				L327.5,376l0.2-0.2c37-37.4,97.3-37.6,134.7-0.6c10,9.9,17.6,21.8,22.4,35C482.5,409.6,480,409.3,477.6,409.3z"/>
			<path class="st1" d="M328.5,510.6l16.2-16.3c28.5,28,74.2,27.6,102.1-0.9c7.3-7.4,12.9-16.4,16.4-26.2c4.4,2.3,9.3,3.5,14.2,3.5
				c3.1,0,6.3-0.5,9.3-1.4c-14.7,50.5-67.6,79.5-118.1,64.8C353.5,529.7,339.8,521.6,328.5,510.6L328.5,510.6z"/>
			<path class="st1" d="M310.9,470.6c-6-1.7-9.6,1.7-8.1,7.8l1.7,7l5.5,21.9l1.7,7c1.5,6,6.4,7.4,10.8,3.1l5.1-5l16.1-15.7l5.1-5
				c4.4-4.3,3.2-9.2-2.8-10.9l-6.9-2l-21.6-6.1L310.9,470.6z"/>
			<path class="st2" d="M326.5,697.1c-6,1.6-7.3,6.5-2.9,10.9l5.1,5l15.9,15.9l5,5c4.4,4.4,9.3,3.1,10.9-2.9l1.7-7
				c1.6-6,4.2-15.7,5.8-21.7l1.8-7c1.6-6-2-9.6-7.9-7.9l-7,1.9c-6,1.6-15.7,4.2-21.7,5.9L326.5,697.1z"/>
			<path class="st2" d="M188,531.7c0,0-8.2,18.8-7.1,60.1l14.8-10.5l8,0.8c0,0,0.8-30.5,7.6-47.2C217.9,518.9,188,531.7,188,531.7z"
				/>
			<path class="st2" d="M188.7,692.8c0,0-8.7-17.9-7.6-59.2l14.6,8.6l8-0.8c0,0,1,29.7,7.8,46.4C218,703.9,188.7,692.8,188.7,692.8z
				"/>
			<path class="st3" d="M102.2,579.7l3.5-6.3c3-5.4,8.1-5.6,11.2-0.2l3.7,6.1l1.2,1.9V-2.7h-23V586L102.2,579.7z"/>
			<path class="st4" d="M135.9,604.6l-3.7-6.1l-11.7-19.2l-3.7-6.1c-3.2-5.3-8.3-5.2-11.2,0.2l-3.5,6.3l-10.8,19.7l-3.5,6.3
				c-3,5.4-0.3,9.7,5.8,9.6l6.8-0.2v473.4h23V614.6l7-0.1C136.7,614.4,139.1,609.9,135.9,604.6z"/>
		</g>
		<rect x="4.6" y="1086.7" class="st0" width="310.1" height="11.2"/>
	</g>
</g>
<g>
	<path class="st5" d="M266,199.5c6.9,0,11.6,4.7,11.6,11.6v36.2c0,6.9-4.7,11.6-11.6,11.6h-19.7c-6.9,0-11.6-4.7-11.6-11.6v-36.2
		c0-6.9,4.7-11.6,11.6-11.6H266z M265.8,213.4c0-1.8-1-2.8-2.8-2.8h-13.8c-1.8,0-2.8,1-2.8,2.8V245c0,1.8,1,2.8,2.8,2.8H263
		c1.8,0,2.8-1,2.8-2.8V213.4z"/>
	<path class="st5" d="M330.1,247.3c0,6.9-4.7,11.6-11.6,11.6h-18.8c-6.9,0-11.6-4.7-11.6-11.6v-47.5h11.7V245c0,1.8,1,2.8,2.8,2.8
		h12.9c1.8,0,2.8-1,2.8-2.8v-45.2h11.8V247.3z"/>
	<path class="st5" d="M372.8,258.6l-9.5-21.8h-9.5v21.8h-11.7v-58.7H372c6.9,0,11.6,4.7,11.6,11.6v13.8c0,5.5-3.1,9.7-8,11.1
		l9.8,22.3H372.8z M371.9,213.7c0-1.8-1-2.8-2.8-2.8h-15.3v14.9h15.3c1.8,0,2.8-1,2.8-2.8V213.7z"/>
	<path class="st5" d="M446.7,199.8c6.9,0,11.6,4.7,11.6,11.6v14.9c0,6.9-4.7,11.6-11.6,11.6h-18.3v20.7h-11.7v-58.7H446.7z
		 M443.8,226.8c1.8,0,2.8-1,2.8-2.8v-10.3c0-1.8-1-2.8-2.8-2.8h-15.3v15.8H443.8z"/>
	<path class="st5" d="M498.4,258.6l-9.5-21.8h-9.5v21.8h-11.7v-58.7h29.9c6.9,0,11.6,4.7,11.6,11.6v13.8c0,5.5-3.1,9.7-8,11.1
		l9.8,22.3H498.4z M497.5,213.7c0-1.8-1-2.8-2.8-2.8h-15.3v14.9h15.3c1.8,0,2.8-1,2.8-2.8V213.7z"/>
	<path class="st5" d="M550.7,199.5c6.9,0,11.6,4.7,11.6,11.6v36.2c0,6.9-4.7,11.6-11.6,11.6H531c-6.9,0-11.6-4.7-11.6-11.6v-36.2
		c0-6.9,4.7-11.6,11.6-11.6H550.7z M550.5,213.4c0-1.8-1-2.8-2.8-2.8h-13.8c-1.8,0-2.8,1-2.8,2.8V245c0,1.8,1,2.8,2.8,2.8h13.8
		c1.8,0,2.8-1,2.8-2.8V213.4z"/>
	<path class="st5" d="M602.4,213.4c0-1.8-1-2.8-2.8-2.8h-12.7c-1.8,0-2.8,1-2.8,2.8V245c0,1.8,1,2.8,2.8,2.8h12.7
		c1.8,0,2.8-1,2.8-2.8v-7.2h11.7v9.5c0,6.9-4.7,11.6-11.6,11.6H584c-6.9,0-11.6-4.7-11.6-11.6v-36.2c0-6.9,4.7-11.6,11.6-11.6h18.6
		c6.9,0,11.6,4.7,11.6,11.6v9.5h-11.7V213.4z"/>
	<path class="st5" d="M663,199.8v11.1h-26.7V223H658v11.1h-21.6v13.4H663v11.1h-38.4v-58.7H663z"/>
	<path class="st5" d="M700.2,213.4c0-1.8-1-2.8-2.8-2.8h-11.7c-1.8,0-2.8,1-2.8,2.8v5.5c0,1.8,1,2.4,2.8,2.8l15.2,3.3
		c6.4,1.4,11.7,5.2,11.7,11.7v10.6c0,6.9-4.7,11.6-11.6,11.6h-18.3c-6.9,0-11.6-4.7-11.6-11.6v-7.5h11.4v5.2c0,1.8,1,2.8,2.8,2.8
		H698c1.8,0,2.8-1,2.8-2.8v-6.2c0-1.8-1-2.4-2.8-2.8l-15.2-3.3c-6.4-1.4-11.7-5.2-11.7-11.7v-10c0-6.9,4.7-11.6,11.6-11.6H700
		c6.9,0,11.6,4.7,11.6,11.6v6.9h-11.4V213.4z"/>
	<path class="st5" d="M751.2,213.4c0-1.8-1-2.8-2.8-2.8h-11.7c-1.8,0-2.8,1-2.8,2.8v5.5c0,1.8,1,2.4,2.8,2.8l15.2,3.3
		c6.4,1.4,11.7,5.2,11.7,11.7v10.6c0,6.9-4.7,11.6-11.6,11.6h-18.3c-6.9,0-11.6-4.7-11.6-11.6v-7.5h11.4v5.2c0,1.8,1,2.8,2.8,2.8
		H749c1.8,0,2.8-1,2.8-2.8v-6.2c0-1.8-1-2.4-2.8-2.8l-15.2-3.3c-6.4-1.4-11.7-5.2-11.7-11.7v-10c0-6.9,4.7-11.6,11.6-11.6H751
		c6.9,0,11.6,4.7,11.6,11.6v6.9h-11.4V213.4z"/>
</g>
<text transform="matrix(1 0 0 1 531.0906 432.392)"><tspan x="0" y="0" class="st1 st6 st7">Plan the </tspan><tspan x="0" y="42.9" class="st1 st6 st7">approach</tspan></text>
<text transform="matrix(1 0 0 1 253.1277 630.7992)" class="st1 st6 st8">Build It</text>
<text transform="matrix(1 0 0 1 518.1844 777.9799)"><tspan x="0" y="0" class="st1 st6 st9">Optimize &amp; </tspan><tspan x="0" y="42.7" class="st1 st6 st9">repeat.</tspan></text>
<rect x="729.2" y="436.6" class="st1" width="73.4" height="4.9"/>
<rect x="729.2" y="787.5" class="st1" width="73.4" height="4.9"/>
<rect x="541.5" y="609.7" class="st1" width="261.1" height="4.9"/>
</svg>
