<svg width="759" height="1101" viewBox="0 0 759 1101" fill="none" xmlns="http://www.w3.org/2000/svg">
<rect width="759" height="1100.6" fill="black" fill-opacity="0"/>
<rect width="503.8" height="1100.6" fill="black" fill-opacity="0"/>
<rect width="503.8" height="1100.6" fill="black" fill-opacity="0"/>
<rect width="421.83" height="1091.2" fill="black" fill-opacity="0" transform="translate(81.9702)"/>
<path d="M201.4 898.2C202.4 858.3 235.6 826.9 275.4 827.9C294 828.4 311.8 836.1 324.9 849.3L325.1 849.5L341.4 833.3L341.2 833.1C304.2 795.7 243.9 795.4 206.6 832.4C189 849.8 178.9 873.4 178.4 898.1L201.4 898.2Z" fill="#A82E35"/>
<path d="M199.3 329.9C200.3 369.8 233.4 401.2 273.3 400.2C292 399.7 309.7 392.1 322.8 378.8L323 378.6L339.3 394.8L339.1 395C302.1 432.4 241.9 432.7 204.5 395.7C186.9 378.3 176.8 354.7 176.3 329.9H199.3Z" fill="#CA3E45"/>
<path d="M201.5 898.2H178.5V1089.4H201.5V898.2Z" fill="#A82E35"/>
<path d="M199.2 0H176.2V330.2H199.2V0Z" fill="#CA3E45"/>
<path d="M473 473.4C490 473.4 503.8 459.7 503.8 442.7C503.8 425.7 490.1 411.9 473.1 411.9C456.1 411.9 442.3 425.6 442.3 442.6C442.3 459.7 456 473.4 473 473.4ZM473 467.8C459.1 467.8 447.9 456.6 447.9 442.7C447.9 428.8 459.1 417.6 473 417.6C486.9 417.6 498.1 428.8 498.1 442.7C498.1 456.6 486.9 467.8 473 467.8Z" fill="#CA3E45"/>
<path d="M191 645.6C208 645.6 221.8 631.9 221.8 614.9C221.8 597.9 208.1 584.1 191.1 584.1C174.1 584.1 160.3 597.8 160.3 614.8C160.3 631.8 174.1 645.6 191 645.6C191.1 645.6 191.1 645.6 191 645.6ZM191 640C177.1 640 165.9 628.7 166 614.8C166 600.9 177.3 589.7 191.2 589.8C205 589.8 216.2 601.1 216.2 614.9C216.2 628.8 205 640 191.1 640C191.1 640 191.1 640 191 640Z" fill="#FAEBEC"/>
<path d="M472.2 816.5C489.2 816.6 503 802.9 503.1 785.9C503.2 768.9 489.5 755.1 472.5 755C455.5 754.9 441.7 768.6 441.6 785.6C441.6 785.6 441.6 785.6 441.6 785.7V785.8C441.6 802.6 455.2 816.4 472.2 816.5ZM472.2 810.8C458.3 810.8 447.1 799.6 447.1 785.7C447.1 771.8 458.3 760.6 472.2 760.6C486.1 760.6 497.3 771.8 497.3 785.7C497.3 799.6 486 810.8 472.2 810.8Z" fill="#A82E35"/>
<path d="M325 849.4L341.2 833.1C369.7 861.1 415.4 860.6 443.4 832.2C449 826.5 453.7 819.8 457.1 812.5C464.3 816.6 472.9 817.6 480.9 815.2C462.3 864.4 407.3 889.2 358.1 870.6C345.7 865.9 334.4 858.7 325 849.4Z" fill="#A82E35"/>
<path d="M472.2 755C468 755 463.8 755.9 460 757.5C446.8 719.9 405.5 700.1 367.9 713.4C357.6 717 348.2 723 340.5 730.7L340.3 730.9L324 714.7L324.2 714.5C361.2 677.1 421.5 676.8 458.8 713.8C470.9 725.8 479.5 740.7 483.9 757.2C480.2 755.8 476.2 755 472.2 755Z" fill="#A82E35"/>
<path d="M206.7 537.7C199.7 533.5 191.3 532.4 183.4 534.4C200.3 484.6 254.4 458 304.2 475C317.7 479.6 330.1 487.2 340.3 497.3L324.1 513.6C295.7 485.6 250 486 222 514.4C215.4 521.1 210.2 529 206.7 537.7Z" fill="#FAEBEC"/>
<path d="M206.5 730.5C195.5 719.7 187.3 706.3 182.7 691.6C190.6 693.8 198.9 692.8 206.1 688.8C220.3 726 262.1 744.7 299.3 730.4C308.9 726.7 317.6 721 324.9 713.7L325.1 713.5L341.4 729.7L341.2 729.9C304.2 767.3 243.9 767.6 206.5 730.5C206.6 730.6 206.6 730.6 206.5 730.5Z" fill="#FAEBEC"/>
<path d="M473 412C467.3 412 461.8 413.5 457 416.5C441 380 398.4 363.3 361.9 379.3C353.5 383 345.9 388.2 339.4 394.7L339.2 394.9L322.9 378.7L323.1 378.5C360.1 341.1 420.4 340.9 457.8 377.9C467.8 387.8 475.4 399.7 480.2 412.9C477.9 412.3 475.4 412 473 412Z" fill="#CA3E45"/>
<path d="M323.9 513.3L340.1 497C368.6 525 414.3 524.6 442.2 496.1C449.5 488.7 455.1 479.7 458.6 469.9C463 472.2 467.9 473.4 472.8 473.4C475.9 473.4 479.1 472.9 482.1 472C467.4 522.5 414.5 551.5 364 536.8C348.9 532.4 335.2 524.3 323.9 513.3Z" fill="#CA3E45"/>
<path d="M306.3 473.3C300.3 471.6 296.7 475 298.2 481.1L299.9 488.1L305.4 510L307.1 517C308.6 523 313.5 524.4 317.9 520.1L323 515.1L339.1 499.4L344.2 494.4C348.6 490.1 347.4 485.2 341.4 483.5L334.5 481.5L312.9 475.4L306.3 473.3Z" fill="#CA3E45"/>
<path d="M321.9 699.8C315.9 701.4 314.6 706.3 319 710.7L324.1 715.7L340 731.6L345 736.6C349.4 741 354.3 739.7 355.9 733.7L357.6 726.7C359.2 720.7 361.8 711 363.4 705L365.2 698C366.8 692 363.2 688.4 357.3 690.1L350.3 692C344.3 693.6 334.6 696.2 328.6 697.9L321.9 699.8Z" fill="#FAEBEC"/>
<path d="M183.4 534.4C183.4 534.4 175.2 553.2 176.3 594.5L191.1 584L199.1 584.8C199.1 584.8 199.9 554.3 206.7 537.6C213.3 521.6 183.4 534.4 183.4 534.4Z" fill="#FAEBEC"/>
<path d="M184.1 695.5C184.1 695.5 175.4 677.6 176.5 636.3L191.1 644.9L199.1 644.1C199.1 644.1 200.1 673.8 206.9 690.5C213.4 706.6 184.1 695.5 184.1 695.5Z" fill="#FAEBEC"/>
<path opacity="0.33" d="M97.6 582.4L101.1 576.1C104.1 570.7 109.2 570.5 112.3 575.9L116 582L117.2 583.9V0H94.2V588.7L97.6 582.4Z" fill="#CA3C44"/>
<path opacity="0.33" d="M131.3 607.3L127.6 601.2L115.9 582L112.2 575.9C109 570.6 103.9 570.7 101 576.1L97.5 582.4L86.7 602.1L83.2 608.4C80.2 613.8 82.9 618.1 89 618L95.8 617.8V1091.2H118.8V617.3L125.8 617.2C132.1 617.1 134.5 612.6 131.3 607.3Z" fill="#A82E35"/>
<path d="M310.1 1089.4H0V1100.6H310.1V1089.4Z" fill="#A82E35"/>
<rect width="528.9" height="59.5" fill="black" fill-opacity="0" transform="translate(230.1 202.1)"/>
<path d="M261.4 202.2C268.3 202.2 273 206.9 273 213.8V250C273 256.9 268.3 261.6 261.4 261.6H241.7C234.8 261.6 230.1 256.9 230.1 250V213.8C230.1 206.9 234.8 202.2 241.7 202.2H261.4V202.2ZM261.2 216.1C261.2 214.3 260.2 213.3 258.4 213.3H244.6C242.8 213.3 241.8 214.3 241.8 216.1V247.7C241.8 249.5 242.8 250.5 244.6 250.5H258.4C260.2 250.5 261.2 249.5 261.2 247.7V216.1Z" fill="#082E41"/>
<path d="M325.5 250C325.5 256.9 320.8 261.6 313.9 261.6H295.1C288.2 261.6 283.5 256.9 283.5 250V202.5H295.2V247.7C295.2 249.5 296.2 250.5 298 250.5H310.9C312.7 250.5 313.7 249.5 313.7 247.7V202.5H325.5V250V250Z" fill="#082E41"/>
<path d="M368.2 261.3L358.7 239.5H349.2V261.3H337.5V202.6H367.4C374.3 202.6 379 207.3 379 214.2V228C379 233.5 375.9 237.7 371 239.1L380.8 261.4H368.2V261.3ZM367.3 216.4C367.3 214.6 366.3 213.6 364.5 213.6H349.2V228.5H364.5C366.3 228.5 367.3 227.5 367.3 225.7V216.4Z" fill="#082E41"/>
<path d="M442.1 202.5C449 202.5 453.7 207.2 453.7 214.1V229C453.7 235.9 449 240.6 442.1 240.6H423.8V261.3H412.1V202.6H442.1V202.5ZM439.2 229.5C441 229.5 442 228.5 442 226.7V216.4C442 214.6 441 213.6 439.2 213.6H423.9V229.4H439.2V229.5Z" fill="#082E41"/>
<path d="M493.8 261.3L484.3 239.5H474.8V261.3H463.1V202.6H493C499.9 202.6 504.6 207.3 504.6 214.2V228C504.6 233.5 501.5 237.7 496.6 239.1L506.4 261.4H493.8V261.3ZM492.9 216.4C492.9 214.6 491.9 213.6 490.1 213.6H474.8V228.5H490.1C491.9 228.5 492.9 227.5 492.9 225.7V216.4Z" fill="#082E41"/>
<path d="M546.1 202.2C553 202.2 557.7 206.9 557.7 213.8V250C557.7 256.9 553 261.6 546.1 261.6H526.4C519.5 261.6 514.8 256.9 514.8 250V213.8C514.8 206.9 519.5 202.2 526.4 202.2H546.1V202.2ZM545.9 216.1C545.9 214.3 544.9 213.3 543.1 213.3H529.3C527.5 213.3 526.5 214.3 526.5 216.1V247.7C526.5 249.5 527.5 250.5 529.3 250.5H543.1C544.9 250.5 545.9 249.5 545.9 247.7V216.1Z" fill="#082E41"/>
<path d="M597.8 216.1C597.8 214.3 596.8 213.3 595 213.3H582.3C580.5 213.3 579.5 214.3 579.5 216.1V247.7C579.5 249.5 580.5 250.5 582.3 250.5H595C596.8 250.5 597.8 249.5 597.8 247.7V240.5H609.5V250C609.5 256.9 604.8 261.6 597.9 261.6H579.4C572.5 261.6 567.8 256.9 567.8 250V213.8C567.8 206.9 572.5 202.2 579.4 202.2H598C604.9 202.2 609.6 206.9 609.6 213.8V223.3H597.9V216.1H597.8Z" fill="#082E41"/>
<path d="M658.4 202.5V213.6H631.7V225.7H653.4V236.8H631.8V250.2H658.4V261.3H620V202.6H658.4V202.5Z" fill="#082E41"/>
<path d="M695.6 216.1C695.6 214.3 694.6 213.3 692.8 213.3H681.1C679.3 213.3 678.3 214.3 678.3 216.1V221.6C678.3 223.4 679.3 224 681.1 224.4L696.3 227.7C702.7 229.1 708 232.9 708 239.4V250C708 256.9 703.3 261.6 696.4 261.6H678.1C671.2 261.6 666.5 256.9 666.5 250V242.5H677.9V247.7C677.9 249.5 678.9 250.5 680.7 250.5H693.4C695.2 250.5 696.2 249.5 696.2 247.7V241.5C696.2 239.7 695.2 239.1 693.4 238.7L678.2 235.4C671.8 234 666.5 230.2 666.5 223.7V213.7C666.5 206.8 671.2 202.1 678.1 202.1H695.4C702.3 202.1 707 206.8 707 213.7V220.6H695.6V216.1Z" fill="#082E41"/>
<path d="M746.6 216.1C746.6 214.3 745.6 213.3 743.8 213.3H732.1C730.3 213.3 729.3 214.3 729.3 216.1V221.6C729.3 223.4 730.3 224 732.1 224.4L747.3 227.7C753.7 229.1 759 232.9 759 239.4V250C759 256.9 754.3 261.6 747.4 261.6H729.1C722.2 261.6 717.5 256.9 717.5 250V242.5H728.9V247.7C728.9 249.5 729.9 250.5 731.7 250.5H744.4C746.2 250.5 747.2 249.5 747.2 247.7V241.5C747.2 239.7 746.2 239.1 744.4 238.7L729.2 235.4C722.8 234 717.5 230.2 717.5 223.7V213.7C717.5 206.8 722.2 202.1 729.1 202.1H746.4C753.3 202.1 758 206.8 758 213.7V220.6H746.6V216.1Z" fill="#082E41"/>
<path d="M526.429 444.681C523.558 443.856 521.465 442.844 520.151 441.646C518.849 440.437 518.198 438.949 518.198 437.182C518.198 435.182 518.994 433.531 520.587 432.228C522.191 430.915 524.273 430.258 526.831 430.258C528.575 430.258 530.127 430.595 531.487 431.269C532.859 431.944 533.917 432.874 534.661 434.06C535.417 435.246 535.795 436.542 535.795 437.949H532.429C532.429 436.414 531.941 435.211 530.964 434.339C529.987 433.455 528.61 433.013 526.831 433.013C525.18 433.013 523.889 433.38 522.959 434.112C522.04 434.833 521.581 435.839 521.581 437.129C521.581 438.164 522.017 439.042 522.889 439.763C523.773 440.472 525.267 441.123 527.371 441.716C529.487 442.309 531.138 442.966 532.324 443.687C533.522 444.396 534.406 445.228 534.975 446.181C535.557 447.134 535.847 448.256 535.847 449.547C535.847 451.605 535.045 453.256 533.441 454.5C531.836 455.733 529.691 456.349 527.005 456.349C525.261 456.349 523.633 456.017 522.122 455.355C520.61 454.68 519.442 453.762 518.616 452.599C517.802 451.436 517.395 450.117 517.395 448.64H520.761C520.761 450.175 521.325 451.39 522.453 452.285C523.592 453.169 525.11 453.611 527.005 453.611C528.772 453.611 530.127 453.25 531.069 452.529C532.01 451.808 532.481 450.826 532.481 449.582C532.481 448.338 532.045 447.379 531.173 446.704C530.301 446.018 528.72 445.344 526.429 444.681ZM544.027 432.56V437.129H547.55V439.623H544.027V451.326C544.027 452.082 544.184 452.651 544.498 453.035C544.812 453.407 545.347 453.593 546.103 453.593C546.475 453.593 546.986 453.523 547.637 453.384V456C546.789 456.233 545.963 456.349 545.161 456.349C543.719 456.349 542.632 455.913 541.899 455.041C541.167 454.169 540.801 452.93 540.801 451.326V439.623H537.365V437.129H540.801V432.56H544.027ZM560.456 440.024C559.968 439.943 559.439 439.902 558.869 439.902C556.753 439.902 555.317 440.803 554.561 442.606V456H551.335V437.129H554.474L554.526 439.309C555.584 437.623 557.084 436.78 559.026 436.78C559.654 436.78 560.131 436.862 560.456 437.025V440.024ZM574.391 456C574.205 455.628 574.054 454.965 573.938 454.012C572.438 455.57 570.647 456.349 568.566 456.349C566.706 456.349 565.177 455.826 563.979 454.779C562.793 453.721 562.2 452.384 562.2 450.768C562.2 448.803 562.944 447.28 564.433 446.198C565.933 445.105 568.037 444.559 570.746 444.559H573.885V443.076C573.885 441.949 573.548 441.053 572.874 440.391C572.2 439.716 571.205 439.379 569.892 439.379C568.74 439.379 567.775 439.67 566.996 440.251C566.217 440.832 565.828 441.536 565.828 442.361H562.584C562.584 441.42 562.915 440.513 563.578 439.641C564.252 438.757 565.159 438.059 566.299 437.548C567.45 437.036 568.711 436.78 570.083 436.78C572.258 436.78 573.961 437.327 575.193 438.42C576.426 439.501 577.065 440.995 577.112 442.902V451.588C577.112 453.32 577.333 454.698 577.775 455.721V456H574.391ZM569.037 453.541C570.048 453.541 571.008 453.279 571.915 452.756C572.822 452.233 573.478 451.553 573.885 450.715V446.844H571.357C567.403 446.844 565.427 448.001 565.427 450.314C565.427 451.326 565.764 452.117 566.438 452.686C567.113 453.256 567.979 453.541 569.037 453.541ZM586.547 432.56V437.129H590.07V439.623H586.547V451.326C586.547 452.082 586.704 452.651 587.018 453.035C587.332 453.407 587.867 453.593 588.623 453.593C588.995 453.593 589.506 453.523 590.158 453.384V456C589.309 456.233 588.483 456.349 587.681 456.349C586.239 456.349 585.152 455.913 584.42 455.041C583.687 454.169 583.321 452.93 583.321 451.326V439.623H579.885V437.129H583.321V432.56H586.547ZM601.686 456.349C599.128 456.349 597.047 455.512 595.442 453.837C593.838 452.151 593.035 449.902 593.035 447.088V446.495C593.035 444.623 593.39 442.954 594.099 441.489C594.82 440.013 595.82 438.862 597.099 438.036C598.39 437.199 599.785 436.78 601.285 436.78C603.738 436.78 605.645 437.589 607.005 439.205C608.366 440.821 609.046 443.135 609.046 446.146V447.489H596.262C596.308 449.349 596.849 450.855 597.884 452.006C598.93 453.146 600.256 453.715 601.86 453.715C603 453.715 603.965 453.483 604.755 453.018C605.546 452.553 606.238 451.936 606.831 451.169L608.802 452.704C607.22 455.134 604.848 456.349 601.686 456.349ZM601.285 439.431C599.982 439.431 598.889 439.908 598.006 440.862C597.122 441.803 596.576 443.129 596.366 444.838H605.819V444.594C605.726 442.954 605.284 441.687 604.494 440.792C603.703 439.885 602.633 439.431 601.285 439.431ZM612.028 446.408C612.028 443.466 612.708 441.129 614.069 439.397C615.429 437.652 617.231 436.78 619.475 436.78C621.777 436.78 623.574 437.594 624.864 439.222L625.021 437.129H627.969V455.547C627.969 457.988 627.242 459.913 625.789 461.319C624.347 462.726 622.405 463.43 619.964 463.43C618.603 463.43 617.272 463.139 615.97 462.558C614.667 461.976 613.673 461.18 612.987 460.168L614.662 458.232C616.045 459.942 617.737 460.796 619.737 460.796C621.306 460.796 622.527 460.354 623.399 459.471C624.283 458.587 624.725 457.343 624.725 455.738V454.116C623.434 455.605 621.673 456.349 619.44 456.349C617.231 456.349 615.441 455.459 614.069 453.68C612.708 451.901 612.028 449.477 612.028 446.408ZM615.272 446.774C615.272 448.902 615.708 450.576 616.58 451.797C617.452 453.006 618.673 453.611 620.243 453.611C622.277 453.611 623.771 452.686 624.725 450.838V442.222C623.737 440.42 622.254 439.519 620.277 439.519C618.708 439.519 617.481 440.129 616.598 441.35C615.714 442.571 615.272 444.379 615.272 446.774ZM636.358 456H633.131V437.129H636.358V456ZM632.87 432.124C632.87 431.601 633.027 431.159 633.341 430.798C633.666 430.438 634.143 430.258 634.771 430.258C635.399 430.258 635.875 430.438 636.201 430.798C636.526 431.159 636.689 431.601 636.689 432.124C636.689 432.647 636.526 433.083 636.201 433.432C635.875 433.781 635.399 433.955 634.771 433.955C634.143 433.955 633.666 433.781 633.341 433.432C633.027 433.083 632.87 432.647 632.87 432.124ZM644.572 453.366H655.612V456H640.631V453.628L651.043 439.798H640.788V437.129H655.089V439.414L644.572 453.366ZM666.809 456.349C664.251 456.349 662.17 455.512 660.565 453.837C658.961 452.151 658.159 449.902 658.159 447.088V446.495C658.159 444.623 658.513 442.954 659.222 441.489C659.943 440.013 660.943 438.862 662.222 438.036C663.513 437.199 664.908 436.78 666.408 436.78C668.861 436.78 670.768 437.589 672.128 439.205C673.489 440.821 674.169 443.135 674.169 446.146V447.489H661.385C661.432 449.349 661.972 450.855 663.007 452.006C664.053 453.146 665.379 453.715 666.983 453.715C668.123 453.715 669.088 453.483 669.879 453.018C670.669 452.553 671.361 451.936 671.954 451.169L673.925 452.704C672.344 455.134 669.972 456.349 666.809 456.349ZM666.408 439.431C665.106 439.431 664.013 439.908 663.129 440.862C662.245 441.803 661.699 443.129 661.49 444.838H670.943V444.594C670.849 442.954 670.408 441.687 669.617 440.792C668.826 439.885 667.757 439.431 666.408 439.431ZM677.989 454.308C677.989 453.75 678.151 453.285 678.477 452.913C678.814 452.541 679.314 452.355 679.977 452.355C680.639 452.355 681.139 452.541 681.477 452.913C681.825 453.285 682 453.75 682 454.308C682 454.843 681.825 455.291 681.477 455.651C681.139 456.012 680.639 456.192 679.977 456.192C679.314 456.192 678.814 456.012 678.477 455.651C678.151 455.291 677.989 454.843 677.989 454.308Z" fill="#CA3E45"/>
<path d="M247.68 639V590.068H261.492C265.749 590.068 269.513 591.009 272.784 592.891C276.055 594.773 278.576 597.45 280.346 600.923C282.138 604.396 283.045 608.384 283.068 612.887V616.013C283.068 620.628 282.172 624.672 280.379 628.145C278.609 631.618 276.066 634.284 272.75 636.143C269.457 638.003 265.615 638.955 261.223 639H247.68ZM254.132 595.378V633.724H260.921C265.895 633.724 269.759 632.178 272.515 629.086C275.293 625.994 276.683 621.592 276.683 615.878V613.022C276.683 607.465 275.372 603.152 272.75 600.083C270.152 596.991 266.455 595.423 261.66 595.378H254.132ZM306.962 639.672C302.033 639.672 298.023 638.059 294.931 634.833C291.839 631.584 290.293 627.249 290.293 621.827V620.684C290.293 617.077 290.977 613.862 292.343 611.039C293.732 608.194 295.659 605.975 298.124 604.385C300.611 602.772 303.299 601.965 306.19 601.965C310.917 601.965 314.591 603.522 317.213 606.636C319.834 609.751 321.145 614.209 321.145 620.012V622.6H296.511C296.6 626.184 297.642 629.086 299.636 631.304C301.653 633.5 304.207 634.597 307.299 634.597C309.494 634.597 311.354 634.149 312.877 633.253C314.401 632.357 315.734 631.17 316.877 629.691L320.674 632.648C317.627 637.331 313.057 639.672 306.962 639.672ZM306.19 607.073C303.68 607.073 301.574 607.992 299.871 609.829C298.169 611.644 297.116 614.198 296.712 617.491H314.927V617.021C314.748 613.862 313.897 611.42 312.373 609.695C310.85 607.947 308.788 607.073 306.19 607.073ZM339.897 630.565L348.904 602.637H355.256L342.216 639H337.478L324.304 602.637H330.655L339.897 630.565ZM375.857 639.672C370.928 639.672 366.918 638.059 363.826 634.833C360.734 631.584 359.188 627.249 359.188 621.827V620.684C359.188 617.077 359.871 613.862 361.238 611.039C362.627 608.194 364.554 605.975 367.018 604.385C369.505 602.772 372.194 601.965 375.084 601.965C379.811 601.965 383.486 603.522 386.107 606.636C388.729 609.751 390.039 614.209 390.039 620.012V622.6H365.405C365.495 626.184 366.537 629.086 368.531 631.304C370.547 633.5 373.101 634.597 376.193 634.597C378.389 634.597 380.248 634.149 381.772 633.253C383.295 632.357 384.628 631.17 385.771 629.691L389.569 632.648C386.522 637.331 381.951 639.672 375.857 639.672ZM375.084 607.073C372.575 607.073 370.469 607.992 368.766 609.829C367.063 611.644 366.01 614.198 365.607 617.491H383.822V617.021C383.643 613.862 382.791 611.42 381.268 609.695C379.744 607.947 377.683 607.073 375.084 607.073ZM404.02 639H397.802V587.38H404.02V639ZM412.354 620.482C412.354 616.92 413.049 613.716 414.438 610.871C415.849 608.025 417.799 605.83 420.286 604.284C422.795 602.738 425.651 601.965 428.855 601.965C433.807 601.965 437.806 603.679 440.853 607.107C443.923 610.535 445.457 615.094 445.457 620.785V621.222C445.457 624.762 444.774 627.943 443.407 630.766C442.063 633.567 440.125 635.751 437.593 637.32C435.084 638.888 432.194 639.672 428.923 639.672C423.994 639.672 419.994 637.958 416.925 634.53C413.878 631.102 412.354 626.565 412.354 620.919V620.482ZM418.605 621.222C418.605 625.255 419.535 628.492 421.395 630.934C423.277 633.376 425.786 634.597 428.923 634.597C432.082 634.597 434.591 633.365 436.451 630.901C438.31 628.414 439.24 624.941 439.24 620.482C439.24 616.494 438.288 613.268 436.383 610.804C434.501 608.317 431.992 607.073 428.855 607.073C425.786 607.073 423.31 608.294 421.428 610.736C419.546 613.179 418.605 616.674 418.605 621.222ZM483.971 621.222C483.971 626.756 482.705 631.214 480.173 634.597C477.642 637.981 474.214 639.672 469.89 639.672C465.476 639.672 462.003 638.272 459.471 635.471V652.981H453.254V602.637H458.934L459.236 606.67C461.768 603.533 465.285 601.965 469.789 601.965C474.158 601.965 477.608 603.612 480.14 606.905C482.694 610.199 483.971 614.78 483.971 620.651V621.222ZM477.754 620.516C477.754 616.416 476.88 613.179 475.132 610.804C473.385 608.429 470.987 607.241 467.94 607.241C464.176 607.241 461.353 608.91 459.471 612.249V629.624C461.331 632.94 464.176 634.597 468.008 634.597C470.987 634.597 473.351 633.421 475.099 631.069C476.869 628.694 477.754 625.176 477.754 620.516ZM492.037 635.74C492.037 634.665 492.35 633.768 492.978 633.052C493.627 632.335 494.591 631.976 495.868 631.976C497.145 631.976 498.108 632.335 498.758 633.052C499.43 633.768 499.766 634.665 499.766 635.74C499.766 636.771 499.43 637.633 498.758 638.328C498.108 639.022 497.145 639.37 495.868 639.37C494.591 639.37 493.627 639.022 492.978 638.328C492.35 637.633 492.037 636.771 492.037 635.74Z" fill="#CA3E45"/>
<path d="M535.382 792.175C535.382 794.653 534.965 796.817 534.132 798.669C533.298 800.51 532.117 801.916 530.589 802.889C529.061 803.861 527.279 804.347 525.241 804.347C523.25 804.347 521.485 803.861 519.945 802.889C518.406 801.905 517.208 800.51 516.351 798.704C515.506 796.887 515.072 794.786 515.049 792.401V790.578C515.049 788.147 515.471 786 516.316 784.136C517.161 782.272 518.354 780.848 519.893 779.864C521.445 778.869 523.216 778.371 525.207 778.371C527.232 778.371 529.015 778.863 530.555 779.847C532.106 780.819 533.298 782.238 534.132 784.101C534.965 785.953 535.382 788.112 535.382 790.578V792.175ZM532.065 790.543C532.065 787.545 531.463 785.247 530.259 783.65C529.056 782.041 527.371 781.236 525.207 781.236C523.1 781.236 521.439 782.041 520.223 783.65C519.019 785.247 518.4 787.47 518.365 790.317V792.175C518.365 795.081 518.973 797.367 520.189 799.034C521.416 800.689 523.1 801.517 525.241 801.517C527.394 801.517 529.061 800.736 530.242 799.173C531.423 797.599 532.031 795.347 532.065 792.418V790.543ZM555.749 794.815C555.749 797.674 555.095 799.977 553.787 801.725C552.479 803.473 550.708 804.347 548.474 804.347C546.194 804.347 544.399 803.624 543.091 802.177V811.223H539.879V785.213H542.813L542.97 787.296C544.278 785.676 546.095 784.865 548.422 784.865C550.679 784.865 552.462 785.716 553.77 787.418C555.09 789.119 555.749 791.487 555.749 794.519V794.815ZM552.537 794.45C552.537 792.332 552.086 790.659 551.183 789.432C550.28 788.205 549.041 787.591 547.467 787.591C545.522 787.591 544.064 788.454 543.091 790.179V799.156C544.052 800.869 545.522 801.725 547.502 801.725C549.041 801.725 550.262 801.118 551.165 799.902C552.08 798.675 552.537 796.858 552.537 794.45ZM564.205 780.663V785.213H567.713V787.696H564.205V799.347C564.205 800.099 564.362 800.666 564.674 801.048C564.987 801.419 565.519 801.604 566.272 801.604C566.642 801.604 567.152 801.534 567.8 801.395V804C566.955 804.232 566.133 804.347 565.334 804.347C563.899 804.347 562.816 803.913 562.087 803.045C561.358 802.177 560.993 800.944 560.993 799.347V787.696H557.573V785.213H560.993V780.663H564.205ZM574.971 804H571.759V785.213H574.971V804ZM571.498 780.229C571.498 779.708 571.654 779.268 571.967 778.909C572.291 778.551 572.766 778.371 573.391 778.371C574.016 778.371 574.491 778.551 574.815 778.909C575.139 779.268 575.301 779.708 575.301 780.229C575.301 780.75 575.139 781.184 574.815 781.531C574.491 781.879 574.016 782.052 573.391 782.052C572.766 782.052 572.291 781.879 571.967 781.531C571.654 781.184 571.498 780.75 571.498 780.229ZM583.149 785.213L583.236 787.296C584.614 785.676 586.471 784.865 588.81 784.865C591.437 784.865 593.226 785.872 594.175 787.887C594.8 786.984 595.611 786.254 596.606 785.699C597.613 785.143 598.8 784.865 600.166 784.865C604.287 784.865 606.382 787.047 606.451 791.411V804H603.239V791.602C603.239 790.26 602.932 789.258 602.319 788.598C601.705 787.927 600.675 787.591 599.228 787.591C598.036 787.591 597.046 787.95 596.259 788.668C595.472 789.374 595.014 790.329 594.887 791.533V804H591.657V791.689C591.657 788.957 590.32 787.591 587.646 787.591C585.54 787.591 584.098 788.488 583.323 790.283V804H580.111V785.213H583.149ZM614.803 804H611.591V785.213H614.803V804ZM611.33 780.229C611.33 779.708 611.487 779.268 611.799 778.909C612.123 778.551 612.598 778.371 613.223 778.371C613.848 778.371 614.323 778.551 614.647 778.909C614.971 779.268 615.133 779.708 615.133 780.229C615.133 780.75 614.971 781.184 614.647 781.531C614.323 781.879 613.848 782.052 613.223 782.052C612.598 782.052 612.123 781.879 611.799 781.531C611.487 781.184 611.33 780.75 611.33 780.229ZM622.981 801.378H633.973V804H619.057V801.639L629.423 787.869H619.214V785.213H633.452V787.487L622.981 801.378ZM645.12 804.347C642.574 804.347 640.501 803.514 638.904 801.847C637.307 800.168 636.508 797.929 636.508 795.127V794.537C636.508 792.673 636.861 791.012 637.567 789.553C638.285 788.083 639.28 786.937 640.554 786.115C641.838 785.282 643.228 784.865 644.721 784.865C647.163 784.865 649.062 785.67 650.416 787.279C651.77 788.888 652.448 791.191 652.448 794.19V795.527H639.72C639.766 797.379 640.305 798.878 641.335 800.024C642.377 801.158 643.696 801.725 645.294 801.725C646.428 801.725 647.389 801.494 648.176 801.031C648.963 800.568 649.652 799.954 650.242 799.19L652.205 800.718C650.63 803.138 648.269 804.347 645.12 804.347ZM644.721 787.505C643.424 787.505 642.336 787.979 641.456 788.928C640.577 789.866 640.033 791.186 639.824 792.887H649.235V792.644C649.143 791.012 648.703 789.75 647.916 788.859C647.129 787.956 646.064 787.505 644.721 787.505ZM656.25 802.316C656.25 801.76 656.412 801.297 656.736 800.927C657.072 800.556 657.57 800.371 658.23 800.371C658.89 800.371 659.387 800.556 659.723 800.927C660.07 801.297 660.244 801.76 660.244 802.316C660.244 802.848 660.07 803.294 659.723 803.653C659.387 804.012 658.89 804.191 658.23 804.191C657.57 804.191 657.072 804.012 656.736 803.653C656.412 803.294 656.25 802.848 656.25 802.316Z" fill="#CA3E45"/>
</svg>
