<?xml version="1.0" encoding="utf-8"?>
<!-- Generator: Adobe Illustrator 22.0.1, SVG Export Plug-In . SVG Version: 6.00 Build 0)  -->
<svg version="1.1" id="Layer_1" xmlns="http://www.w3.org/2000/svg" xmlns:xlink="http://www.w3.org/1999/xlink" x="0px" y="0px"
	 viewBox="0 0 873.2 525.8" style="enable-background:new 0 0 873.2 525.8;" xml:space="preserve">
<style type="text/css">
	.st0{fill:#F9C319;}
	.st1{fill:#082E41;}
	.st2{fill:#002254;}
	.st3{fill:#30E2E2;}
	.st4{fill:#F9E23A;}
	.st5{fill:#FFFFFF;}
	.st6{fill:#F9C9B7;}
	.st7{fill:#EFAB95;}
	.st8{fill:#FCFDFF;}
	.st9{opacity:0.11;fill:#060606;enable-background:new    ;}
	.st10{fill:#82CC69;}
	.st11{fill:#4F6E81;}
	.st12{fill:#2BB2AF;}
	.st13{fill:#CA3C44;}
</style>
<g>
	<g>
		<path class="st0" d="M112.6,48.8c4.5,7.3,3.1,16.5-3.3,20.4c-6.3,3.9-15.2,1.1-19.7-6.2c-4.5-7.3-3.1-16.5,3.3-20.4
			C99.2,38.7,108.1,41.5,112.6,48.8z"/>
	</g>
	<g>
		<path class="st1" d="M78.9,153.3c3.1,5.1,2.6,11.1-1.2,13.4l-7.5,4.6c-3.8,2.3-9.4,0.1-12.5-5L32.9,126
			c-3.1-5.1-2.6-11.1,1.2-13.4l7.5-4.6c3.8-2.3,9.4-0.1,12.5,5L78.9,153.3z"/>
	</g>
	<g>
		<g>
			<path class="st2" d="M147.4,27l-26.7,16.5c-1.2,0.8-2.9,0.4-3.7-0.9c-0.8-1.3-0.4-2.9,0.9-3.7l26.7-16.5c1.3-0.8,2.9-0.4,3.7,0.9
				C149.1,24.6,148.7,26.2,147.4,27z"/>
		</g>
	</g>
	<g>
		<g>
			<path class="st3" d="M147.4,27l-26.7,16.5c-1.2,0.8-2.9,0.4-3.7-0.9c-0.8-1.3-0.4-2.9,0.9-3.7l26.7-16.5c1.3-0.8,2.9-0.4,3.7,0.9
				C149.1,24.6,148.7,26.2,147.4,27z"/>
		</g>
	</g>
	<g>
		<g>
			<path class="st3" d="M128.3,6.9l-12.4,28.8c-0.6,1.4-2.1,2-3.5,1.4s-2-2.2-1.4-3.5l12.4-28.8c0.6-1.3,2.2-2,3.5-1.4
				C128.2,4,128.8,5.6,128.3,6.9z"/>
		</g>
	</g>
	<g>
		<g>
			<path class="st3" d="M154,48.6l-31.4-1.8c-1.5-0.1-2.7,1-2.8,2.5c-0.1,1.5,1,2.7,2.5,2.8l31.4,1.8c1.5,0.1,2.7-1,2.8-2.5
				C156.6,49.9,155.5,48.7,154,48.6z"/>
		</g>
	</g>
	<g>
		<polygon class="st4" points="74.5,146.2 71,140.4 49.7,153.4 50,153.9 53.2,159.1 		"/>
		<path class="st4" d="M78.9,153.3l-1.4-2.2L56.2,164l1.5,2.4c0.1,0.2,0.3,0.4,0.5,0.7l21.2-12.7C79.2,154,79.1,153.6,78.9,153.3z"
			/>
	</g>
	<g>
		<path class="st1" d="M64.2,4.4c1,20.4-33.1,60.7-33.1,60.7l13.8,22.3l13.8,22.3c0,0,51.3-12.4,69.1-2.4L96.6,55.5L64.2,4.4z"/>
	</g>
	<g>
		<path class="st4" d="M133.2,103.7c0.9,1.5-0.1,3.8-2.2,5.2l0,0c-2.2,1.3-4.7,1.2-5.6-0.3L62,6.1c-0.9-1.5,0.1-3.8,2.3-5.2l0,0
			c2.2-1.3,4.7-1.2,5.6,0.3L133.2,103.7z"/>
	</g>
	<g>
		<path class="st5" d="M31.7,64.2L7,79.4c-6.6,4.1-9,12.1-5.4,17.9l15.1,24.5c3.6,5.8,11.9,7.3,18.4,3.2l19-11.7l5.7-3.5L31.7,64.2z
			"/>
	</g>
</g>
<g>
	<g>
		<path class="st0" d="M760.6,48.8c-4.5,7.3-3.1,16.5,3.3,20.4c6.3,3.9,15.2,1.1,19.7-6.2s3.1-16.5-3.3-20.4
			C774,38.7,765.2,41.5,760.6,48.8z"/>
	</g>
	<g>
		<path class="st1" d="M794.4,153.3c-3.1,5.1-2.6,11.1,1.2,13.4l7.5,4.6c3.8,2.3,9.4,0.1,12.5-5l24.8-40.3
			c3.1-5.1,2.6-11.1-1.2-13.4l-7.5-4.6c-3.8-2.3-9.4-0.1-12.5,5L794.4,153.3z"/>
	</g>
	<g>
		<g>
			<path class="st2" d="M725.8,27l26.7,16.5c1.2,0.8,2.9,0.4,3.7-0.9c0.8-1.3,0.4-2.9-0.9-3.7l-26.7-16.5c-1.3-0.8-2.9-0.4-3.7,0.9
				C724.2,24.6,724.5,26.2,725.8,27z"/>
		</g>
	</g>
	<g>
		<g>
			<path class="st3" d="M725.8,27l26.7,16.5c1.2,0.8,2.9,0.4,3.7-0.9c0.8-1.3,0.4-2.9-0.9-3.7l-26.7-16.5c-1.3-0.8-2.9-0.4-3.7,0.9
				C724.2,24.6,724.5,26.2,725.8,27z"/>
		</g>
	</g>
	<g>
		<g>
			<path class="st3" d="M745,6.9l12.4,28.8c0.6,1.4,2.1,2,3.5,1.4s2-2.2,1.4-3.5L749.9,4.8c-0.6-1.3-2.2-2-3.5-1.4
				C745,4,744.4,5.6,745,6.9z"/>
		</g>
	</g>
	<g>
		<g>
			<path class="st3" d="M719.2,48.6l31.4-1.8c1.5-0.1,2.7,1,2.8,2.5s-1,2.7-2.5,2.8l-31.4,1.8c-1.5,0.1-2.7-1-2.8-2.5
				C716.6,49.9,717.8,48.7,719.2,48.6z"/>
		</g>
	</g>
	<g>
		<polygon class="st4" points="798.7,146.2 802.3,140.4 823.5,153.4 823.2,153.9 820,159.1 		"/>
		<path class="st4" d="M794.4,153.3l1.4-2.2l21.3,12.9l-1.5,2.4c-0.1,0.2-0.3,0.4-0.5,0.7l-21.2-12.7
			C794,154,794.1,153.6,794.4,153.3z"/>
	</g>
	<g>
		<path class="st1" d="M809,4.4c-1,20.4,33.1,60.7,33.1,60.7l-13.8,22.3l-13.8,22.3c0,0-51.3-12.4-69.1-2.4l31.2-51.8L809,4.4z"/>
	</g>
	<g>
		<path class="st4" d="M740.1,103.7c-0.9,1.5,0.1,3.8,2.2,5.2l0,0c2.2,1.3,4.7,1.2,5.6-0.3L811.2,6.1c0.9-1.5-0.1-3.8-2.3-5.2l0,0
			c-2.2-1.3-4.7-1.2-5.6,0.3L740.1,103.7z"/>
	</g>
	<g>
		<path class="st5" d="M841.5,64.2l24.7,15.2c6.6,4.1,9,12.1,5.4,17.9l-15.1,24.5c-3.6,5.8-11.9,7.3-18.4,3.2l-19-11.7l-5.7-3.5
			L841.5,64.2z"/>
	</g>
</g>
<g>
	<path class="st6" d="M690.9,429l-31.5-16.4c-23.6-10.9-18.5-30-18.5-30h-24.2h-0.4H592c0,0,5.1,19.1-18.5,30L548,428.9l68.4-1
		L690.9,429z"/>
	<path class="st6" d="M542.3,279.8c0.4,10.7-1.8,20.1-7.4,20.3c-5.5,0.2-9.6-8.4-9.9-19.1c-0.4-10.7,3.9-19.6,9.4-19.8
		C540,261.1,541.9,269.1,542.3,279.8z"/>
	<path class="st6" d="M686.5,277.7c-0.4,10.7,1.8,20.1,7.4,20.3c5.5,0.2,9.6-8.4,9.9-19.1c0.4-10.7-3.9-19.6-9.4-19.8
		C688.8,258.9,686.9,267,686.5,277.7z"/>
	<ellipse class="st6" cx="615.6" cy="282.2" rx="75.3" ry="106.9"/>
	<path class="st1" d="M544.3,316.4c0,0-17.2-64.1,19.7-96.3c0,0,27.5,22.1,60.9,14.4c0,0,11.1-2.4,24.4-10.7
		c0,0,26.1-11.1,34.7,14.5c9.1,27.3,4.5,55,5,71.6c0,0,12.2-27.6,12.6-69.6c0,0,2,7.4,2.8,16.6c0,0,4.6-32.1-3.7-50.9
		c0,0-6.1-20.2-29.4-30.6c0,0-13.8-22-68.8-17.6c0,0-0.9-3.8,7.6-7.2c0,0-42.4-2.7-52,26.1c0,0-34.4,7.5-31.2,67.3l3.6-11.2
		C530.4,232.7,523.7,288.9,544.3,316.4z"/>
	<path class="st7" d="M592.4,388.7l60.3,19.7c0,0-14.4-7.8-11.9-25.5c0,0-22,12.7-48.6,0.1C592.2,383,592.6,385.4,592.4,388.7z"/>
	<polygon class="st8" points="663.6,431.3 640.2,525.6 592.2,525.6 568.9,431.5 575.5,431.2 602.5,429.8 616.3,429.1 631.5,429.8 
		658.5,431.1 	"/>
	<polygon class="st9" points="615.9,429.5 574.8,471.5 559.9,411.9 580.8,407 	"/>
	<polygon class="st9" points="616.3,429.5 657.5,471.5 672.3,411.9 651.4,407 	"/>
	<g>
		<path class="st10" d="M625.4,443c-0.4,0.7-1.8,1.2-3.4,1.2h-10c-1.5,0-3-0.5-3.4-1.2l-5.8-11.2c-1.1-2.2,0.4-4.2,3.6-4.2h21.2
			c3.2,0,4.7,2,3.6,4.2L625.4,443z"/>
		<polygon class="st10" points="631.4,525.8 602.5,525.8 602.5,525.7 602.8,522.3 608.5,442.9 608.5,442.9 608.6,442.8 625.4,442.8 
			625.4,443 631.4,525.1 631.4,525.7 		"/>
	</g>
	<path class="st11" d="M587.7,525.8h-157l6.7-26.7c16.9-67.3,99.4-86.8,105.7-88.2c0.3-0.1,0.4-0.1,0.4-0.1l19.4,35.7L587.7,525.8z"
		/>
	<path class="st3" d="M789.2,525.9H644.3l24.1-78.6L668,410c0,0,9,1.8,22,6.2l0,0c29.7,10.1,80.2,34.2,92.4,82.9L789.2,525.9z"/>
	<polygon class="st8" points="616.3,426.7 657.5,468.8 672.8,411.3 647.5,404.3 	"/>
	<path class="st12" d="M684.3,488h-23.5l8,12.5l-11.4,25.4H637v-0.1l21.5-94.6l0,0l0.3-1.3l4.9-21c0,0,19.6,4.7,26.3,7.4v0.1
		L684.3,488z"/>
	<polygon class="st8" points="616.3,426.7 575.1,468.8 560.3,407.3 584.6,405.2 	"/>
	<g>
		<path class="st3" d="M587.8,525.8H430.5l6.8-27.1c17.5-70,106.1-88.3,106.1-88.3l0.1,0.2l19.3,35.6L587.8,525.8z"/>
	</g>
	<path class="st12" d="M596.3,525.9h-19.2l-12.6-29.3l8-12.5H549l-5.9-73.2v-0.1c0.2-0.1,0.3-0.2,0.5-0.2c0.7-0.3,1.4-0.6,2.2-0.8
		c11.9-2.8,24.5-3.2,24.5-3.2l4.3,19.6l1.1,5.1l0,0L596.3,525.9L596.3,525.9z"/>
</g>
<g>
	<path class="st6" d="M255.5,461.5l96.3-36.4c0-0.3-40.1-15.1-46.8-18c0,0-11.2-5.7-12-28.3c0,0-1.4-13.1-0.5-18.2h-36.9h-0.1h-36.9
		c0.9,5.1-0.5,18.2-0.5,18.2c-0.9,22.6-12,28.3-12,28.3c-6.7,2.9-46.8,17.7-46.8,18l96.3,36.4l0,0H255.5L255.5,461.5L255.5,461.5z"
		/>
	<path class="st13" d="M391.2,476.6c-1.1-44.3-45.1-53.7-45.1-53.7c-27.2,19.5-90.5,19-90.5,19s-63.4,0.5-90.6-19
		c0,0-44,9.4-45.1,53.7l-2.8,49.2h277L391.2,476.6z"/>
	<ellipse class="st6" cx="256.5" cy="282.3" rx="73.1" ry="94.7"/>
	<path class="st4" d="M223.7,223.1c0,0,66.3,33.9,96.1,36.9c0,0,8.2,4.3,6.3,29.5c-1.9,25.3-6.7,39.3-8.2,43.2
		c-2.4,6.5-11.8,58.1,2.7,75.5c0,0-6.9-47.8,8-61.8c0,0,24.6-39.1,27.1-81.8c0,0,0.8-63.2-37.2-95.5c0,0-47.5-43.3-114-7.9
		c0,0-29.5,15.1-45.3,63.6c0,0-9.5,25.3,7.6,69.3c20.7,53.5,21.4,57.1,23.5,66.3c0,0,4,32.1-13.2,51.4c0,0,40.6-42.4,24.4-68.1
		s-18.3-58.1-17.7-63.9C183.7,279.8,187.2,228.8,223.7,223.1z"/>
	<path class="st7" d="M218.4,373.6c0.2-3,0.4-6.7,0.3-9.7c0-0.2,0-0.3,0-0.5c11,8.6,23.8,13.5,37.5,13.6c0.1,0,0.1,0,0.2,0
		c13,0,25.1-4.4,35.7-12c0,5.9,0.8,13.8,0.8,13.8c0.9,22.6,12,28.3,12,28.3c0.7,0.3,2.9,1.2,2.9,1.2L218.4,373.6z"/>
</g>
</svg>
