<?xml version="1.0" encoding="utf-8"?>
<!-- Generator: Adobe Illustrator 22.0.1, SVG Export Plug-In . SVG Version: 6.00 Build 0)  -->
<svg version="1.1" id="Layer_1" xmlns="http://www.w3.org/2000/svg" xmlns:xlink="http://www.w3.org/1999/xlink" x="0px" y="0px"
	 viewBox="0 0 340 270" style="enable-background:new 0 0 340 270;" xml:space="preserve">
<style type="text/css">
	.st0{fill:#3672A8;}
	.st1{fill:#1A5C8E;}
	.st2{fill:#82CC69;}
	.st3{fill:#9BFF7D;}
	.st4{fill:#EFAB95;}
	.st5{fill:#F9C9B7;}
	.st6{fill:#CA3C44;}
	.st7{fill:#082E41;}
	.st8{fill:#F9E23A;}
	.st9{fill:#30E2E2;}
	.st10{fill:#F9C319;}
	.st11{fill:#FFFFFF;}
	.st12{fill:#CEDBDD;}
	.st13{fill:#9E9E9E;}
	.st14{fill:#C5C5C5;}
</style>
<g>
	<g>
		<rect x="20.9" y="155" transform="matrix(0.8203 -0.572 0.572 0.8203 -101.5115 45.8563)" class="st0" width="2.6" height="59"/>
	</g>
	<g>
		<path class="st1" d="M45.6,207.9l-6,1.7L30,195.8c3-2.3,7.2-2.5,10.5-0.2l5.4,3.7c1.7,1.2,2.6,3.2,2.5,5.2
			C48.4,206,47.2,207.4,45.6,207.9z"/>
	</g>
	<g>
		<path class="st0" d="M36,214.6l3.7-5L30,195.8c-3.2,2-4.8,5.9-3.9,9.7l1.6,6.3c0.5,2,2,3.6,3.9,4.2C33.2,216.6,35,215.9,36,214.6z
			"/>
	</g>
	<g>
		<polygon class="st0" points="5.5,160.4 4.5,161.2 0,153.2 6.6,159.6 		"/>
	</g>
</g>
<g>
	<g>
		
			<rect x="291.9" y="118.2" transform="matrix(0.8389 -0.5442 0.5442 0.8389 -33.9043 192.1377)" class="st2" width="31.6" height="70.3"/>
		<path class="st3" d="M283.6,138.9l27.4,42.3c2.8-1.9,6.7-1,8.6,1.8l5-3.3l0.2-0.1l5-3.3c-1.9-2.8-1-6.7,1.8-8.6l-27.4-42.3
			c-2.8,1.9-6.7,1-8.6-1.8l-5,3.3l-0.2,0.1l-5,3.3C287.3,133.2,286.5,137.1,283.6,138.9z"/>
		<path class="st2" d="M301.6,143.9c6.6-4.3,14.6-3.5,17.9,1.7c3.4,5.2,0.9,12.9-5.7,17.1c-6.6,4.3-14.6,3.5-17.9-1.7
			C292.5,155.8,295,148.1,301.6,143.9z"/>
		<path class="st2" d="M317.7,168.9c1.3-0.8,2.9-0.5,3.7,0.8s0.5,2.9-0.8,3.7c-1.3,0.8-2.9,0.5-3.7-0.8
			C316.1,171.4,316.4,169.7,317.7,168.9z"/>
		<path class="st2" d="M295.4,134.4c1-0.7,2.3-0.4,3,0.7c0.7,1,0.4,2.3-0.7,3c-1,0.7-2.3,0.4-3-0.7
			C294.1,136.4,294.4,135,295.4,134.4z"/>
		<g>
			<path class="st3" d="M307.4,146.7c0.9-0.6,2-0.7,3.1-0.4c1.1,0.3,2.2,1.1,3.2,2.3l2.5-1.6l0.9,1.4l-2.4,1.5
				c0.5,0.7,1,1.6,1.3,2.4c0.3,0.8,0.6,1.5,0.7,2.1l-1.7,1c-0.1-0.8-0.4-1.5-0.7-2.5c-0.3-0.8-0.7-1.7-1.1-2.2l-4.6,3
				c0.5,1.8,0.6,3.1,0.4,4.1c-0.3,0.9-0.8,1.8-1.8,2.3c-0.9,0.6-1.9,0.7-3,0.4c-1.1-0.3-2.1-1-2.9-2.2l-1.9,1.3l-0.9-1.4l1.9-1.3
				c-0.8-1.3-1.4-2.8-1.6-4.2l1.7-0.4c0.3,1.3,0.7,2.6,1.3,3.7l4.5-2.9c-0.4-1.3-0.5-2.4-0.6-3.1c-0.1-0.8,0.1-1.4,0.4-1.9
				C306.4,147.6,306.8,147.2,307.4,146.7z M305.9,158.5c0.5-0.3,0.8-0.8,1-1.3c0.2-0.5,0.1-1.3-0.2-2.2l-4.1,2.7
				c0.6,0.6,1.1,1,1.7,1.1C304.9,158.9,305.4,158.9,305.9,158.5z M308.7,148.4c-0.5,0.3-0.8,0.8-0.9,1.3c-0.1,0.5,0,1.4,0.3,2.4
				l4.1-2.6C310.9,148.1,309.8,147.7,308.7,148.4z"/>
		</g>
	</g>
</g>
<g>
	<g>
		
			<rect x="286.8" y="143.4" transform="matrix(0.6745 -0.7383 0.7383 0.6745 -33.3076 281.5201)" class="st2" width="31.6" height="70.3"/>
		<path class="st3" d="M275.7,170.6l37.2,34c2.4-2.5,6.3-2.7,8.8-0.4l4-4.5l0.1-0.2l4-4.5c-2.5-2.4-2.7-6.3-0.4-8.8l-37.2-34
			c-2.4,2.5-6.3,2.7-8.8,0.4l-4,4.5l-0.1,0.2l-4,4.5C277.8,164.1,278,168.1,275.7,170.6z"/>
		<path class="st2" d="M294.3,170.9c5.3-5.7,13.3-7,17.8-2.9c4.5,4.1,4.1,12.3-1.2,18s-13.3,7-17.8,2.9
			C288.5,184.7,289,176.7,294.3,170.9z"/>
		<path class="st2" d="M316.3,191c1-1.1,2.8-1.2,3.9-0.2c1.1,1,1.2,2.8,0.2,3.9c-1,1.1-2.8,1.2-3.9,0.2
			C315.4,193.8,315.2,192.1,316.3,191z"/>
		<path class="st2" d="M285.9,163.2c0.8-0.9,2.1-0.9,3-0.2c0.9,0.8,0.9,2.1,0.2,3c-0.8,0.9-2.1,0.9-3,0.2
			C285.2,165.4,285.1,164.1,285.9,163.2z"/>
		<g>
			<path class="st3" d="M300.7,172.1c0.8-0.9,1.7-1.3,2.9-1.2c1.2,0,2.3,0.5,3.6,1.3l2-2.1l1.2,1.1l-1.9,2.1c0.7,0.6,1.3,1.3,1.9,2
				c0.5,0.7,0.9,1.3,1.1,1.9l-1.4,1.4c-0.3-0.8-0.8-1.4-1.3-2.1c-0.5-0.7-1.1-1.3-1.6-1.9l-3.7,4.1c0.9,1.6,1.4,2.9,1.4,3.8
				c0,1-0.3,1.9-1.1,2.8c-0.7,0.8-1.7,1.1-2.8,1.2c-1.1-0.1-2.2-0.5-3.4-1.4l-1.6,1.7l-1.2-1.1l1.5-1.6c-1.2-1.1-2.1-2.3-2.7-3.7
				l1.6-0.8c0.5,1.2,1.3,2.2,2.2,3.2l3.7-4.1c-0.7-1.2-1.1-2.1-1.4-2.9c-0.2-0.7-0.3-1.4-0.2-2C299.8,173.3,300.2,172.7,300.7,172.1
				z M302.2,183.9c0.4-0.5,0.6-1,0.7-1.5c-0.1-0.5-0.2-1.2-0.7-2.1l-3.3,3.6c0.7,0.4,1.4,0.7,1.9,0.6
				C301.3,184.5,301.7,184.3,302.2,183.9z M302.4,173.5c-0.4,0.5-0.6,0.9-0.6,1.5s0.4,1.3,0.9,2.3l3.3-3.6
				C304.5,172.6,303.3,172.5,302.4,173.5z"/>
		</g>
	</g>
</g>
<path class="st4" d="M251.2,95.9l-10.6-3.2l-0.2-2.4l-24,17.5l0.1,23.4h15.1v-2.6c0-1.3,0.7-2.5,1.8-3.1c1.8-1,4.6-2.6,6.3-3.7
	c1.5-1,2.6-1.3,3.1-3.2l0,0L251.2,95.9z"/>
<path id="XMLID_94_" class="st5" d="M216,130.1c0,5,1.7,3.6,5.9,3.6l0,0c7.8,0.2,9.4-8.1,9.4-13.1v-3.1c0-6.7-6.7-15.1-10.9-15.1
	l0,0c-4.2,0-4.3,4-4.3,9L216,130.1z"/>
<rect id="XMLID_93_" x="209.2" y="129.5" class="st6" width="31" height="141.4"/>
<g id="XMLID_90_">
	
		<rect id="XMLID_92_" x="235" y="81.9" transform="matrix(0.3864 -0.9223 0.9223 0.3864 68.165 271.7809)" class="st7" width="6.6" height="5.5"/>
	<path class="st7" d="M256,43.7c-10.6-4.4-22.8,0.6-27.2,11.1c-4.4,10.6,0.6,22.8,11.2,27.2c10.6,4.4,22.8-0.6,27.2-11.2
		C271.6,60.3,266.6,48.1,256,43.7z M242.6,75.8c-7.1-3-10.5-11.2-7.5-18.4c3-7.1,11.2-10.5,18.4-7.5c7.1,3,10.5,11.2,7.5,18.4
		C257.9,75.4,249.7,78.8,242.6,75.8z"/>
	<path id="XMLID_91_" class="st7" d="M228.7,114.7l-4.9-2.1c-1.2-0.5-1.8-1.9-1.3-3.1l11.2-26.8l9.3,3.9l-11.2,26.8
		C231.3,114.6,229.9,115.2,228.7,114.7z"/>
</g>
<g>
	<path id="XMLID_89_" class="st5" d="M235.9,90.6c-0.5,1.4,0,2.9,1,3.3l12.1,4c1.1,0.4,2.4-0.5,2.9-1.9l0,0c0.5-1.4,0-2.9-1-3.3
		l-12.1-4C237.7,88.3,236.4,89.1,235.9,90.6L235.9,90.6z"/>
	<path id="XMLID_88_" class="st5" d="M229.5,103.1c-0.5,1.4,0,2.9,1,3.3l14.1,4.7c1.1,0.4,2.4-0.5,2.9-1.9l0,0c0.5-1.4,0-2.9-1-3.3
		l-14.1-4.7C231.3,100.8,230,101.6,229.5,103.1L229.5,103.1z"/>
	<g>
		<path class="st5" d="M249,99l-10.2-3.4c0.1,1.7-1.3,4.3-2.6,5l10.9,3.6c1.1,0.4,2.4-0.5,2.9-1.9C250.5,100.9,250.1,99.4,249,99z"
			/>
		<path class="st5" d="M234.8,94.4c-0.5-0.2-1-0.1-1.5,0.2h2.1L234.8,94.4z"/>
		<path class="st4" d="M238.8,95.7l-3.4-1.1h-2.1c-0.6,0.3-1.1,0.9-1.4,1.7c-0.5,1.4,0,2.9,1,3.3l3.2,1.1
			C237.5,100,238.9,97.3,238.8,95.7z"/>
	</g>
	<path id="XMLID_87_" class="st5" d="M233.3,111.6c-0.5,1.4,0,2.9,1,3.3l8,2.7c1.1,0.4,2.4-0.5,2.9-1.9l0,0c0.5-1.4,0-2.9-1-3.3
		l-8-2.7C235.1,109.4,233.8,110.2,233.3,111.6L233.3,111.6z"/>
</g>
<path id="XMLID_86_" class="st5" d="M216,129.5l-0.2-24.6c0-0.6,0.1-1.1,0.4-1.6l5.1-9c0.5-0.9,1.5-1.5,2.6-1.5h11.2
	c1.5,1.3-0.9,6.2-2.7,6.2s-5.4,0.2-5.4,0.2l-1.2,5.7L216,129.5z"/>
<path id="XMLID_85_" class="st5" d="M9.1,190.5c0-1.7,1.4-3.1,3.1-3.1H9c-1.7,0-3.1-1.4-3.1-3.1c0-1.7,1.4-3.1,3.1-3.1H5.7
	c-1.7,0-3.1-1.4-3.1-3.1c0-1.7,1.4-3.1,3.1-3.1H9c-1.7,0-3.1-1.4-3.1-3.1c0-1.7,1.4-3.1,3.1-3.1h4.1v-4.4c0-1.2,0.9-2.1,2.1-2.1H29
	c1.1,0,2.1,0.6,2.6,1.7l1.2,2.6c0.5,1,1.5,1.7,2.6,1.7h6V189h-6.8c-0.7,0-1.3,0.3-1.8,0.8l-3.1,3.2c-0.6,0.6-1.3,0.9-2.1,0.9H12.2
	C10.5,193.6,9.1,192.2,9.1,190.5z"/>
<path class="st8" d="M93.1,162H36.8v12.4v18.5h56.3c13.9,0,25.3,11.3,25.3,25.3V271h18.5h12.4v-52.8C149.3,187.2,124.1,162,93.1,162
	z"/>
<path id="XMLID_84_" class="st4" d="M286.2,197v-0.5c0-1.7,1.4-3.7,3.1-3.7l15,1.6l13.3-0.9c1.7,0,3.1,1.4,3.1,3.1v0.5
	c0,1.7-1.4,3.1-3.1,3.1h-28.2C287.6,200.1,286.2,198.7,286.2,197z"/>
<path id="XMLID_83_" class="st5" d="M287.8,167.6l12.2,8.9c2,1.4,2.5,4.2,1.2,6.3l0,0c-1.4,2.2-4.3,2.9-6.5,1.5l-9.7-6.1
	c-0.8-0.5-1.9,0.1-1.9,1.1v3.1l13.6,12.7c0,0,8.5,1.2,9.7,1.5H321c1.9,0,3.5,1.6,3.5,3.5l0,0c0,1.9-1.6,3.5-3.5,3.5l-13.1,0.1
	c-1,0.4-15.6,0.3-15.6,0.3l-31.5-15.2v-23.2h22.6C284.9,165.7,286.8,166.6,287.8,167.6z"/>
<g>
	<path class="st8" d="M210.4,218.8c0-13.8,11.2-25.1,25.1-25.1h27.9v-18.5h-24.6c-25.9,0-46.9,21-46.9,46.9V271h18.5V218.8z"/>
	<path class="st8" d="M235.5,163.1c-30.7,0-55.7,25-55.7,55.7V271h12.1h18.5v-52.2c0-13.8,11.2-25.1,25.1-25.1h27.9v-18.5v-12.1
		H235.5z"/>
</g>
<path id="XMLID_80_" class="st7" d="M308.4,146.6l-1.8-3.2c-0.3-0.6-1.1-0.9-1.8-0.5l-4.1,2.2c-0.6,0.3-0.9,1.1-0.5,1.8l1.4,2.5
	c0.2,0.4,0.2,0.9-0.2,1.3c-0.2,0.2-0.3,0.4-0.6,0.6c-0.3,0.4-0.7,0.5-1.2,0.4l-2.7-0.8c-0.7-0.2-1.5,0.2-1.7,0.9l-1.3,4.5
	c-0.2,0.7,0.2,1.5,0.9,1.7l2.8,0.8c0.4,0.1,0.7,0.5,0.7,1c0.1,0.3,0,0.7,0.1,1c0,0.4-0.2,0.9-0.5,1.1l-2.5,1.4
	c-0.6,0.3-0.9,1.1-0.5,1.8l2.2,4.1c0.3,0.6,1.1,0.9,1.8,0.5l2.5-1.4c0.4-0.2,0.9-0.2,1.3,0.2c0.2,0.2,0.5,0.4,0.6,0.6
	c0.4,0.3,0.5,0.7,0.4,1.2l-0.8,2.7c-0.2,0.7,0.2,1.5,0.9,1.7l4.5,1.3c0.7,0.2,1.5-0.2,1.7-0.9l0.8-2.8c0.1-0.4,0.5-0.7,1-0.7
	c0.3-0.1,0.7,0,1-0.1c0.4,0,0.9,0.2,1.1,0.5l1.4,2.5c0.3,0.6,1.1,0.9,1.9,0.5l4.1-2.2c0.6-0.3,0.9-1.1,0.5-1.9l-1.4-2.5
	c-0.2-0.4-0.2-0.9,0.2-1.3c0.2-0.2,0.3-0.4,0.6-0.6c0.3-0.4,0.7-0.5,1.2-0.4l2.7,0.8c0.7,0.2,1.5-0.2,1.7-0.9l1.3-4.5
	c0.2-0.7-0.2-1.5-0.9-1.7l-2.8-0.8c-0.4-0.1-0.7-0.5-0.8-1c-0.1-0.3,0-0.7-0.1-1c0-0.4,0.2-0.9,0.5-1.1l2.5-1.4
	c0.6-0.3,0.9-1.1,0.5-1.9l-2.2-4.1c-0.3-0.6-1.1-0.9-1.8-0.5l-2.5,1.4c-0.4,0.2-0.9,0.2-1.3-0.2c-0.2-0.2-0.4-0.3-0.6-0.6
	c-0.4-0.3-0.5-0.7-0.4-1.2l0.8-2.7c0.2-0.7-0.2-1.5-0.9-1.7l-4.5-1.3c-0.7-0.2-1.5,0.2-1.7,0.9l-0.8,2.8c-0.1,0.4-0.5,0.7-1,0.8
	C309.3,146.5,308.4,146.6,308.4,146.6z M313.1,165.4c-4,1.3-8.1-1.4-8.6-5.4c-0.4-3.1,1.5-6.2,4.5-7.1c4-1.3,8.1,1.4,8.6,5.4
	C318,161.3,316.1,164.4,313.1,165.4z"/>
<g id="XMLID_48_">
	<g id="XMLID_49_">
		<g id="XMLID_78_">
			<path id="XMLID_79_" class="st9" d="M154.1,16.6l-2.8-3.4c-0.3-0.4-0.8-0.4-1.2-0.1l-1.1,1c-0.4,0.3-0.4,0.8-0.1,1.2l2.8,3.4
				L154.1,16.6z"/>
		</g>
		<g id="XMLID_76_">
			<path id="XMLID_77_" class="st9" d="M145.1,27.7l1.5-2.7l-8.4-4.6c-0.4-0.2-0.9-0.1-1.2,0.3l-0.7,1.2c-0.2,0.4-0.1,0.9,0.3,1.1
				L145.1,27.7z"/>
		</g>
		<g id="XMLID_74_">
			<path id="XMLID_75_" class="st9" d="M142,38.5l0.5-3.1l-4.3-0.7c-0.5-0.1-0.9,0.2-1,0.7l-0.2,1.4c-0.1,0.5,0.2,0.9,0.7,1
				L142,38.5z"/>
		</g>
		<g id="XMLID_72_">
			<path id="XMLID_73_" class="st9" d="M142.8,49.7l-0.6-3l-9.5,1.9c-0.5,0.1-0.8,0.5-0.7,1l0.3,1.4c0.1,0.5,0.5,0.8,1,0.7
				L142.8,49.7z"/>
		</g>
		<g id="XMLID_70_">
			<path id="XMLID_71_" class="st9" d="M147.4,60l-1.6-2.7l-3.7,2.3c-0.4,0.2-0.5,0.8-0.3,1.2l0.7,1.2c0.2,0.4,0.8,0.5,1.2,0.3
				L147.4,60z"/>
		</g>
		<g id="XMLID_68_">
			<path id="XMLID_69_" class="st9" d="M148.6,76.3l6.6-8.2l-2.4-1.9l-6,7.5c-0.3,0.4-0.2,0.9,0.1,1.2L148.6,76.3z"/>
		</g>
		<g id="XMLID_66_">
			<path id="XMLID_67_" class="st9" d="M201.9,74.5l1.1-0.9c0.4-0.3,0.4-0.8,0.1-1.2l-6.4-7.2l-2.3,2.1l6.4,7.2
				C201,74.8,201.5,74.8,201.9,74.5z"/>
		</g>
		<g id="XMLID_64_">
			<path id="XMLID_65_" class="st9" d="M206.9,60.7l0.7-1.2c0.2-0.4,0.1-0.9-0.3-1.2l-3.3-1.9c-0.4-0.2-0.9-0.1-1.2,0.3l-0.7,1.2
				c-0.2,0.4-0.1,0.9,0.3,1.2l3.3,1.9C206.2,61.3,206.7,61.1,206.9,60.7z"/>
		</g>
		<g id="XMLID_62_">
			<path id="XMLID_63_" class="st9" d="M216.4,49l0.2-1.4c0.1-0.5-0.2-0.9-0.7-1l-9.5-1.4l-0.5,3.1l9.5,1.4
				C215.8,49.8,216.3,49.5,216.4,49z"/>
		</g>
		<g id="XMLID_60_">
			
				<rect id="XMLID_61_" x="205.8" y="33.5" transform="matrix(0.9803 -0.1973 0.1973 0.9803 -2.8092 41.8063)" class="st9" width="5.2" height="3.1"/>
		</g>
		<g id="XMLID_58_">
			<path id="XMLID_59_" class="st9" d="M211,20.2l-0.7-1.2c-0.2-0.4-0.8-0.5-1.2-0.3l-8.2,5l1.6,2.7l8.2-5
				C211.2,21.2,211.3,20.6,211,20.2z"/>
		</g>
		<g id="XMLID_56_">
			<path id="XMLID_57_" class="st9" d="M195.5,17.7l2.8-3.3c0.3-0.4,0.3-0.9-0.1-1.2l-1.1-0.9c-0.4-0.3-0.9-0.3-1.2,0.1l-2.8,3.3
				L195.5,17.7z"/>
		</g>
		<g id="XMLID_54_">
			<path id="XMLID_55_" class="st9" d="M185.9,11.8l3.1-9.1c0.1-0.4-0.1-0.9-0.5-1.1l-1.4-0.5c-0.4-0.1-0.9,0.1-1.1,0.5l-3,9.2
				L185.9,11.8z"/>
		</g>
		<g id="XMLID_52_">
			<path id="XMLID_53_" class="st9" d="M174.9,9.7l0.1-4.4c0-0.5-0.4-0.9-0.8-0.9h-1.4c-0.5,0-0.9,0.4-0.9,0.8l-0.1,4.4L174.9,9.7z"
				/>
		</g>
		<g id="XMLID_50_">
			<path id="XMLID_51_" class="st9" d="M163.8,11.3l-3.5-9c-0.2-0.4-0.7-0.6-1.1-0.5l-1.3,0.5c-0.4,0.2-0.6,0.7-0.5,1.1l3.5,9
				L163.8,11.3z"/>
		</g>
	</g>
</g>
<path id="XMLID_47_" class="st4" d="M158.4,103.8h15.7L174,101c0,0,5.4-2.9,8.1-4.8c2-1.4,3.4-1.5,3.4-6.1v-11l-27.8,3.4
	L158.4,103.8z"/>
<path id="XMLID_46_" class="st5" d="M150.5,105.4c0,5,1.7,3.6,5.9,3.6l0,0c7.8,0.2,9.4-8.1,9.4-13.1v-3.1c0-6.7-6.7-15.1-10.9-15.1
	l0,0c-4.2,0-4.3,4-4.3,9L150.5,105.4z"/>
<rect id="XMLID_45_" x="146.4" y="103.8" class="st6" width="34" height="167.2"/>
<g id="XMLID_24_">
	<path class="st8" d="M182.2,12.7c-1.9-0.6-3.9-1-5.9-1.1c-15.8-1-29,11.4-29,27c0,8.9,4.2,16.8,10.8,21.8c0.9,0.7,1.5,1.8,1.4,2.9
		v15.4h9.2l20.5,0.1V63.4c0-1.1,0.5-2.2,1.5-2.9c6.8-5,11.1-13.1,10.9-22.3C201.5,26.3,193.3,16,182.2,12.7z"/>
	<g id="XMLID_39_">
		<path id="XMLID_40_" class="st10" d="M165.3,50c-5.1-1.8-6.2-5.2-6.4-6.2c-0.3-1.6,0.1-3.1,1.1-3.9c0.8-0.7,1.9-0.8,3-0.3
			c1.6,0.7,3,4.3,4.2,8.7l0,0c3.1,0.8,5.2,0.1,6.5-0.9c-0.4-0.5-0.7-1.1-1-1.7c-1.1-2.6-0.9-5.2,0.6-6.2c1.3-1,2.9-0.5,3.7,0
			c1.5,1,1.8,3.6,0.6,6.2c-0.3,0.6-0.6,1.1-1,1.7c1.3,1,3.4,1.8,6.5,1l0,0c1.2-4.4,2.7-8,4.3-8.7c1.1-0.5,2.2-0.4,3,0.3
			c1,0.8,1.4,2.3,1,3.9c-0.2,1.1-1.4,4.4-6.5,6.2c-1.7,6.8-3.2,15.5-3.3,17.4h-2.1c0-0.1,1.2-9,3.1-16.8c-3.2,0.5-5.6-0.3-7.4-1.7
			c-1.7,1.4-4.2,2.2-7.4,1.7c1.8,7.7,3,16.6,3,16.8h-2.1C168.4,65.6,167,56.8,165.3,50z M188.2,41.6c-0.8,0.3-1.7,2.7-2.6,5.9
			c2.9-1.4,3.6-3.4,3.7-4c0.2-0.9,0-1.6-0.3-1.8c-0.1-0.1-0.2-0.1-0.3-0.1C188.5,41.5,188.3,41.6,188.2,41.6z M161.2,41.6
			c-0.3,0.2-0.5,0.9-0.3,1.8c0.1,0.7,0.8,2.6,3.7,4.1c-0.9-3.2-1.8-5.5-2.6-5.9c-0.2-0.1-0.3-0.1-0.5-0.1
			C161.4,41.4,161.3,41.5,161.2,41.6z M174.5,41.3c-0.5,0.3-0.7,1.9,0.1,3.6c0.1,0.2,0.3,0.6,0.5,0.9c0.2-0.4,0.4-0.7,0.5-0.9
			c0.8-1.7,0.6-3.3,0.2-3.6c0,0-0.3-0.2-0.7-0.2C174.8,41.1,174.6,41.2,174.5,41.3z"/>
	</g>
	<g id="XMLID_25_">
		<path id="XMLID_33_" class="st11" d="M191.2,80.1l-9.9,8.2h-14.7l-9-8.3V68c0-0.5,0.4-0.9,0.9-0.9l31.7,0.1c0.5,0,0.9,0.4,0.9,0.9
			L191.2,80.1z"/>
		<path id="XMLID_31_" class="st7" d="M176.5,92.8H171c-2.7,0-4.9-2.2-4.9-4.9l0,0h15.3l0,0C181.3,90.7,179.2,92.8,176.5,92.8z"/>
		
			<rect id="XMLID_30_" x="173.2" y="53.6" transform="matrix(3.216320e-03 -1 1 3.216320e-03 103.3769 244.6008)" class="st12" width="2.3" height="33.6"/>
		
			<rect id="XMLID_29_" x="173.2" y="57.8" transform="matrix(3.213322e-03 -1 1 3.213322e-03 99.1696 248.7419)" class="st12" width="2.3" height="33.6"/>
		
			<rect id="XMLID_27_" x="173.2" y="62" transform="matrix(3.216329e-03 -1 1 3.216329e-03 94.9613 252.8823)" class="st12" width="2.3" height="33.6"/>
	</g>
</g>
<g>
	<path id="XMLID_22_" class="st5" d="M150.5,102.2l-1.3-25.4c0-0.9,0.2-1.9,0.7-2.7l2.7-4.5c0.9-1.5,2.5-2.4,4.2-2.4H167
		c1.5,1.3-0.9,6.2-2.7,6.2s-5.4,0.2-5.4,0.2l-1.2,5.7L150.5,102.2z"/>
	<g>
		<path id="XMLID_21_" class="st5" d="M177.7,61.3c-0.1,1.8,1,3.2,2.3,3.3l14.8,0.1c1.3,0,2.5-1.4,2.5-3.1l0,0
			c0.1-1.8-1-3.2-2.3-3.3l-14.8-0.2C178.9,58.1,177.7,59.5,177.7,61.3L177.7,61.3z"/>
		<path id="XMLID_20_" class="st5" d="M172,69.2c-0.1,1.8,1,3.2,2.3,3.3l21.4,0.1c1.3,0,2.5-1.4,2.5-3.1l0,0c0.1-1.8-1-3.2-2.3-3.3
			l-21.4-0.1C173.2,66,172.1,67.4,172,69.2L172,69.2z"/>
		<path id="XMLID_19_" class="st5" d="M173.9,77c-0.1,1.8,1,3.2,2.3,3.3l17.3,0.1c1.3,0,2.5-1.4,2.5-3.1l0,0c0.1-1.8-1-3.2-2.3-3.3
			l-17.3-0.1C175,73.9,173.9,75.3,173.9,77L173.9,77z"/>
		<path id="XMLID_18_" class="st5" d="M179,84.6c-0.1,1.8,1,3.2,2.3,3.3l9.8,0.2c1.3,0,2.5-1.4,2.5-3.1l0,0c0.1-1.8-1-3.2-2.3-3.3
			l-9.8-0.2C180.2,81.4,179,82.8,179,84.6L179,84.6z"/>
	</g>
</g>
<path id="XMLID_15_" class="st4" d="M106.4,114.4H89.8l0.1-3c0,0-5.7-3.1-8.6-5c-2.2-1.4-3.6-1.6-3.6-6.4V71.7l29.3,2.2L106.4,114.4
	z"/>
<g id="XMLID_9_">
	<polygon class="st3" points="113.9,42.1 103.9,42.1 88.8,42.1 88.8,60.3 103.9,60.3 113.9,60.3 114,60.3 114,42.1 	"/>
	<rect id="XMLID_14_" x="88.8" y="59.2" class="st13" width="25.3" height="7.5"/>
	<rect id="XMLID_13_" x="88.8" y="59.6" class="st14" width="25.3" height="1.1"/>
	<rect id="XMLID_11_" x="88.8" y="62.3" class="st14" width="25.3" height="1.1"/>
	<rect id="XMLID_10_" x="88.8" y="65" class="st14" width="25.3" height="1.1"/>
	<path class="st7" d="M101.4,66.7H88.8v8c0,1.5,1.2,2.6,2.6,2.6c2.9,0,5.2,2.3,5.2,5.2v21.3c0,2.5,1.8,4.8,4.3,5
		c2.2,0.2,4.1-1,4.9-2.9l0,0c0.1-0.3,0.2-0.6,0.3-0.8c0,0,0,0,0-0.1c0.1-0.3,0.1-0.6,0.1-0.9V82.5c0-2.9,2.3-5.2,5.2-5.2
		c1.5,0,2.6-1.2,2.6-2.6v-8C114,66.7,101.4,66.7,101.4,66.7z M99.8,103.8c0-0.9,0.7-1.7,1.7-1.7c0.9,0,1.7,0.7,1.7,1.7
		c0,0.9-0.7,1.7-1.7,1.7C100.5,105.5,99.8,104.7,99.8,103.8z"/>
</g>
<path id="XMLID_8_" class="st5" d="M114.7,116.1c0,5.3-1.8,3.8-6.2,3.8l0,0c-8.2,0.2-9.9-8.6-9.9-13.8v-3.2c0-7.1,7.1-16,11.5-16
	l0,0c4.4,0,4.6,4.3,4.6,9.5V116.1z"/>
<rect id="XMLID_7_" x="84.3" y="114.4" class="st6" width="34.2" height="156.2"/>
<path id="XMLID_6_" class="st5" d="M91.7,70.8c0.1,1.9-1.1,3.4-2.5,3.4l-15.6,0.1c-1.4,0-2.6-1.4-2.7-3.3l0,0
	c-0.1-1.9,1-3.4,2.5-3.4L89,67.5C90.5,67.5,91.7,68.9,91.7,70.8L91.7,70.8z"/>
<g>
	<path class="st5" d="M91.5,75.9H72.4c-1.4,0-2.5,1.6-2.5,3.4c0.1,1.9,1.2,3.3,2.7,3.3l22.6-0.1c0.5,0,0.9-0.2,1.3-0.5
		c-0.7,0-1.3,0-1.9,0C92.8,82.1,90.6,77.6,91.5,75.9z"/>
	<path class="st4" d="M97.7,79.2c-0.1-1.9-1.2-3.3-2.7-3.3h-3.6c-0.9,1.7,1.4,6.2,3.2,6.2c0.5,0,1.2,0,1.9,0
		C97.2,81.5,97.7,80.4,97.7,79.2z"/>
</g>
<path id="XMLID_5_" class="st5" d="M95.8,87.5c0.1,1.9-1.1,3.4-2.5,3.4L75.1,91c-1.4,0-2.6-1.4-2.7-3.3l0,0c-0.1-1.9,1-3.4,2.5-3.4
	l18.2-0.1C94.5,84.1,95.7,85.6,95.8,87.5L95.8,87.5z"/>
<path id="XMLID_3_" class="st5" d="M90.3,95.5c0.1,1.9-1.1,3.4-2.5,3.4l-10.3,0.2c-1.4,0-2.6-1.4-2.7-3.3l0,0
	c-0.1-1.9,1-3.4,2.5-3.4l10.4-0.2C89.1,92.1,90.3,93.6,90.3,95.5L90.3,95.5z"/>
<path id="XMLID_1_" class="st5" d="M114.7,113.8V85c0-0.6-0.2-1.3-0.5-1.8l-3.7-6c-0.6-1.1-1.8-1.7-3-1.7H95.8
	c-1.6,1.3,0.9,6.6,2.9,6.6c1.9,0,5.7,0.2,5.7,0.2l1.3,6L114.7,113.8z"/>
</svg>
