<svg xmlns="http://www.w3.org/2000/svg" viewBox="0 0 412.44 198.23"><title>Asset 1</title><g style="isolation:isolate"><g id="Layer_2" data-name="Layer 2"><g id="Layer_1-2" data-name="Layer 1"><path d="M245.46,56a11.48,11.48,0,0,0,.07-1.51,4.37,4.37,0,0,0-.38-1.83,3.16,3.16,0,0,0-1.06-1.29,6.19,6.19,0,0,0-3.49-.79,9.49,9.49,0,0,0-4.11.84,8.21,8.21,0,0,0-3,2.36q-2.41,3.06-2.42,8.32A12,12,0,0,0,233.55,70a8.44,8.44,0,0,0,6.87,3.1,10.53,10.53,0,0,0,6.64-1.87,10.86,10.86,0,0,0,1.31-1.21,1.59,1.59,0,0,1,.91,1,2.12,2.12,0,0,1,.11.73,2.66,2.66,0,0,1-.66,1.34,7.36,7.36,0,0,1-1.91,1.69,14.12,14.12,0,0,1-16.67-1.68,13.13,13.13,0,0,1-3.5-9.58,18,18,0,0,1,1.16-6.61,15.1,15.1,0,0,1,3.17-5,13.87,13.87,0,0,1,4.7-3.18,13.62,13.62,0,0,1,5.22-1.11,15.39,15.39,0,0,1,4.06.43,7.72,7.72,0,0,1,2.55,1.17,4.78,4.78,0,0,1,2,4A2.86,2.86,0,0,1,248.11,56a2.06,2.06,0,0,1-1,.27A3.55,3.55,0,0,1,245.46,56Z" style="fill:#231f20"/><path d="M266.37,74a8.84,8.84,0,0,1-6.51,2.71A6.5,6.5,0,0,1,255.14,75a5.91,5.91,0,0,1-1.79-4.46,5.53,5.53,0,0,1,3-5.11,15.66,15.66,0,0,1,7.69-1.56h2.31c0-.46,0-.92,0-1.37V61.12a6.32,6.32,0,0,0-.72-3.5,3.16,3.16,0,0,0-2.77-1.14c-3,0-4.52,1.07-4.61,3.22a7,7,0,0,0,0,.83,2,2,0,0,1-1.24.3,2.91,2.91,0,0,1-1.28-.21,2.27,2.27,0,0,1-.69-.55,2.7,2.7,0,0,1-.62-1.84,3.09,3.09,0,0,1,.65-2,4.92,4.92,0,0,1,1.78-1.38,11.47,11.47,0,0,1,5.18-1.09,13.09,13.09,0,0,1,4.49.58A6.31,6.31,0,0,1,269,55.92a6.52,6.52,0,0,1,1.57,4.57l-.19,8.89a12.31,12.31,0,0,0,.23,3.08,1.83,1.83,0,0,0,.55.87,1.37,1.37,0,0,0,.8.22,1.66,1.66,0,0,0,.76-.15l.52-.24c.17-.06.32,0,.45.22a1,1,0,0,1,.19.53,1.32,1.32,0,0,1-.19.6,2.66,2.66,0,0,1-.72.79,5.82,5.82,0,0,1-1.19.73c-2.44,1.16-4.11.89-5-.81A3.52,3.52,0,0,1,266.37,74Zm-.06-2.42c0-1.78,0-3.54,0-5.3a30.57,30.57,0,0,0-5.21.49,9.92,9.92,0,0,0-2,.66,3,3,0,0,0-1,.74,3.33,3.33,0,0,0-.57,2.12,2.81,2.81,0,0,0,1,2.26,4.34,4.34,0,0,0,2.86.84A7.39,7.39,0,0,0,266.31,71.59Z" style="fill:#231f20"/><path d="M286.25,76.46a5.53,5.53,0,0,0-1.18-.09h-5.89c-1.18,0-1.93-.21-2.27-.63a.87.87,0,0,1-.2-.56A1.82,1.82,0,0,1,277,74a3.09,3.09,0,0,0,1,.15.93.93,0,0,0,.85-.46,3.51,3.51,0,0,0,.27-1.72V59.88c0-1.16-.22-1.88-.65-2.16a1.24,1.24,0,0,0-.68-.17,1.4,1.4,0,0,0-.67.13,2.14,2.14,0,0,1-.41.18.32.32,0,0,1-.27,0,1.28,1.28,0,0,1-.22-.2A.91.91,0,0,1,276,57a1.2,1.2,0,0,1,.23-.68,4.29,4.29,0,0,1,.74-.84,7.62,7.62,0,0,1,1.18-.86,5.93,5.93,0,0,1,3-.87c1.14,0,1.82.76,2,2.28a12.06,12.06,0,0,1,.11,1.37,16.94,16.94,0,0,1,6-3.3,8.28,8.28,0,0,1,2.36-.35,8,8,0,0,1,2.26.32,4.71,4.71,0,0,1,1.87,1,5.88,5.88,0,0,1,1.68,4.63V72.31c0,1,.4,1.56,1.07,1.78a5.6,5.6,0,0,0,.68.17,4.37,4.37,0,0,1,.73.17,2.06,2.06,0,0,1,.51.23.92.92,0,0,1,.31.78,1.65,1.65,0,0,1-.29,1,5.53,5.53,0,0,0-1.18-.09h-5.88c-1.18,0-1.94-.21-2.27-.63a.82.82,0,0,1-.2-.56,1.82,1.82,0,0,1,.29-1.15,2.6,2.6,0,0,0,.82.15,1.76,1.76,0,0,0,.64-.1.83.83,0,0,0,.4-.34,4,4,0,0,0,.26-1.74V61.07c0-2.1-.62-3.27-1.86-3.52a8.07,8.07,0,0,0-1.43-.11,8,8,0,0,0-1.89.26,11.64,11.64,0,0,0-1.94.66,9.75,9.75,0,0,0-2.91,2v12c0,1,.39,1.56,1.05,1.78a7,7,0,0,0,.69.17,4.62,4.62,0,0,1,.73.17,2.35,2.35,0,0,1,.52.23.92.92,0,0,1,.31.78A1.65,1.65,0,0,1,286.25,76.46Z" style="fill:#231f20"/><path d="M316.5,74A8.81,8.81,0,0,1,310,76.72,6.52,6.52,0,0,1,305.27,75a5.9,5.9,0,0,1-1.78-4.46,5.51,5.51,0,0,1,3-5.11,15.63,15.63,0,0,1,7.69-1.56h2.3c0-.46,0-.92,0-1.37V61.12a6.32,6.32,0,0,0-.72-3.5A3.15,3.15,0,0,0,313,56.48q-4.49,0-4.61,3.22a4.33,4.33,0,0,0,0,.83,2,2,0,0,1-1.25.3,2.86,2.86,0,0,1-1.27-.21,2.05,2.05,0,0,1-.69-.55,2.7,2.7,0,0,1-.63-1.84,3.15,3.15,0,0,1,.65-2A4.92,4.92,0,0,1,307,54.88a11.51,11.51,0,0,1,5.19-1.09,13,13,0,0,1,4.48.58,6.23,6.23,0,0,1,2.39,1.55,6.47,6.47,0,0,1,1.57,4.57l-.18,8.89a11.82,11.82,0,0,0,.23,3.08,1.7,1.7,0,0,0,.55.87,1.34,1.34,0,0,0,.79.22,1.7,1.7,0,0,0,.77-.15l.51-.24c.18-.06.33,0,.46.22a1.1,1.1,0,0,1,.19.53,1.45,1.45,0,0,1-.19.6,2.66,2.66,0,0,1-.72.79,6.1,6.1,0,0,1-1.19.73c-2.45,1.16-4.11.89-5-.81A4,4,0,0,1,316.5,74Zm-.05-2.42c0-1.78,0-3.54,0-5.3a30.42,30.42,0,0,0-5.2.49,10.06,10.06,0,0,0-2,.66,3.22,3.22,0,0,0-1,.74,3.33,3.33,0,0,0-.57,2.12,2.79,2.79,0,0,0,1,2.26,4.3,4.3,0,0,0,2.86.84A7.41,7.41,0,0,0,316.45,71.59Z" style="fill:#231f20"/><path d="M341.41,74.05a9,9,0,0,1-6.28,2.69,8,8,0,0,1-6.16-2.6q-2.58-2.85-2.58-7.87A12.36,12.36,0,0,1,330,57.09a10.87,10.87,0,0,1,7.9-3.3,10.11,10.11,0,0,1,3.5.61V49.05a3.3,3.3,0,0,0-.26-1.65,1.58,1.58,0,0,0-1.38-.59,4.26,4.26,0,0,0-.8.08.86.86,0,0,1-.56,0,.61.61,0,0,1-.25-.23c-.24-.41.06-.93.93-1.56a6.72,6.72,0,0,1,4-1.5q2.08,0,2.37,2.28a13.35,13.35,0,0,1,.08,1.45v21.5a16.11,16.11,0,0,0,.22,3.55,1.72,1.72,0,0,0,.53.92,1.29,1.29,0,0,0,.76.21,1.84,1.84,0,0,0,.76-.14l.55-.24c.16,0,.3,0,.42.22a.89.89,0,0,1,.11,1,3.11,3.11,0,0,1-.83.89,6,6,0,0,1-1.23.74c-2,.91-3.48.92-4.46.06A3.16,3.16,0,0,1,341.41,74.05Zm-.05-15.89a6.76,6.76,0,0,0-4.21-1.39,5.8,5.8,0,0,0-4.66,2.13,9.34,9.34,0,0,0-1.92,6.21q0,6.24,3.54,7.7a5.72,5.72,0,0,0,2.15.45,7.62,7.62,0,0,0,1.74-.17,6.51,6.51,0,0,0,1.31-.45,7.3,7.3,0,0,0,2.05-1.35Z" style="fill:#231f20"/><path d="M355,76.37c-1.89,0-2.84-.44-2.84-1.3a1.63,1.63,0,0,1,.3-1,2.49,2.49,0,0,0,.81.15c1.14,0,1.7-.73,1.68-2.18V59.59a3.3,3.3,0,0,0-.36-1.81,1.47,1.47,0,0,0-1.29-.51,4.3,4.3,0,0,0-1.23.17c-.22,0-.38-.15-.48-.52a1,1,0,0,1,.15-.88,3.92,3.92,0,0,1,.85-.8,8,8,0,0,1,1.29-.73,6.14,6.14,0,0,1,2.52-.72,3,3,0,0,1,1.51.3,1.94,1.94,0,0,1,.74.79,6.29,6.29,0,0,1,.41,2.63v14.8c0,1,.38,1.57,1,1.78a5.16,5.16,0,0,0,.68.17,4.62,4.62,0,0,1,.73.17,2.47,2.47,0,0,1,.51.23.94.94,0,0,1,.31.78,1.61,1.61,0,0,1-.28,1,5.66,5.66,0,0,0-1.18-.09Zm1.13-26a3.32,3.32,0,0,1-1.16-.2,2.73,2.73,0,0,1-.91-.56,3,3,0,0,1,.15-4.23,3.1,3.1,0,0,1,2.21-.87,2.8,2.8,0,0,1,2.07.78,2.88,2.88,0,0,1,.77,2.11,2.83,2.83,0,0,1-.92,2.13A3.12,3.12,0,0,1,356.17,50.35Z" style="fill:#231f20"/><path d="M378.13,74a8.84,8.84,0,0,1-6.51,2.71A6.5,6.5,0,0,1,366.9,75a5.87,5.87,0,0,1-1.79-4.46,5.53,5.53,0,0,1,3-5.11,15.63,15.63,0,0,1,7.69-1.56h2.31c0-.46,0-.92,0-1.37V61.12a6.34,6.34,0,0,0-.71-3.5,3.18,3.18,0,0,0-2.77-1.14c-3,0-4.52,1.07-4.61,3.22a5.34,5.34,0,0,0,0,.83,2,2,0,0,1-1.25.3,2.88,2.88,0,0,1-1.27-.21,2.27,2.27,0,0,1-.69-.55,2.7,2.7,0,0,1-.63-1.84,3.1,3.1,0,0,1,.66-2,4.83,4.83,0,0,1,1.78-1.38,11.47,11.47,0,0,1,5.18-1.09,13.09,13.09,0,0,1,4.49.58,6.31,6.31,0,0,1,2.39,1.55,6.51,6.51,0,0,1,1.56,4.57l-.18,8.89a12.31,12.31,0,0,0,.23,3.08,1.76,1.76,0,0,0,.55.87,1.37,1.37,0,0,0,.8.22,1.69,1.69,0,0,0,.76-.15l.52-.24c.17-.06.32,0,.45.22a1,1,0,0,1,.19.53,1.32,1.32,0,0,1-.19.6,2.66,2.66,0,0,1-.72.79,6.1,6.1,0,0,1-1.19.73c-2.45,1.16-4.11.89-5-.81A3.74,3.74,0,0,1,378.13,74Zm-.06-2.42c0-1.78,0-3.54,0-5.3a30.45,30.45,0,0,0-5.21.49,9.69,9.69,0,0,0-2,.66,3,3,0,0,0-1,.74,3.33,3.33,0,0,0-.57,2.12,2.81,2.81,0,0,0,1,2.26,4.34,4.34,0,0,0,2.86.84A7.39,7.39,0,0,0,378.07,71.59Z" style="fill:#231f20"/><path d="M398,76.46a5.47,5.47,0,0,0-1.18-.09h-5.88c-1.18,0-1.94-.21-2.27-.63a.87.87,0,0,1-.2-.56,1.82,1.82,0,0,1,.3-1.15,3.09,3.09,0,0,0,1,.15.93.93,0,0,0,.85-.46,3.51,3.51,0,0,0,.27-1.72V59.88c0-1.16-.22-1.88-.65-2.16a1.24,1.24,0,0,0-.68-.17,1.4,1.4,0,0,0-.67.13,2.44,2.44,0,0,1-.41.18.32.32,0,0,1-.27,0,1,1,0,0,1-.22-.2.92.92,0,0,1-.28-.62,1.22,1.22,0,0,1,.24-.68,4.29,4.29,0,0,1,.74-.84,7.62,7.62,0,0,1,1.18-.86,5.9,5.9,0,0,1,3-.87c1.14,0,1.82.76,2,2.28a12.06,12.06,0,0,1,.11,1.37,16.94,16.94,0,0,1,6-3.3,8.26,8.26,0,0,1,2.35-.35,8,8,0,0,1,2.27.32,4.78,4.78,0,0,1,1.87,1,5.88,5.88,0,0,1,1.68,4.63V72.31c0,1,.39,1.56,1.07,1.78a5.16,5.16,0,0,0,.68.17,4.37,4.37,0,0,1,.73.17,2.47,2.47,0,0,1,.51.23.92.92,0,0,1,.31.78,1.65,1.65,0,0,1-.29,1,5.53,5.53,0,0,0-1.18-.09h-5.89c-1.18,0-1.93-.21-2.26-.63a.83.83,0,0,1-.21-.56,1.82,1.82,0,0,1,.3-1.15,2.55,2.55,0,0,0,.82.15,1.67,1.67,0,0,0,.63-.1.81.81,0,0,0,.41-.34A4,4,0,0,0,405,72V61.07c0-2.1-.62-3.27-1.86-3.52a8.07,8.07,0,0,0-1.43-.11,7.92,7.92,0,0,0-1.89.26,11.34,11.34,0,0,0-1.94.66,9.62,9.62,0,0,0-2.91,2v12c0,1,.38,1.56,1.05,1.78a7,7,0,0,0,.69.17,4.89,4.89,0,0,1,.73.17,2.06,2.06,0,0,1,.51.23.92.92,0,0,1,.32.78A1.59,1.59,0,0,1,398,76.46Z" style="fill:#231f20"/><path d="M245.46,101.51a11.65,11.65,0,0,0,.07-1.52,4.33,4.33,0,0,0-.38-1.82,3.16,3.16,0,0,0-1.06-1.29,6.19,6.19,0,0,0-3.49-.8,9.49,9.49,0,0,0-4.11.84,8.23,8.23,0,0,0-3,2.37c-1.61,2-2.42,4.81-2.42,8.31a12.07,12.07,0,0,0,2.46,8,8.43,8.43,0,0,0,6.87,3.09,10.47,10.47,0,0,0,6.64-1.87,10,10,0,0,0,1.31-1.2,1.56,1.56,0,0,1,.91,1,2.08,2.08,0,0,1,.11.73,2.64,2.64,0,0,1-.66,1.33,7.38,7.38,0,0,1-1.91,1.7,14.15,14.15,0,0,1-16.67-1.69,13.09,13.09,0,0,1-3.5-9.57,18,18,0,0,1,1.16-6.62,15.1,15.1,0,0,1,3.17-5,14,14,0,0,1,4.7-3.17,13.62,13.62,0,0,1,5.22-1.11,15.88,15.88,0,0,1,4.06.42,8.14,8.14,0,0,1,2.55,1.17,4.79,4.79,0,0,1,2,4,2.86,2.86,0,0,1-1.42,2.72,2,2,0,0,1-1,.28A3.69,3.69,0,0,1,245.46,101.51Z" style="fill:#231f20"/><path d="M266.37,119.53a8.87,8.87,0,0,1-6.51,2.7,6.49,6.49,0,0,1-4.72-1.7,5.94,5.94,0,0,1-1.79-4.46,5.53,5.53,0,0,1,3-5.12,15.78,15.78,0,0,1,7.69-1.55h2.31c0-.47,0-.93,0-1.37v-1.39a6.3,6.3,0,0,0-.72-3.5A3.14,3.14,0,0,0,262.9,102c-3,0-4.52,1.07-4.61,3.22a7.15,7.15,0,0,0,0,.84,2.07,2.07,0,0,1-1.24.29,3.09,3.09,0,0,1-1.28-.2,2.3,2.3,0,0,1-.69-.56,2.68,2.68,0,0,1-.62-1.84,3.07,3.07,0,0,1,.65-2,4.92,4.92,0,0,1,1.78-1.38,11.47,11.47,0,0,1,5.18-1.1,13,13,0,0,1,4.49.59,6.3,6.3,0,0,1,2.39,1.54,6.54,6.54,0,0,1,1.57,4.58l-.19,8.89a12.21,12.21,0,0,0,.23,3.07,1.74,1.74,0,0,0,.55.87,1.37,1.37,0,0,0,.8.23,1.66,1.66,0,0,0,.76-.15l.52-.24q.26-.09.45.21a1,1,0,0,1,.19.54,1.39,1.39,0,0,1-.19.6,2.66,2.66,0,0,1-.72.79,6.3,6.3,0,0,1-1.19.73c-2.44,1.16-4.11.89-5-.82A3.39,3.39,0,0,1,266.37,119.53Zm-.06-2.43c0-1.77,0-3.54,0-5.29a30.57,30.57,0,0,0-5.21.49,10,10,0,0,0-2,.65,2.87,2.87,0,0,0-1,.75,3.29,3.29,0,0,0-.57,2.12,2.83,2.83,0,0,0,1,2.26,4.34,4.34,0,0,0,2.86.84A7.4,7.4,0,0,0,266.31,117.1Z" style="fill:#231f20"/><path d="M286.25,122a5.53,5.53,0,0,0-1.18-.09h-5.89c-1.18,0-1.93-.21-2.27-.63a.85.85,0,0,1-.2-.55,1.82,1.82,0,0,1,.3-1.15,3.09,3.09,0,0,0,1,.15.93.93,0,0,0,.85-.47,3.51,3.51,0,0,0,.27-1.72V105.4c0-1.16-.22-1.88-.65-2.17a1.24,1.24,0,0,0-.68-.17,1.53,1.53,0,0,0-.67.13,3.33,3.33,0,0,1-.41.19.32.32,0,0,1-.27,0,1.18,1.18,0,0,1-.22-.19.93.93,0,0,1-.27-.63,1.23,1.23,0,0,1,.23-.68,4.28,4.28,0,0,1,.74-.83,6.5,6.5,0,0,1,1.18-.86,5.85,5.85,0,0,1,3-.88c1.14,0,1.82.76,2,2.28a12.25,12.25,0,0,1,.11,1.37,16.75,16.75,0,0,1,6-3.29,8,8,0,0,1,4.62,0,4.73,4.73,0,0,1,1.87,1,5.87,5.87,0,0,1,1.68,4.63v12.56c0,1,.4,1.55,1.07,1.77a4.2,4.2,0,0,0,.68.17,5.57,5.57,0,0,1,.73.18,1.52,1.52,0,0,1,.51.23.92.92,0,0,1,.31.78,1.6,1.6,0,0,1-.29,1,5.53,5.53,0,0,0-1.18-.09h-5.88c-1.18,0-1.94-.21-2.27-.63a.8.8,0,0,1-.2-.55,1.82,1.82,0,0,1,.29-1.15,2.6,2.6,0,0,0,.82.15,1.75,1.75,0,0,0,.64-.11.78.78,0,0,0,.4-.34,3.93,3.93,0,0,0,.26-1.74V106.58c0-2.1-.62-3.27-1.86-3.52A8.07,8.07,0,0,0,290,103a8,8,0,0,0-1.89.26,12.65,12.65,0,0,0-1.94.67,9.72,9.72,0,0,0-2.91,2v12q.06,1.44,1.05,1.77a5,5,0,0,0,.69.17,6,6,0,0,1,.73.18,1.69,1.69,0,0,1,.52.23.92.92,0,0,1,.31.78A1.6,1.6,0,0,1,286.25,122Z" style="fill:#231f20"/><path d="M313.39,122a5.53,5.53,0,0,0-1.18-.09h-5.88c-1.19,0-1.94-.21-2.27-.63a.81.81,0,0,1-.21-.55,1.82,1.82,0,0,1,.3-1.15,3.09,3.09,0,0,0,1,.15.93.93,0,0,0,.85-.47,3.51,3.51,0,0,0,.27-1.72V105.4c0-1.16-.22-1.88-.65-2.17a1.24,1.24,0,0,0-.68-.17,1.53,1.53,0,0,0-.67.13,3.33,3.33,0,0,1-.41.19.29.29,0,0,1-.26,0,1,1,0,0,1-.23-.19.93.93,0,0,1-.27-.63,1.23,1.23,0,0,1,.23-.68,4.07,4.07,0,0,1,.75-.83,5.88,5.88,0,0,1,1.18-.86,5.78,5.78,0,0,1,3-.88c1.15,0,1.82.76,2,2.28a12.25,12.25,0,0,1,.11,1.37,16.71,16.71,0,0,1,6-3.29,7.84,7.84,0,0,1,2.35-.36,8,8,0,0,1,2.26.32,4.84,4.84,0,0,1,1.88,1,5.9,5.9,0,0,1,1.67,4.63v12.56c0,1,.4,1.55,1.07,1.77a4.09,4.09,0,0,0,.69.17,5.4,5.4,0,0,1,.72.18,1.52,1.52,0,0,1,.51.23.92.92,0,0,1,.31.78,1.54,1.54,0,0,1-.29,1,5.53,5.53,0,0,0-1.18-.09h-5.88c-1.18,0-1.94-.21-2.27-.63a.8.8,0,0,1-.2-.55,1.82,1.82,0,0,1,.29-1.15,2.6,2.6,0,0,0,.82.15,1.71,1.71,0,0,0,.64-.11.74.74,0,0,0,.4-.34,3.78,3.78,0,0,0,.26-1.74V106.58c0-2.1-.62-3.27-1.86-3.52a8.07,8.07,0,0,0-1.43-.11,8,8,0,0,0-1.89.26,12.65,12.65,0,0,0-1.94.67,9.72,9.72,0,0,0-2.91,2v12q.06,1.44,1.05,1.77a5,5,0,0,0,.69.17,6,6,0,0,1,.73.18,1.58,1.58,0,0,1,.52.23.92.92,0,0,1,.31.78A1.6,1.6,0,0,1,313.39,122Z" style="fill:#231f20"/><path d="M343.65,119.53a8.87,8.87,0,0,1-6.51,2.7,6.49,6.49,0,0,1-4.72-1.7,5.9,5.9,0,0,1-1.79-4.46,5.53,5.53,0,0,1,3-5.12,15.75,15.75,0,0,1,7.69-1.55h2.31c0-.47,0-.93,0-1.37v-1.39a6.4,6.4,0,0,0-.71-3.5,3.16,3.16,0,0,0-2.77-1.15c-3,0-4.52,1.07-4.61,3.22a5.48,5.48,0,0,0,0,.84,2.09,2.09,0,0,1-1.25.29,3,3,0,0,1-1.27-.2,2.3,2.3,0,0,1-.69-.56,2.69,2.69,0,0,1-.63-1.84,3.07,3.07,0,0,1,.66-2,4.83,4.83,0,0,1,1.78-1.38,11.47,11.47,0,0,1,5.18-1.1,13,13,0,0,1,4.49.59,6.3,6.3,0,0,1,2.39,1.54,6.54,6.54,0,0,1,1.56,4.58l-.18,8.89a12.21,12.21,0,0,0,.23,3.07,1.67,1.67,0,0,0,.55.87,1.37,1.37,0,0,0,.8.23,1.69,1.69,0,0,0,.76-.15l.52-.24q.25-.09.45.21a1,1,0,0,1,.19.54,1.39,1.39,0,0,1-.19.6,2.66,2.66,0,0,1-.72.79,6.63,6.63,0,0,1-1.19.73c-2.45,1.16-4.11.89-5-.82A3.6,3.6,0,0,1,343.65,119.53Zm-.06-2.43c0-1.77,0-3.54,0-5.29a30.45,30.45,0,0,0-5.21.49,9.81,9.81,0,0,0-2,.65,2.87,2.87,0,0,0-1,.75,3.29,3.29,0,0,0-.57,2.12,2.83,2.83,0,0,0,1,2.26,4.34,4.34,0,0,0,2.86.84A7.4,7.4,0,0,0,343.59,117.1Z" style="fill:#231f20"/><path d="M359.65,101.9a8.81,8.81,0,0,1,6.18-2.6,7.88,7.88,0,0,1,6.12,2.62q2.58,2.81,2.58,7.85A12.4,12.4,0,0,1,371,119a10.9,10.9,0,0,1-7.89,3.27,14.13,14.13,0,0,1-5.92-1.35,7,7,0,0,1-1.64-1V94.56a3.31,3.31,0,0,0-.26-1.64,1.49,1.49,0,0,0-1.36-.6,3.58,3.58,0,0,0-.83.09.94.94,0,0,1-.54,0,1,1,0,0,1-.26-.24c-.25-.39,0-.91.93-1.55a6.72,6.72,0,0,1,4-1.5c1.4,0,2.18.76,2.36,2.28a13.23,13.23,0,0,1,.07,1.44Zm0,2.94v13a6.3,6.3,0,0,0,4.15,1.44,5.79,5.79,0,0,0,4.65-2.13,9.37,9.37,0,0,0,1.89-6.2c0-2.77-.55-4.85-1.67-6.25a5,5,0,0,0-4.18-1.9A6.84,6.84,0,0,0,359.65,104.84Z" style="fill:#231f20"/><path d="M381.26,121.88c-1.89,0-2.84-.43-2.84-1.3a1.6,1.6,0,0,1,.3-1,2.49,2.49,0,0,0,.81.15q1.71,0,1.68-2.19V105.1a3.37,3.37,0,0,0-.36-1.8,1.47,1.47,0,0,0-1.29-.51,4.31,4.31,0,0,0-1.23.16c-.22,0-.38-.15-.48-.52a1,1,0,0,1,.15-.88,3.91,3.91,0,0,1,.85-.79,7.32,7.32,0,0,1,1.29-.73,6.18,6.18,0,0,1,2.52-.73,2.91,2.91,0,0,1,1.5.3,1.93,1.93,0,0,1,.75.8,6.26,6.26,0,0,1,.41,2.63v14.8q0,1.45,1.05,1.77a4,4,0,0,0,.68.17,6,6,0,0,1,.73.18,1.73,1.73,0,0,1,.51.23.94.94,0,0,1,.31.78,1.56,1.56,0,0,1-.28,1,5.66,5.66,0,0,0-1.18-.09Zm1.13-26a3.32,3.32,0,0,1-1.16-.19,2.6,2.6,0,0,1-.91-.57,3,3,0,0,1,.15-4.22,3.1,3.1,0,0,1,2.21-.87,2.8,2.8,0,0,1,2.07.78,2.86,2.86,0,0,1,.77,2.11A2.83,2.83,0,0,1,384.6,95,3.16,3.16,0,0,1,382.39,95.86Z" style="fill:#231f20"/><path d="M404,105.88a3.67,3.67,0,0,0-2.36-3.78,4.41,4.41,0,0,0-1.63-.3,8.29,8.29,0,0,0-1.63.15,4.61,4.61,0,0,0-1.31.47,2.18,2.18,0,0,0-1.29,2,2.82,2.82,0,0,0,1.06,2.19,21.23,21.23,0,0,0,4.39,2.42,16.9,16.9,0,0,1,4.95,3.13,5.27,5.27,0,0,1-.28,8.08,10,10,0,0,1-6.58,2c-3.43,0-5.81-.73-7.12-2.2a2.87,2.87,0,0,1-.68-2c0-1.94.47-3.07,1.42-3.39a2,2,0,0,1,.66-.11c.58,0,.89.18.94.53q.4,4.64,5.16,4.63c1.91,0,3.18-.53,3.82-1.61a2.35,2.35,0,0,0,.31-1.26,2.13,2.13,0,0,0-.47-1.35,4.77,4.77,0,0,0-1.3-1.14,15.48,15.48,0,0,0-2-1l-2.45-1.11q-5.64-2.58-5.64-6.89a5.11,5.11,0,0,1,2.45-4.44,10.46,10.46,0,0,1,6-1.58c3.32,0,5.38.73,6.2,2.17a2.54,2.54,0,0,1,.31,1.22,8.51,8.51,0,0,1-.08,1.2,7.32,7.32,0,0,1-.18,1,3.23,3.23,0,0,1-.42,1.15,2.27,2.27,0,0,1-1.38.35C404.26,106.34,404,106.19,404,105.88Z" style="fill:#231f20"/><path d="M244,165.21a7.3,7.3,0,0,0,1.16.13,3.94,3.94,0,0,0,.77-.08,2.35,2.35,0,0,0,.67-.27,1.4,1.4,0,0,0,.66-1.28,3.59,3.59,0,0,0-.44-1.61l-1.73-4.32H233.44L231.37,163a3.2,3.2,0,0,0-.29,1.05.86.86,0,0,0,.1.48.75.75,0,0,0,.31.27,2,2,0,0,0,.53.19l.75.2a7.78,7.78,0,0,1,1.57.37,1.12,1.12,0,0,1,.72,1,1.3,1.3,0,0,1-.28.85,2.59,2.59,0,0,0-.64-.09h-7.51c-1.63,0-2.45-.45-2.45-1.35a1.69,1.69,0,0,1,.28-1,4.63,4.63,0,0,0,1.15.18,1.86,1.86,0,0,0,.79-.15,1.75,1.75,0,0,0,.62-.5,9.22,9.22,0,0,0,1.16-2.44L237.29,140c.26-.59,1-1,2.19-1.22a5.22,5.22,0,0,1,1.06-.1c.75,0,1.21.21,1.38.61l1.84,4.63q5.33,12.65,6.16,14.75l1.66,4.37a5.68,5.68,0,0,0,.83,1.76,1.88,1.88,0,0,0,.72.46,5.54,5.54,0,0,0,.8.21,4,4,0,0,1,.73.22,1,1,0,0,1,.7,1,1.3,1.3,0,0,1-.28.85,2.5,2.5,0,0,0-.62-.09h-8.8a3.81,3.81,0,0,1-1.46-.23.77.77,0,0,1-.53-.72A1.81,1.81,0,0,1,244,165.21Zm0-10.06-4.83-12-4.74,12Z" style="fill:#231f20"/><path d="M260.26,167.4c-1.88,0-2.82-.44-2.82-1.3a1.7,1.7,0,0,1,.28-1,2.61,2.61,0,0,0,.83.15c1.07,0,1.62-.65,1.66-1.94V140.08a3.3,3.3,0,0,0-.26-1.65,1.57,1.57,0,0,0-1.36-.59,4.3,4.3,0,0,0-.82.08.86.86,0,0,1-.56,0,.68.68,0,0,1-.25-.23q-.36-.62.93-1.56a6.72,6.72,0,0,1,4-1.5,2.21,2.21,0,0,1,2.36,2.28,13.42,13.42,0,0,1,.07,1.45v25c0,1,.39,1.56,1.05,1.78a7,7,0,0,0,.69.17,6.07,6.07,0,0,1,.73.17,2.15,2.15,0,0,1,.52.23.92.92,0,0,1,.31.78,1.65,1.65,0,0,1-.29,1,5.53,5.53,0,0,0-1.18-.09Z" style="fill:#231f20"/><path d="M273.45,167.4c-1.88,0-2.82-.44-2.82-1.3a1.7,1.7,0,0,1,.27-1,2.66,2.66,0,0,0,.83.15c1.07,0,1.63-.65,1.66-1.94V140.08a3.19,3.19,0,0,0-.26-1.65,1.56,1.56,0,0,0-1.36-.59,4.38,4.38,0,0,0-.82.08.82.82,0,0,1-.55,0,.56.56,0,0,1-.25-.23c-.25-.41.06-.93.92-1.56a6.74,6.74,0,0,1,4-1.5,2.21,2.21,0,0,1,2.36,2.28,13.42,13.42,0,0,1,.07,1.45v25c0,1,.39,1.56,1.06,1.78a5.8,5.8,0,0,0,.69.17,7.13,7.13,0,0,1,.73.17,2.06,2.06,0,0,1,.51.23.92.92,0,0,1,.32.78,1.59,1.59,0,0,1-.3,1,5.53,5.53,0,0,0-1.18-.09Z" style="fill:#231f20"/><path d="M286.58,167.4c-1.9,0-2.84-.44-2.84-1.3a1.69,1.69,0,0,1,.29-1,2.59,2.59,0,0,0,.81.15c1.15,0,1.71-.73,1.68-2.18V150.62a3.3,3.3,0,0,0-.36-1.81,1.45,1.45,0,0,0-1.28-.51,4.25,4.25,0,0,0-1.23.17c-.23,0-.39-.15-.48-.52a1,1,0,0,1,.14-.88,4,4,0,0,1,.86-.8,8.35,8.35,0,0,1,1.28-.73,6.18,6.18,0,0,1,2.53-.72,2.91,2.91,0,0,1,1.5.3,1.9,1.9,0,0,1,.75.79,6.32,6.32,0,0,1,.4,2.63v14.8c0,1,.39,1.57,1.06,1.78a5.16,5.16,0,0,0,.68.17,6.07,6.07,0,0,1,.73.17,2.15,2.15,0,0,1,.5.23.92.92,0,0,1,.32.78,1.63,1.63,0,0,1-.28,1,5.66,5.66,0,0,0-1.18-.09Zm1.12-26a3.27,3.27,0,0,1-1.15-.2,2.73,2.73,0,0,1-.91-.56,3,3,0,0,1,.15-4.23,3.1,3.1,0,0,1,2.21-.87,2.76,2.76,0,0,1,2.06.78,2.85,2.85,0,0,1,.78,2.11,2.8,2.8,0,0,1-.93,2.13A3.11,3.11,0,0,1,287.7,141.38Z" style="fill:#231f20"/><path d="M309.66,165a8.81,8.81,0,0,1-6.51,2.71,6.55,6.55,0,0,1-4.72-1.7,5.94,5.94,0,0,1-1.79-4.47,5.52,5.52,0,0,1,3-5.11,15.63,15.63,0,0,1,7.69-1.56h2.3c0-.46,0-.92,0-1.37v-1.39a6.32,6.32,0,0,0-.72-3.5,3.15,3.15,0,0,0-2.76-1.14q-4.49,0-4.61,3.22a5.51,5.51,0,0,0,0,.83,2,2,0,0,1-1.24.3,2.86,2.86,0,0,1-1.27-.21,2.05,2.05,0,0,1-.69-.55,2.7,2.7,0,0,1-.63-1.84,3.15,3.15,0,0,1,.65-2,4.92,4.92,0,0,1,1.78-1.38,11.5,11.5,0,0,1,5.18-1.09,13,13,0,0,1,4.49.58,6.23,6.23,0,0,1,2.39,1.55,6.47,6.47,0,0,1,1.57,4.57l-.18,8.89a11.82,11.82,0,0,0,.23,3.08,1.7,1.7,0,0,0,.55.87,1.34,1.34,0,0,0,.79.22,1.7,1.7,0,0,0,.77-.15l.51-.24c.17-.06.33,0,.46.22a1.1,1.1,0,0,1,.19.53,1.54,1.54,0,0,1-.19.61,2.77,2.77,0,0,1-.72.78,6.1,6.1,0,0,1-1.19.73q-3.68,1.74-5-.81A3.91,3.91,0,0,1,309.66,165Zm-.05-2.42c0-1.78,0-3.54,0-5.3a30.7,30.7,0,0,0-5.21.49,10.15,10.15,0,0,0-2,.66,3.22,3.22,0,0,0-1,.74,3.33,3.33,0,0,0-.57,2.12,2.79,2.79,0,0,0,1,2.26,4.3,4.3,0,0,0,2.86.84A7.43,7.43,0,0,0,309.61,162.62Z" style="fill:#231f20"/><path d="M329.54,167.49a5.53,5.53,0,0,0-1.18-.09h-5.88c-1.18,0-1.94-.21-2.27-.63a.82.82,0,0,1-.2-.56,1.82,1.82,0,0,1,.29-1.15,3.15,3.15,0,0,0,1,.15.92.92,0,0,0,.84-.46,3.51,3.51,0,0,0,.27-1.72V150.91c0-1.16-.21-1.88-.64-2.16a1.28,1.28,0,0,0-.69-.17,1.43,1.43,0,0,0-.67.13,2.1,2.1,0,0,1-.4.18.32.32,0,0,1-.27,0,.82.82,0,0,1-.22-.2.88.88,0,0,1-.28-.62,1.29,1.29,0,0,1,.23-.68,4.08,4.08,0,0,1,.75-.84,7.17,7.17,0,0,1,1.18-.86,5.87,5.87,0,0,1,3-.87c1.15,0,1.82.76,2,2.28a12.06,12.06,0,0,1,.11,1.37,17.07,17.07,0,0,1,6-3.3,8.21,8.21,0,0,1,2.35-.35,8.09,8.09,0,0,1,2.27.32,4.78,4.78,0,0,1,1.87,1,5.88,5.88,0,0,1,1.68,4.63v12.56c0,1,.39,1.56,1.07,1.78a5.16,5.16,0,0,0,.68.17,6.07,6.07,0,0,1,.73.17,2.15,2.15,0,0,1,.5.23.92.92,0,0,1,.32.78,1.59,1.59,0,0,1-.3,1,5.47,5.47,0,0,0-1.18-.09h-5.88c-1.18,0-1.94-.21-2.27-.63a.87.87,0,0,1-.2-.56,1.89,1.89,0,0,1,.29-1.15,2.6,2.6,0,0,0,.82.15,1.69,1.69,0,0,0,.64-.1.85.85,0,0,0,.41-.34,4,4,0,0,0,.25-1.74V152.1c0-2.1-.62-3.27-1.86-3.52a8.07,8.07,0,0,0-1.43-.11,8,8,0,0,0-1.89.26,11.23,11.23,0,0,0-1.93.66,9.67,9.67,0,0,0-2.92,2v12c0,1,.39,1.56,1.05,1.78a6.57,6.57,0,0,0,.7.17,6.36,6.36,0,0,1,.72.17,2,2,0,0,1,.52.23.92.92,0,0,1,.31.78A1.59,1.59,0,0,1,329.54,167.49Z" style="fill:#231f20"/><path d="M360,151.58l0-.67a7.4,7.4,0,0,0-.17-1.19,2.07,2.07,0,0,0-1.06-1.38,4.78,4.78,0,0,0-4.7.16,5.23,5.23,0,0,0-1.72,1.86,12,12,0,0,0-1.26,5.94,9.14,9.14,0,0,0,1.7,5.73,5.49,5.49,0,0,0,4.57,2.26,9.42,9.42,0,0,0,4.94-1.43,7.31,7.31,0,0,0,.89-.61c.12,0,.26.1.42.29a1.53,1.53,0,0,1,.46.87,1.47,1.47,0,0,1-.25.74,6,6,0,0,1-.75.89,11.14,11.14,0,0,1-1.17,1,10.18,10.18,0,0,1-1.53.87,9.45,9.45,0,0,1-4,.89,10.13,10.13,0,0,1-3.79-.7,8.28,8.28,0,0,1-3-2,11,11,0,0,1-2.73-7.89,12.4,12.4,0,0,1,3.47-9.17,10,10,0,0,1,7.28-3.13,8.17,8.17,0,0,1,4.52,1.17,3.68,3.68,0,0,1,1.9,3.22,2.44,2.44,0,0,1-2.41,2.63A4,4,0,0,1,360,151.58Z" style="fill:#231f20"/><path d="M367.67,157.43a15.49,15.49,0,0,1,.46-4,12.87,12.87,0,0,1,1.25-3.12,10.66,10.66,0,0,1,1.84-2.42,11.19,11.19,0,0,1,2.28-1.72,9.5,9.5,0,0,1,4.72-1.37,7.38,7.38,0,0,1,3.72.82,6.79,6.79,0,0,1,2.29,2.2,13,13,0,0,1,1.64,6.94q0,1.62-1.35,1.65l-12.87.28q.12,4,2.07,5.95a5.91,5.91,0,0,0,4.3,1.63,11.25,11.25,0,0,0,6.38-1.65c.11,0,.24.09.4.28a1.6,1.6,0,0,1,.46,1c0,.59-.74,1.35-2.21,2.28a11,11,0,0,1-5.94,1.59,8.85,8.85,0,0,1-6.95-2.83A10.82,10.82,0,0,1,367.67,157.43Zm4.09-3.11q5.31-.25,9.72-.68c.14-3.93-1.22-5.89-4.06-5.89a4.79,4.79,0,0,0-3.89,1.85A9.24,9.24,0,0,0,371.76,154.32Z" style="fill:#231f20"/><path d="M96.4,0c24.24,73.55,1,94,.81,141.87,0,13.51,5.71,16.57,8.55,42.75.14,1.27-8.44,5.56-9.93,6.19-.07,0-1.37-5.83-1.5-6.37-2.72-11.87-8.9-22.58-15-33-5.67-9.7-11.45-19.51-14.53-30.4a61.14,61.14,0,0,1-2.34-16.58C62.47,69.23,74.47,30.52,96.4,0Z" style="fill:#52a65d;mix-blend-mode:screen"/><path d="M11.93,80.48a132.69,132.69,0,0,1,63.93,36A132.61,132.61,0,0,1,110.64,181,131.67,131.67,0,0,1,11.93,80.48Z" style="fill:#52a65d;mix-blend-mode:screen"/><path d="M40,195.57a84.81,84.81,0,0,1,80.79-21.9A84.89,84.89,0,0,1,40,195.57Z" style="fill:#52a65d;mix-blend-mode:screen"/><path d="M0,165.82a157,157,0,0,1,154.89,1.41A157,157,0,0,1,0,165.82Z" style="fill:#52a65d;mix-blend-mode:screen"/><path d="M95.83,190.81s4-1.5,7-2.84a16.39,16.39,0,0,1,3.08-1c3.12-.68,6.36-.27,9.53.15l41,5.38-4.35-15.62c-1.13-4,2.24-7.8,5.29-10.52l47-41.94L194,119.11a5.94,5.94,0,0,1-2.57-2c-.88-1.44-.5-3.33-.09-5l8.71-35.23-26.69,6.43c-2.14.52-4.67.94-6.29-.63a7.3,7.3,0,0,1-1.63-3.44q-1.8-6.56-3.4-13.17L139.52,94c-1.47,1.81-3.44,3.82-5.64,3.26-3-.77-3.17-5.22-2.61-8.46q5-28.93,9.94-57.88c-3.72,1.16-6.7,4-10,6.11s-7.71,3.33-11,1.13c-1.92-1.3-3-3.54-4.1-5.68C110.79,21.64,101.71,10.82,96.4,0" style="fill:#ed2024;fill-rule:evenodd"/></g></g></g></svg>