<svg xmlns="http://www.w3.org/2000/svg" viewBox="0 0 518.97 238.21"><title>Asset 4</title><g id="Layer_2" data-name="Layer 2"><g id="ATB_Draft_Logos" data-name="ATB Draft Logos"><path d="M60.49,207.55l4.14-4.19A4.54,4.54,0,0,0,58.17,197L54,201.15a4.55,4.55,0,1,0,6.46,6.4Z" style="fill:#0877b0"/><path d="M93.93,160.85l-24.5,24.74a4.55,4.55,0,0,0,6.46,6.4l3.85-3.89v.08l10.14-10.25a2.72,2.72,0,1,1,3.87,3.83l-12.91,13L60.87,215a7.08,7.08,0,1,0,10.06,10L96.12,199.5a4.54,4.54,0,0,1,5.69,7L97,211.33,86.29,222.19a7.08,7.08,0,0,0,10.07,10l26.75-27,7.85-7.92" style="fill:#0877b0"/><path d="M1.63,199.09l29.52-29.81a4.54,4.54,0,0,1,6.46,6.39L8.09,205.49a4.55,4.55,0,0,1-6.46-6.4Z" style="fill:#0877b0"/><path d="M73.37,139.56,48.88,164.3a4.55,4.55,0,1,1-6.46-6.4L46.26,154h-.07l10.14-10.25a2.72,2.72,0,1,0-3.86-3.83L39.56,153l-20,20.18a7.08,7.08,0,1,1-10.06-10L34.7,137.76a4.55,4.55,0,0,0-7.07-5.63l-4.76,4.81L12.11,147.81a7.08,7.08,0,0,1-10.06-10l26.75-27,7.85-7.93" style="fill:#0877b0"/></g><g id="ATB_Type" data-name="ATB Type"><path d="M181.24,20a6,6,0,0,0-6.5,5.48" style="fill:#f26b6d"/><path d="M84.73,170.29l23,23.05a29.5,29.5,0,0,0,20.92,8.72,30.25,30.25,0,0,0,6.91-.81A29.53,29.53,0,0,0,157,181.73l34-101.87a29.7,29.7,0,0,0-37.57-37.57l-101.88,34a29.7,29.7,0,0,0-11.61,49.17L63.7,149.27l10.94-10.64L46.81,110.78a11.71,11.71,0,0,1,4.57-19.39L159.87,55.23c4.29-1.43,11.14-.76,15,3.75,4.29,5,4.18,9.56,2.75,13.85l-35.79,109a11.71,11.71,0,0,1-19.39,4.57L96.86,157.64Z" style="fill:#0877b0"/><path d="M96.86,157.64,84.73,170.29l23,23.05a29.5,29.5,0,0,0,20.92,8.72,30.25,30.25,0,0,0,6.91-.81A29.53,29.53,0,0,0,157,181.73l34-101.87a29.7,29.7,0,0,0-37.57-37.57l-101.88,34a29.7,29.7,0,0,0-11.61,49.17L63.7,149.27l10.94-10.64" style="fill:#0877b0"/><path d="M74.64,138.63,46.81,110.78a11.71,11.71,0,0,1,4.57-19.39L159.87,55.23c4.29-1.43,11.14-.76,15,3.75,4.29,5,4.18,9.56,2.75,13.85l-35.79,109a11.71,11.71,0,0,1-19.39,4.57L96.86,157.64" style="fill:#0877b0"/><path d="M91.13,160.7l18.66,18.8a23.8,23.8,0,0,0,16.94,7.11,24.4,24.4,0,0,0,5.6-.66c8.17-1.95,12.31-10.14,15-18.17l27.3-80c5.43-14.49,4.13-21.27-2.35-27.8s-18.14-4.54-26.84-1.62L62,85.88C54,88.55,49.06,92,47.13,100.23s1.73,17.9,7.66,23.88L74.1,143.55Z" style="fill:#fff"/><path d="M220.37,29.85a6,6,0,0,0-7.74-9.19L198.19,32.82A6,6,0,1,0,205.92,42Z" style="fill:#f26b6d"/><path d="M178.6,30.8a6,6,0,0,0,6.5-5.47l1.62-18.81a6,6,0,0,0-12-1L173.13,24.3A6,6,0,0,0,178.6,30.8Z" style="fill:#f26b6d"/><path d="M156.56,23.68,144.4,9.24A6,6,0,1,0,135.21,17l12.16,14.45a6,6,0,1,0,9.19-7.74Z" style="fill:#f26b6d"/><path d="M204.56,61.65a6,6,0,0,0,5.48,6.5l18.81,1.62a6,6,0,1,0,1-12l-18.82-1.62A6,6,0,0,0,204.56,61.65Z" style="fill:#f26b6d"/><path d="M198.35,88a6,6,0,0,0,1.39,4.38l12.16,14.44a6,6,0,1,0,9.19-7.74L208.94,84.64A6,6,0,0,0,198.35,88Z" style="fill:#f26b6d"/><path d="M237.61,191.77a5.88,5.88,0,0,1,6.06,6.06,6.13,6.13,0,0,1-1.92,4.48,32.6,32.6,0,0,1-53.9-24.7A32.62,32.62,0,0,1,220.48,145a31.06,31.06,0,0,1,21.27,7.93,5.9,5.9,0,0,1,2.1,4.6,6,6,0,0,1-1.72,4.37,5.82,5.82,0,0,1-4.35,1.75,6.16,6.16,0,0,1-3.95-1.4,22.74,22.74,0,0,0-6.24-3.79,19.41,19.41,0,0,0-7.11-1.28,20.18,20.18,0,0,0-8,1.6,21,21,0,0,0-6.52,4.37,20.25,20.25,0,0,0-4.4,6.5,20.42,20.42,0,0,0,4.4,22.47,21,21,0,0,0,6.52,4.37,20.79,20.79,0,0,0,15.1.35,21.33,21.33,0,0,0,6.18-3.76A6.51,6.51,0,0,1,237.61,191.77Z" style="fill:#0877b0"/><path d="M264.77,123.12v81.73l-6.12,5.39a5.71,5.71,0,0,1-4.25-1.78,5.86,5.86,0,0,1-1.75-4.28V123.12m0,0a6,6,0,0,1,1.72-4.34,6.18,6.18,0,0,1,8.68,0,6,6,0,0,1,1.72,4.34m0,81a6,6,0,0,1-1.72,4.34,6.18,6.18,0,0,1-8.68,0,6,6,0,0,1-1.72-4.34" style="fill:#0877b0"/><path d="M297.7,133.37a7.15,7.15,0,1,1-2.1-5.07A6.88,6.88,0,0,1,297.7,133.37Zm-13.23,70.75v-53a5.88,5.88,0,0,1,1.78-4.34,6,6,0,0,1,8.56,0,6.09,6.09,0,0,1,1.84,4.34v53a6.09,6.09,0,0,1-1.84,4.34,6,6,0,0,1-8.56,0A5.88,5.88,0,0,1,284.47,204.12Z" style="fill:#0877b0"/><path d="M362.26,203.07a32.66,32.66,0,0,1-53.09-25.46,32.64,32.64,0,1,1,65.28,0v54.54a5.79,5.79,0,0,1-1.78,4.34,6,6,0,0,1-4.34,1.72,5.9,5.9,0,0,1-6.07-6.06Zm-20.45-45.92a20,20,0,0,0-8,1.63A20.44,20.44,0,0,0,323,169.68a20.43,20.43,0,0,0,0,15.85,20.44,20.44,0,0,0,10.81,10.9,20.5,20.5,0,0,0,16,0,20.6,20.6,0,0,0,6.5-4.43,21,21,0,0,0,4.37-6.5,20.28,20.28,0,0,0,0-15.79,21,21,0,0,0-4.37-6.5,20.76,20.76,0,0,0-6.5-4.43A19.77,19.77,0,0,0,341.81,157.15Z" style="fill:#0877b0"/><path d="M438.43,210.24a5.72,5.72,0,0,1-4.31-1.75,6.08,6.08,0,0,1-1.75-4.25,27,27,0,0,1-8.51,4.57,31.65,31.65,0,0,1-9.73,1.43,29.1,29.1,0,0,1-11.77-2.42,31,31,0,0,1-16.23-16.23,29.1,29.1,0,0,1-2.42-11.77V151a5.81,5.81,0,0,1,1.78-4.28,5.89,5.89,0,0,1,4.34-1.78,6.08,6.08,0,0,1,6.06,6.06v28.79a17.64,17.64,0,0,0,1.43,7.11,18.18,18.18,0,0,0,9.7,9.7,18.24,18.24,0,0,0,14.16,0,18.48,18.48,0,0,0,9.76-9.73,17.43,17.43,0,0,0,1.43-7.08V151a5.81,5.81,0,0,1,1.78-4.28,5.88,5.88,0,0,1,4.34-1.78,6.08,6.08,0,0,1,6.06,6.06v53.15a5.81,5.81,0,0,1-1.78,4.28A5.88,5.88,0,0,1,438.43,210.24Z" style="fill:#0877b0"/><path d="M503.36,191.88a5.87,5.87,0,0,1,6.05,6.06,6.06,6.06,0,0,1-1.74,4.37,32.64,32.64,0,0,1-54-24.7,32.75,32.75,0,0,1,62.88-12.56A32.67,32.67,0,0,1,519,177.61,5.81,5.81,0,0,1,517.2,182a6.06,6.06,0,0,1-4.34,1.72H466.7a19.9,19.9,0,0,0,2.91,5.85,20.33,20.33,0,0,0,4.52,4.55,21,21,0,0,0,5.71,2.94,20.26,20.26,0,0,0,6.5,1.05,20.69,20.69,0,0,0,7.05-1.16,19.34,19.34,0,0,0,5.94-3.5A6.41,6.41,0,0,1,503.36,191.88ZM506,171.54a19.88,19.88,0,0,0-3-5.85,21.29,21.29,0,0,0-4.54-4.55,20.93,20.93,0,0,0-5.72-2.94,20,20,0,0,0-6.43-1,20.3,20.3,0,0,0-6.47,1,21.37,21.37,0,0,0-5.77,2.94,20.25,20.25,0,0,0-4.55,4.55,18.94,18.94,0,0,0-2.85,5.85Z" style="fill:#0877b0"/></g></g></svg>