<svg id="Layer_1" data-name="Layer 1" xmlns="http://www.w3.org/2000/svg" viewBox="0 0 500 500"><defs><style>.cls-1{fill:#271f22;stroke:#231f20;stroke-miterlimit:10;}</style></defs><title>e-logoswithdesign-freelogo</title><g id="_Group_" data-name="&lt;Group&gt;"><g id="_Group_2" data-name="&lt;Group&gt;"><path id="_Path_" data-name="&lt;Path&gt;" class="cls-1" d="M362.69,95.54A174.15,174.15,0,0,0,95.54,121,134.43,134.43,0,0,1,323.75,262.59a94,94,0,0,1-9.27,14.35,134.92,134.92,0,0,1-23.26,24.31l-51.59,51.59L183.7,408.77l55.93,55.94L362.69,341.65A174,174,0,0,0,362.69,95.54Z"/><path id="_Path_2" data-name="&lt;Path&gt;" class="cls-1" d="M340.89,196.93A134.44,134.44,0,0,0,95.54,121c-.34.5-.68,1-1,1.49-1,1.51-2,3-2.94,4.59l-.21.35a174.07,174.07,0,0,0,25.2,214.25l38.84,38.85,55.93-55.94-38.84-38.84a94.93,94.93,0,1,1,151.24-23.13A133.71,133.71,0,0,0,340.89,196.93Z"/></g></g></svg>