<svg id="Layer_1" data-name="Layer 1" xmlns="http://www.w3.org/2000/svg" viewBox="0 0 509.14 364.03"><defs><style>.cls-1{fill:#40b75f;}.cls-2{fill:#0b6735;}.cls-3,.cls-4{fill:#fff;}.cls-3{stroke:#0b6735;stroke-miterlimit:10;stroke-width:2px;}</style></defs><title>logo</title><rect class="cls-1" x="131.43" y="147.36" width="350.52" height="494.35" rx="15" ry="15" transform="translate(649.1 -125.79) rotate(90)"/><path class="cls-2" d="M521.74,213.63H91.63a39.63,39.63,0,0,0-39.51,39.51v285a39.63,39.63,0,0,0,39.51,39.51H521.74a39.63,39.63,0,0,0,39.51-39.51v-285A39.63,39.63,0,0,0,521.74,213.63Zm32.12,316.68a39.63,39.63,0,0,1-39.51,39.51H99a39.63,39.63,0,0,1-39.51-39.51V261.42A39.63,39.63,0,0,1,99,221.9H514.35a39.63,39.63,0,0,1,39.51,39.51Z" transform="translate(-52.12 -213.63)"/><circle class="cls-3" cx="499.52" cy="269.03" r="16.35" transform="translate(-111.76 -40.7) rotate(-18.55)"/><path class="cls-4" d="M145.87,363.94c-.61,0-2.94-4.56-2.94-18.24H125.4v57.66c7.4,0,11,1.82,11,2.33v4.66H106v-4.66c0-.51,3.65-2.33,11-2.33V345.71H99.56c0,13.58-2.33,18.24-2.94,18.14H91.76V338.31h59V364Z" transform="translate(-52.12 -213.63)"/><path class="cls-4" d="M192.89,410.36v-4.66c0-.41,3.55-2.33,9.12-2.33l-4.25-13.78H166.45L162,403.36c5.57,0,9.22,1.92,9.22,2.33v4.66h-26v-4.66c0-.41,3.24-2,8.11-2.23L175,338.21h14.9L211,403.46c4.86.1,8.11,1.82,8.11,2.23v4.66Zm-9-64.75h-3l-12.06,36.78h26.75Z" transform="translate(-52.12 -213.63)"/><path class="cls-4" d="M251.06,412.18c-8.92,0-16.52-2.33-20.77-7.8-.51,3.65-1.72,6-2.13,6h-5.47V385.93h6.38c.91,12.46,4.86,18.24,22,18.24,18.85,0,21.18-4.86,21.18-13.48,0-8.31-4.66-12.67-21.18-12.67-20.77,0-26.85-8.51-26.85-21.18,0-12.87,8.92-20.37,26.85-20.37,10.23,0,16.42,3.85,19.15,7.7.51-3.65,1.72-5.88,2.13-5.88h5.47v23.41h-6.08c-1.52-14-7.91-17.23-20.67-17.23s-18.65,4.05-18.65,12.36c0,8,3.14,13.17,18.65,13.17,23.91,0,30.2,9.73,30.2,20.67S275.89,412.18,251.06,412.18Z" transform="translate(-52.12 -213.63)"/><path class="cls-4" d="M341.46,363.94c-.61,0-2.94-4.56-2.94-18.24H321v57.66c7.4,0,11,1.82,11,2.33v4.66h-30.4v-4.66c0-.51,3.65-2.33,11-2.33V345.71H295.15c0,13.58-2.33,18.24-2.94,18.14h-4.86V338.31h59V364Z" transform="translate(-52.12 -213.63)"/><path class="cls-4" d="M351.9,410.36v-4.66c0-.51,3.65-2.33,9-2.33V345.2c-5.37,0-9-1.82-9-2.33v-4.66h26.45v4.66c0,.51-3.75,2.33-9.12,2.33v58.17c5.37,0,9.12,1.82,9.12,2.33v4.66Z" transform="translate(-52.12 -213.63)"/><path class="cls-4" d="M383.42,410.36v-4.66c0-.51,3.65-2.33,9-2.33V345.2c-5.37,0-9-1.82-9-2.33v-4.66H443.2V360.5h-4.76c-.61,0-2.84-4.56-2.84-14.79H400.75v23.71h16.31c0-5.47,1.82-9.12,2.33-9.12H424v25.84h-4.56c-.51,0-2.33-3.75-2.33-9.32H400.75V403h36.68c.1-12,2.33-16.42,2.94-16.42h5v23.81Z" transform="translate(-52.12 -213.63)"/><path class="cls-4" d="M481.82,412.18c-8.92,0-16.52-2.33-20.77-7.8-.51,3.65-1.72,6-2.13,6h-5.47V385.93h6.38c.91,12.46,4.86,18.24,22,18.24,18.85,0,21.18-4.86,21.18-13.48,0-8.31-4.66-12.67-21.18-12.67C461,378,455,369.52,455,356.85c0-12.87,8.92-20.37,26.85-20.37,10.23,0,16.42,3.85,19.15,7.7.51-3.65,1.72-5.88,2.13-5.88h5.47v23.41h-6.08c-1.52-14-7.91-17.23-20.67-17.23s-18.65,4.05-18.65,12.36c0,8,3.14,13.17,18.65,13.17,23.91,0,30.2,9.73,30.2,20.67S506.64,412.18,481.82,412.18Z" transform="translate(-52.12 -213.63)"/><path class="cls-4" d="M121.59,486l-3.7,7v23.43h-12V440.17h12v33h.22l15.47-33h12l-16.67,34,16.67,42.28H133.25Z" transform="translate(-52.12 -213.63)"/><path class="cls-4" d="M172.37,440.17h12v76.28h-12Z" transform="translate(-52.12 -213.63)"/><path class="cls-4" d="M210.94,440.17h37v10.9H235.46v65.38h-12V451.06H210.94Z" transform="translate(-52.12 -213.63)"/><path class="cls-4" d="M309.34,488v10.14c0,12.2-6.1,19.18-17.87,19.18s-17.87-7-17.87-19.18V458.48c0-12.2,6.1-19.18,17.87-19.18s17.87,7,17.87,19.18v7.41H298v-8.17c0-5.45-2.4-7.52-6.21-7.52s-6.21,2.07-6.21,7.52V498.9c0,5.45,2.4,7.41,6.21,7.41s6.21-2,6.21-7.41V488Z" transform="translate(-52.12 -213.63)"/><path class="cls-4" d="M350,516.45H338V440.17h12v32.69H363.6V440.17h12.2v76.28H363.6V483.76H350Z" transform="translate(-52.12 -213.63)"/><path class="cls-4" d="M417.86,472.31h16.45v10.9H417.86v22.34h20.7v10.9H405.88V440.17h32.69v10.9h-20.7Z" transform="translate(-52.12 -213.63)"/><path class="cls-4" d="M478.23,461.2H478v55.25H467.23V440.17h15l12.1,45.66h.22V440.17h10.68v76.28H492.94Z" transform="translate(-52.12 -213.63)"/><path class="cls-2" d="M117.56,286.48l247.79.57c28.44-2.84-77.56-40.62-119.29-41.66-39.79-1-48.12,8.38-50.44,14.12-4.64,11.48-23.91,9.73-41.11,8.08s-43.82-9.16-52.93-2.29C97.34,268.49,88.07,286.41,117.56,286.48Z" transform="translate(-52.12 -213.63)"/></svg>