<!-- Generator: Adobe Illustrator 22.0.1, SVG Export Plug-In  -->
<svg version="1.1"
	 xmlns="http://www.w3.org/2000/svg" xmlns:xlink="http://www.w3.org/1999/xlink" xmlns:a="http://ns.adobe.com/AdobeSVGViewerExtensions/3.0/"
	 x="0px" y="0px" width="129.6px" height="113.5px" viewBox="0 0 129.6 113.5" style="enable-background:new 0 0 129.6 113.5;"
	 xml:space="preserve">
<style type="text/css">
	.st0{fill:#082E41;}
</style>
<defs>
</defs>
<g>
	<g>
		<path class="st0" d="M2.8,53c-1-0.3-1.9-1.1-2.4-2.2c-1-2.2-0.1-5,1.9-6.3c2.9-1.8,5.8-3.4,8.6-4.9l1.6-0.9
			C41,23.7,70,14.6,99,11.9c7.8-0.8,16.1-1,25.4-0.6c2.3,0.1,3.9,2.2,3.6,4.8c-0.3,2.5-2.3,4.5-4.6,4.4c-9-0.4-16.9-0.2-24.3,0.6
			c-28,2.6-56,11.4-83.4,26l-1.6,0.9c-2.7,1.5-5.5,3-8.2,4.7C4.9,53.2,3.8,53.3,2.8,53z"/>
	</g>
</g>
<g>
	<g>
		<path class="st0" d="M113.7,29.3c-0.2-0.1-0.4-0.2-0.6-0.3c-1.5-0.9-2.1-2.8-1.2-4.3c1.4-2.5,3.3-4.8,5.8-7.1
			c1.2-1.1,2.5-2.2,3.8-3.1c-1.2-1.2-2.4-2.2-3.5-3.1l-6.6-5.8c-1.3-1.2-1.4-3.2-0.3-4.5c1.2-1.3,3.2-1.4,4.5-0.3l6.6,5.8
			c1.9,1.7,4.2,3.7,6.5,6.1c0.6,0.7,0.9,1.6,0.8,2.5c-0.1,0.9-0.6,1.7-1.3,2.3c-2.1,1.5-4.3,3.1-6.2,4.8c-2,1.8-3.5,3.6-4.5,5.5
			C116.7,29.1,115.1,29.7,113.7,29.3z"/>
	</g>
</g>
<g>
	<g>
		<path class="st0" d="M99.5,112.2c0.3,0.2,0.7,0.3,1,0.4c1.6,0.3,3.1-0.8,3.4-2.4c0.9-5.6,2.3-11.2,4-16.7
			c3.4-10.5,8.2-19.7,14.3-27.5c1.6-2,3.2-3.9,4.9-5.6c1.1-1.2,1.1-3-0.1-4.1c-1.2-1.1-3-1.1-4.1,0.1c-1.8,1.9-3.6,3.9-5.3,6
			c-6.5,8.3-11.7,18.2-15.3,29.3c-1.9,5.7-3.3,11.7-4.2,17.6C97.9,110.4,98.5,111.6,99.5,112.2z"/>
	</g>
</g>
<g>
	<g>
		<path class="st0" d="M99.5,113c0.3,0.2,0.7,0.3,1,0.4c0.8,0.2,1.6,0.1,2.1-0.2c3.4-2.3,6.2-4,9.9-4.4c1.4-0.1,2.1-1.3,1.5-2.6
			c-0.6-1.3-2.2-2.2-3.6-2.1c-4,0.4-7.1,2-9.7,3.6c-1.4-1.9-2.7-3.8-4.1-5.9c-0.8-1.2-1.6-2.4-2.5-3.6c-0.9-1.2-2.6-1.9-3.8-1.5
			c-1.2,0.4-1.6,1.8-0.7,3c0.9,1.3,1.7,2.4,2.4,3.6c2,3,3.9,5.7,6.4,8.9C98.7,112.5,99.1,112.8,99.5,113z"/>
	</g>
</g>
</svg>