<?xml version="1.0" encoding="utf-8"?>
<!-- Generator: Adobe Illustrator 22.0.1, SVG Export Plug-In . SVG Version: 6.00 Build 0)  -->
<svg version="1.1" id="Layer_1" xmlns="http://www.w3.org/2000/svg" xmlns:xlink="http://www.w3.org/1999/xlink" x="0px" y="0px"
	 viewBox="0 0 496.1 134.6" style="enable-background:new 0 0 496.1 134.6;" xml:space="preserve">
<style type="text/css">
	.st0{fill:#F9C319;}
	.st1{fill:#F9EB6B;}
	.st2{fill:#82CC69;}
	.st3{fill:#9BFF7D;}
	.st4{opacity:0.63;fill:#A3AEAF;enable-background:new    ;}
	.st5{fill:#FFFFFF;}
	.st6{fill:#30E2E2;}
	.st7{display:none;}
	.st8{display:inline;}
	.st9{fill:#E8EFEF;}
	.st10{opacity:0.39;}
	.st11{fill:#F1F2F2;}
	.st12{fill:#1A2144;}
	.st13{fill:#EA1D24;}
	.st14{fill:#F37422;}
	.st15{fill:#77B751;}
	.st16{fill:#CEDBDD;}
	.st17{opacity:0.63;fill:#FFFFFF;enable-background:new    ;}
	.st18{fill:#F9E23A;}
	.st19{opacity:0.34;fill:#FFFFFF;}
	.st20{fill:#082E41;}
	.st21{fill:#2682BC;}
	.st22{display:inline;fill:#E8EFEF;}
	.st23{fill:#ED516F;}
	.st24{fill:#1A5C8E;}
	.st25{fill:#1A6684;}
	.st26{fill:#2283A0;}
</style>
<g>
	<ellipse class="st0" cx="127.7" cy="72.9" rx="5.2" ry="5.2"/>
	<ellipse class="st1" cx="127.7" cy="72.9" rx="3.7" ry="3.7"/>
	<g>
		<path class="st0" d="M129.7,73.1c0.1,0.3,0.1,0.6,0,1s-0.4,0.6-0.9,0.8l0.3,0.6l-0.4,0.2l-0.3-0.6c-0.5,0.2-1,0.3-1.5,0.3
			l-0.4-0.8c0.2,0,0.5,0,0.8-0.1c0.3,0,0.5-0.1,0.7-0.2l-0.4-1l-0.3,0c-0.5,0-0.9,0-1.1-0.1c-0.3-0.1-0.5-0.3-0.6-0.6
			c-0.1-0.3-0.1-0.6,0-0.9s0.4-0.6,0.8-0.8l-0.2-0.5l0.4-0.2l0.2,0.5c0.5-0.2,1-0.3,1.4-0.3l0,0.9c-0.4,0-0.8,0.1-1.1,0.2l0.4,0.9
			c0.5,0,0.8,0,1.1,0c0.2,0,0.4,0.1,0.5,0.2C129.5,72.7,129.6,72.9,129.7,73.1z M126.6,72.2c0,0.1,0.1,0.2,0.2,0.2
			c0.1,0,0.2,0,0.4,0l-0.3-0.7C126.6,71.8,126.5,72,126.6,72.2z M128.7,73.5c0-0.1-0.1-0.2-0.2-0.2s-0.2,0-0.4,0l0.3,0.8
			C128.7,73.9,128.8,73.7,128.7,73.5z"/>
	</g>
</g>
<g>
	<g>
		<g>
			
				<rect x="281.4" y="72" transform="matrix(0.9878 -0.1556 0.1556 0.9878 -8.8621 47.6919)" class="st2" width="37.4" height="16.8"/>
			<path class="st3" d="M312.4,71.9L285.8,76c0.3,1.8-0.9,3.5-2.7,3.8l0.5,3.2l0,0.1l0.5,3.2c1.8-0.3,3.5,0.9,3.8,2.7l26.5-4.2
				c-0.3-1.8,0.9-3.5,2.7-3.8l-0.5-3.2l0-0.1l-0.5-3.2C314.4,74.9,312.7,73.7,312.4,71.9z"/>
			<path class="st2" d="M306.1,79.5c0.6,4.1-1.5,7.9-4.7,8.3c-3.3,0.5-6.4-2.4-7.1-6.5c-0.6-4.1,1.5-7.9,4.7-8.3
				C302.3,72.5,305.4,75.4,306.1,79.5z"/>
			<path class="st2" d="M290.4,82c0.1,0.8-0.4,1.5-1.2,1.6s-1.5-0.4-1.6-1.2c-0.1-0.8,0.4-1.5,1.2-1.6
				C289.5,80.7,290.3,81.2,290.4,82z"/>
			<path class="st2" d="M312,78.6c0.1,0.6-0.3,1.2-1,1.3c-0.6,0.1-1.2-0.3-1.3-1s0.3-1.2,1-1.3C311.3,77.5,311.9,77.9,312,78.6z"/>
			<g>
				<path class="st3" d="M303.4,81.8c0.1,0.6-0.1,1.1-0.5,1.6c-0.4,0.5-1,0.8-1.8,1.1l0.2,1.5l-0.8,0.1l-0.2-1.5
					c-0.5,0.1-1,0.1-1.4,0.1c-0.5,0-0.9,0-1.2-0.1l-0.1-1.1c0.4,0.1,0.8,0.1,1.4,0.2c0.5,0,1,0,1.3-0.1l-0.4-2.9
					c-1-0.1-1.6-0.4-2.1-0.7c-0.4-0.3-0.7-0.8-0.8-1.4c-0.1-0.6,0.1-1.1,0.5-1.5c0.4-0.5,1-0.8,1.7-0.9l-0.2-1.2l0.8-0.1l0.2,1.2
					c0.8-0.1,1.6-0.1,2.4,0.1l-0.2,0.9c-0.7-0.2-1.4-0.2-2.1-0.2l0.4,2.8c0.7,0.1,1.3,0.3,1.6,0.4c0.4,0.1,0.7,0.4,0.9,0.6
					C303.2,81.1,303.3,81.4,303.4,81.8z M298,78.5c0,0.3,0.2,0.6,0.4,0.8c0.2,0.2,0.6,0.3,1.1,0.4l-0.4-2.6
					c-0.4,0.1-0.7,0.3-0.9,0.6C298,77.9,298,78.2,298,78.5z M302.3,82c0-0.3-0.2-0.6-0.4-0.7c-0.2-0.1-0.7-0.3-1.2-0.4l0.4,2.5
					C302,83.2,302.4,82.7,302.3,82z"/>
			</g>
		</g>
	</g>
	<g>
		<g>
			
				<rect x="267.3" y="51.9" transform="matrix(0.8179 -0.5754 0.5754 0.8179 17.3789 175.5424)" class="st2" width="37.4" height="16.8"/>
			<path class="st3" d="M293.1,47.3l-22,15.4c1.1,1.5,0.7,3.6-0.8,4.6l1.9,2.6l0.1,0.1l1.9,2.6c1.5-1.1,3.6-0.7,4.6,0.8l22-15.4
				c-1.1-1.5-0.7-3.6,0.8-4.6l-1.9-2.6l-0.1-0.1l-1.9-2.6C296.3,49.1,294.2,48.7,293.1,47.3z"/>
			<path class="st2" d="M290.9,56.9c2.4,3.4,2.2,7.7-0.6,9.6c-2.7,1.9-6.8,0.7-9.2-2.7c-2.4-3.4-2.2-7.7,0.6-9.6
				C284.4,52.3,288.5,53.5,290.9,56.9z"/>
			<path class="st2" d="M277.9,66c0.5,0.7,0.3,1.6-0.4,2c-0.7,0.5-1.6,0.3-2-0.4c-0.5-0.7-0.3-1.6,0.4-2
				C276.5,65.2,277.5,65.3,277.9,66z"/>
			<path class="st2" d="M295.8,53.4c0.4,0.5,0.2,1.2-0.3,1.6s-1.2,0.2-1.6-0.3c-0.4-0.5-0.2-1.2,0.3-1.6
				C294.7,52.8,295.4,52.9,295.8,53.4z"/>
			<g>
				<path class="st3" d="M289.5,60.1c0.3,0.5,0.4,1,0.3,1.6c-0.1,0.6-0.5,1.2-1.1,1.7l0.9,1.3l-0.7,0.5L288,64
					c-0.4,0.3-0.8,0.6-1.2,0.7c-0.4,0.2-0.8,0.3-1.1,0.4l-0.6-0.9c0.4-0.1,0.8-0.2,1.3-0.4c0.4-0.2,0.9-0.4,1.2-0.6l-1.7-2.4
					c-0.9,0.3-1.6,0.4-2.2,0.3c-0.5-0.1-1-0.4-1.3-0.9c-0.3-0.5-0.4-1-0.3-1.6c0.1-0.6,0.5-1.1,1.1-1.6l-0.7-1l0.7-0.5l0.7,1
					c0.7-0.5,1.4-0.8,2.2-1l0.2,0.9c-0.7,0.2-1.4,0.4-1.9,0.8l1.7,2.4c0.7-0.2,1.3-0.3,1.6-0.4c0.4-0.1,0.8,0,1,0.2
					C289,59.5,289.2,59.7,289.5,60.1z M283.2,59.5c0.2,0.3,0.4,0.4,0.7,0.5c0.3,0.1,0.7,0,1.2-0.1l-1.5-2.1
					c-0.3,0.3-0.5,0.6-0.6,0.9C283,59,283,59.2,283.2,59.5z M288.6,60.8c-0.2-0.3-0.4-0.4-0.7-0.4c-0.3,0-0.7,0-1.3,0.2l1.4,2.1
					C288.8,62,289,61.3,288.6,60.8z"/>
			</g>
		</g>
	</g>
	<g>
		<g>
			
				<rect x="271.4" y="58.1" transform="matrix(0.9518 -0.3066 0.3066 0.9518 -6.7009 93.1246)" class="st2" width="43.3" height="19.5"/>
			<path class="st3" d="M305.5,55.9l-29.6,9.5c0.6,2-0.5,4.2-2.5,4.8l1.2,3.5l0.1,0.1l1.2,3.5c2-0.6,4.2,0.5,4.8,2.5l29.6-9.5
				c-0.6-2,0.5-4.2,2.5-4.8l-1.2-3.5l-0.1-0.1l-1.2-3.5C308.3,59,306.1,57.9,305.5,55.9z"/>
			<path class="st2" d="M299.6,65.8c1.5,4.6-0.3,9.2-3.9,10.4c-3.6,1.2-7.8-1.6-9.2-6.2c-1.5-4.6,0.3-9.2,3.9-10.4
				C294,58.5,298.2,61.2,299.6,65.8z"/>
			<path class="st2" d="M282.2,71.4c0.3,0.9-0.2,1.8-1.1,2.1c-0.9,0.3-1.8-0.2-2.1-1.1c-0.3-0.9,0.2-1.8,1.1-2.1
				C280.9,70.1,281.9,70.5,282.2,71.4z"/>
			<path class="st2" d="M306.3,63.7c0.2,0.7-0.2,1.4-0.8,1.6c-0.7,0.2-1.4-0.2-1.6-0.8c-0.2-0.7,0.2-1.4,0.8-1.6
				C305.4,62.6,306.1,63,306.3,63.7z"/>
			<g>
				<path class="st3" d="M297,68.8c0.2,0.7,0.2,1.3-0.2,1.9s-0.9,1.1-1.8,1.5l0.5,1.7l-0.9,0.3l-0.5-1.7c-0.6,0.2-1.1,0.3-1.7,0.4
					c-0.6,0.1-1,0.1-1.4,0l-0.3-1.2c0.5,0.1,1,0,1.5,0s1.1-0.2,1.5-0.3l-1-3.2c-1.1,0-2-0.2-2.5-0.4c-0.5-0.3-0.9-0.8-1.1-1.4
					c-0.2-0.6-0.1-1.2,0.2-1.8c0.4-0.5,0.9-1,1.8-1.4l-0.4-1.4l0.9-0.3l0.4,1.3c0.9-0.3,1.9-0.4,2.8-0.3l-0.1,1.1
					c-0.8-0.1-1.6,0-2.4,0.2l1,3.2c0.9,0,1.5,0,2,0.2c0.4,0.1,0.9,0.3,1.1,0.5C296.7,68,296.9,68.4,297,68.8z M290.3,66
					c0.1,0.4,0.4,0.6,0.6,0.8c0.3,0.1,0.7,0.3,1.4,0.3l-0.9-2.9c-0.4,0.2-0.8,0.5-0.9,0.8C290.2,65.4,290.2,65.7,290.3,66z
					 M295.8,69.3c-0.1-0.4-0.3-0.6-0.6-0.8c-0.3-0.1-0.8-0.2-1.5-0.2l0.9,2.9C295.7,70.7,296,70.1,295.8,69.3z"/>
			</g>
		</g>
	</g>
</g>
<path class="st4" d="M295.1,134.6H117.3c-3.5,0-6.3-2.8-6.3-6.3v-1.9h190.3v1.9C301.4,131.8,298.6,134.6,295.1,134.6z"/>
<g>
	<path class="st5" d="M465.5,27.6c-0.3-0.8-0.6-1.6-0.9-2.4c-0.8-0.3-1.6-0.6-2.4-0.9c0.8-0.3,1.6-0.6,2.4-0.9
		c0.3-0.8,0.6-1.6,0.9-2.4c0.3,0.8,0.6,1.6,0.9,2.4c0.8,0.3,1.6,0.6,2.4,0.9c-0.8,0.3-1.6,0.6-2.4,0.9
		C466.1,26,465.8,26.8,465.5,27.6z"/>
</g>
<g>
	<g>
		<rect x="85.1" y="83.5" class="st6" width="20.2" height="47.3"/>
	</g>
	<g>
		<g>
			<rect x="99.4" y="83.5" class="st6" width="5.9" height="47.3"/>
		</g>
	</g>
</g>
<g>
	<g>
		<rect x="56.7" y="74.2" class="st6" width="20.2" height="56.7"/>
	</g>
	<g>
		<g>
			<rect x="71" y="74.1" class="st6" width="5.9" height="56.8"/>
		</g>
	</g>
</g>
<g>
	<g>
		<rect x="28.4" y="94.7" class="st6" width="20.2" height="36.1"/>
	</g>
	<g>
		<g>
			<rect x="42.6" y="94.7" class="st6" width="5.9" height="36.1"/>
		</g>
	</g>
</g>
<g>
	<rect y="112" class="st6" width="20.2" height="18.9"/>
	<g>
		<g>
			<rect x="14.2" y="112" class="st6" width="5.9" height="18.8"/>
		</g>
	</g>
</g>
<g class="st7">
	<g class="st8">
		
			<rect x="96.2" y="101.1" transform="matrix(0.9561 -0.2931 0.2931 0.9561 -27.6174 40.4842)" class="st2" width="50.2" height="22.5"/>
		<path class="st3" d="M135.9,98.8l-34.4,10.5c0.7,2.4-0.6,4.8-3,5.5l1.3,4.1l0.1,0.1l1.3,4.1c2.4-0.7,4.8,0.6,5.5,3l34.4-10.5
			c-0.7-2.4,0.6-4.8,3-5.5l-1.3-4.1l-0.1-0.1l-1.3-4.1C139.2,102.4,136.6,101.1,135.9,98.8z"/>
		<path class="st2" d="M129,110.1c1.6,5.3-0.5,10.7-4.7,12c-4.2,1.3-9-1.9-10.6-7.3c-1.6-5.3,0.5-10.7,4.7-12
			C122.6,101.5,127.4,104.8,129,110.1z"/>
		<path class="st2" d="M108.7,116.3c0.3,1-0.3,2.1-1.3,2.5c-1,0.3-2.1-0.3-2.5-1.3c-0.3-1,0.3-2.1,1.3-2.5
			C107.3,114.7,108.4,115.3,108.7,116.3z"/>
		<path class="st2" d="M136.8,107.7c0.3,0.8-0.2,1.6-1,1.9c-0.8,0.3-1.6-0.2-1.9-1c-0.3-0.8,0.2-1.6,1-1.9
			C135.7,106.5,136.5,106.9,136.8,107.7z"/>
		<g>
			<path class="st3" d="M125.9,113.6c0.3,0.8,0.2,1.5-0.3,2.2c-0.5,0.7-1.1,1.2-2.1,1.7l0.6,2l-1.1,0.3l-0.6-1.9
				c-0.6,0.2-1.3,0.3-1.9,0.4c-0.6,0-1.1,0.1-1.6,0l-0.4-1.4c0.6,0.1,1.1,0,1.8,0c0.6,0,1.2-0.2,1.7-0.3l-1.2-3.8
				c-1.3,0-2.3-0.2-2.8-0.5c-0.6-0.4-1-0.9-1.3-1.7c-0.3-0.7-0.1-1.4,0.3-2.1c0.4-0.6,1.1-1.2,2.1-1.6l-0.4-1.6l1.1-0.3l0.4,1.5
				c1.1-0.3,2.2-0.4,3.2-0.3l-0.1,1.3c-0.9-0.1-1.9,0-2.8,0.2l1.2,3.8c1,0,1.7,0.1,2.3,0.2c0.5,0.2,1,0.3,1.3,0.6
				C125.5,112.6,125.7,113.1,125.9,113.6z M118.1,110.2c0.1,0.4,0.4,0.7,0.7,1c0.4,0.2,0.8,0.3,1.6,0.3l-1-3.3
				c-0.5,0.3-0.9,0.6-1.1,1C118.1,109.4,118.1,109.8,118.1,110.2z M124.5,114.1c-0.1-0.4-0.3-0.7-0.7-0.9c-0.4-0.2-0.9-0.2-1.7-0.3
				l1,3.3C124.3,115.7,124.7,115,124.5,114.1z"/>
		</g>
	</g>
</g>
<g class="st7">
	<g class="st8">
		
			<rect x="96" y="84.3" transform="matrix(0.9994 -3.510152e-02 3.510152e-02 0.9994 -3.2794 4.3083)" class="st2" width="50.2" height="22.5"/>
		<path class="st3" d="M138.7,86.2l-36,1.3c0.1,2.5-1.8,4.5-4.3,4.6l0.2,4.3l0,0.2l0.2,4.3c2.5-0.1,4.5,1.8,4.6,4.3l36-1.3
			c-0.1-2.5,1.8-4.5,4.3-4.6l-0.2-4.3l0-0.2l-0.2-4.3C140.9,90.5,138.8,88.6,138.7,86.2z"/>
		<path class="st2" d="M129.1,95.3c0.2,5.6-3.3,10.2-7.6,10.4c-4.4,0.2-8.2-4.2-8.4-9.8c-0.2-5.6,3.3-10.2,7.6-10.4
			C125.2,85.4,128.9,89.7,129.1,95.3z"/>
		<path class="st2" d="M107.9,96.1c0,1.1-0.8,2-1.9,2c-1.1,0-2-0.8-2-1.9c0-1.1,0.8-2,1.9-2C106.9,94.1,107.9,94.9,107.9,96.1z"/>
		<path class="st2" d="M137.2,95c0,0.8-0.6,1.5-1.4,1.6c-0.8,0-1.5-0.6-1.6-1.4c0-0.8,0.6-1.5,1.4-1.6
			C136.5,93.5,137.2,94.2,137.2,95z"/>
		<g>
			<path class="st3" d="M125.2,97.9c0,0.8-0.2,1.5-0.9,2.1c-0.6,0.6-1.4,0.9-2.5,1.1l0,2.1l-1.1,0l-0.1-2c-0.7,0-1.3,0-2-0.1
				c-0.6-0.1-1.1-0.2-1.5-0.4l0-1.4c0.5,0.2,1.1,0.3,1.7,0.5c0.6,0.1,1.2,0.1,1.7,0.2l-0.1-3.9c-1.2-0.4-2.1-0.8-2.6-1.2
				c-0.5-0.5-0.8-1.1-0.8-2c-0.1-0.8,0.3-1.4,0.8-2c0.6-0.5,1.4-0.8,2.4-1l0-1.6l1.1,0l0,1.6c1.1,0,2.2,0.1,3.2,0.5l-0.4,1.2
				c-0.9-0.3-1.8-0.5-2.7-0.5l0.1,3.9c1,0.3,1.6,0.5,2.1,0.8c0.4,0.3,0.9,0.6,1.1,0.9C125.1,96.9,125.2,97.3,125.2,97.9z
				 M118.6,92.6c0,0.5,0.2,0.8,0.4,1.1c0.3,0.2,0.7,0.5,1.4,0.7l-0.1-3.5c-0.6,0.1-1.1,0.3-1.3,0.6
				C118.7,91.9,118.6,92.2,118.6,92.6z M123.7,98c0-0.5-0.1-0.8-0.4-1s-0.8-0.5-1.6-0.7l0.1,3.5C123.1,99.5,123.7,99,123.7,98z"/>
		</g>
	</g>
</g>
<path class="st5" d="M284.5,119.7H127.9V24.4c0-3.8,3.1-6.9,6.9-6.9h142.7c3.8,0,6.9,3.1,6.9,6.9v95.3
	C284.4,119.7,284.5,119.7,284.5,119.7z"/>
<rect x="135" y="30" class="st9" width="142.4" height="83.1"/>
<g class="st10">
	<polygon class="st11" points="187.4,17.5 141.3,118.7 166.8,118.7 212.9,17.5 	"/>
	<polygon class="st11" points="220.9,17.5 174.8,118.7 186.6,118.7 232.7,17.5 	"/>
</g>
<path class="st12" d="M209.1,22.8c0,1.6-1.3,2.9-2.9,2.9c-1.6,0-2.9-1.3-2.9-2.9s1.3-2.9,2.9-2.9S209.1,21.2,209.1,22.8z"/>
<g>
	<path class="st13" d="M146.5,35.2c0,1.2-1,2.2-2.2,2.2s-2.2-1-2.2-2.2s1-2.2,2.2-2.2C145.5,32.9,146.5,33.9,146.5,35.2z"/>
	<path class="st14" d="M154.8,35.2c0,1.2-1,2.2-2.2,2.2s-2.2-1-2.2-2.2s1-2.2,2.2-2.2C153.8,32.9,154.8,33.9,154.8,35.2z"/>
	<path class="st15" d="M163.2,35.2c0,1.2-1,2.2-2.2,2.2s-2.2-1-2.2-2.2s1-2.2,2.2-2.2C162.2,32.9,163.2,33.9,163.2,35.2z"/>
</g>
<path class="st16" d="M296,130.9H116.4c-3,0-5.4-2.4-5.4-5.4v-6.6h190.3v6.6C301.4,128.5,299,130.9,296,130.9z"/>
<rect x="111" y="118.9" class="st17" width="190.3" height="3.6"/>
<g>
	<rect x="141.3" y="56.8" class="st18" width="91.4" height="10.3"/>
	<rect x="141.3" y="40.4" class="st5" width="91.4" height="12.6"/>
	<rect x="239" y="40.4" class="st19" width="32.9" height="66.8"/>
	<rect x="141.3" y="70.8" class="st5" width="25.2" height="22.1"/>
	<rect x="172.9" y="70.8" class="st5" width="25.2" height="22.1"/>
	<rect x="206.4" y="70.8" class="st5" width="25.2" height="22.1"/>
	<rect x="141.3" y="96.6" class="st5" width="90.4" height="10.7"/>
</g>
<g>
	<g>
		<polygon class="st20" points="326.8,90.6 284.5,90.6 284.5,84.3 325.5,84.3 367.6,66.9 409.5,24.7 414,29.2 371.2,72.3 		"/>
	</g>
	<path class="st21" d="M332.2,87.6c0,3.1-2.6,5.7-5.7,5.7s-5.7-2.6-5.7-5.7s2.6-5.7,5.7-5.7S332.2,84.4,332.2,87.6z"/>
	<path class="st21" d="M374.6,69.1c0,3.1-2.6,5.7-5.7,5.7s-5.7-2.6-5.7-5.7s2.6-5.7,5.7-5.7C372.1,63.4,374.6,66,374.6,69.1z"/>
	<circle class="st21" cx="409.4" cy="29.8" r="5.7"/>
</g>
<g>
	<path class="st20" d="M224.4,91.9l-10.8-10.8l7.7-4.4c0.6-0.3,1-1,0.9-1.7c0-0.7-0.5-1.3-1.1-1.6l-34.3-13.7
		c-0.7-0.3-1.4-0.1-2,0.4c-0.5,0.5-0.7,1.3-0.4,2l13.7,34.3c0.3,0.6,0.9,1.1,1.6,1.1c0.7,0.1,1.4-0.3,1.7-0.9l4.4-7.7l10.8,10.8
		c0.3,0.3,0.8,0.5,1.3,0.5c0.5,0,0.9-0.2,1.3-0.5l5.3-5.3C225.1,93.8,225.1,92.6,224.4,91.9z"/>
	<path class="st20" d="M178.8,51.5c-0.7-0.7-1.9-0.7-2.6,0c-0.7,0.7-0.7,1.9,0,2.6l4,4c0.4,0.4,0.8,0.5,1.3,0.5
		c0.5,0,0.9-0.2,1.3-0.5c0.7-0.7,0.7-1.9,0-2.6L178.8,51.5z"/>
	<path class="st20" d="M180.1,64c0-1-0.8-1.8-1.8-1.8h-5.7c-1,0-1.8,0.8-1.8,1.8s0.8,1.8,1.8,1.8h5.7C179.3,65.8,180.1,65,180.1,64z
		"/>
	<path class="st20" d="M179.4,69.6l-4,4c-0.7,0.7-0.7,1.9,0,2.6c0.4,0.4,0.8,0.5,1.3,0.5c0.5,0,0.9-0.2,1.3-0.5l4-4
		c0.7-0.7,0.7-1.9,0-2.6C181.2,68.9,180.1,68.9,179.4,69.6z"/>
	<path class="st20" d="M188.7,55.4c1,0,1.8-0.8,1.8-1.8v-5.7c0-1-0.8-1.8-1.8-1.8c-1,0-1.8,0.8-1.8,1.8v5.7
		C186.9,54.6,187.7,55.4,188.7,55.4z"/>
	<path class="st20" d="M195.6,57.8c0.5,0,0.9-0.2,1.3-0.5l4-4c0.7-0.7,0.7-1.9,0-2.6c-0.7-0.7-1.9-0.7-2.6,0l-4,4
		c-0.7,0.7-0.7,1.9,0,2.6C194.7,57.6,195.1,57.8,195.6,57.8z"/>
</g>
<g>
	<ellipse class="st0" cx="111.4" cy="121.6" rx="9.7" ry="9.7"/>
	<ellipse class="st1" cx="111.4" cy="121.6" rx="7" ry="7"/>
	<g>
		<path class="st0" d="M114,124.2c-0.2,0.6-0.6,1.1-1.2,1.3c-0.6,0.2-1.3,0.3-2.2,0.1l-0.4,1.3l-0.8-0.3l0.4-1.2
			c-1-0.3-1.8-0.8-2.5-1.3l0.5-1.6c0.3,0.3,0.7,0.6,1.2,0.8c0.4,0.3,0.9,0.5,1.3,0.6l0.6-1.9l-0.4-0.3c-0.7-0.6-1.2-1.1-1.4-1.6
			c-0.2-0.5-0.3-1-0.1-1.5c0.2-0.6,0.5-1,1.1-1.3c0.6-0.3,1.3-0.3,2.1-0.1l0.3-0.9l0.8,0.3l-0.3,0.9c0.9,0.3,1.7,0.8,2.4,1.3l-1,1.3
			c-0.6-0.5-1.2-0.8-1.8-1.1l-0.5,1.8c0.7,0.5,1.2,1,1.5,1.3c0.3,0.3,0.4,0.7,0.5,1C114.2,123.5,114.1,123.8,114,124.2z
			 M110.8,119.3c-0.1,0.2,0,0.3,0.1,0.5s0.3,0.3,0.5,0.5l0.4-1.4C111.2,118.8,110.9,118.9,110.8,119.3z M112.2,123.7
			c0-0.2,0-0.3-0.1-0.5c-0.1-0.1-0.3-0.3-0.5-0.5l-0.5,1.5C111.7,124.3,112,124.1,112.2,123.7z"/>
	</g>
</g>
<g>
	<ellipse class="st0" cx="118.9" cy="90.1" rx="6.3" ry="6.3"/>
	<ellipse class="st1" cx="118.9" cy="90.1" rx="4.6" ry="4.6"/>
	<g>
		<path class="st0" d="M121,91.2c0,0.4-0.2,0.8-0.5,1.1s-0.8,0.4-1.4,0.5v0.9h-0.6v-0.8c-0.7,0-1.3-0.1-1.8-0.4v-1.1
			c0.2,0.1,0.5,0.2,0.9,0.3c0.3,0.1,0.6,0.2,0.9,0.2v-1.3l-0.3-0.1c-0.6-0.2-1-0.5-1.2-0.7c-0.2-0.3-0.4-0.6-0.4-1
			c0-0.4,0.2-0.7,0.5-1s0.8-0.4,1.3-0.5v-0.6h0.6v0.6c0.6,0,1.2,0.2,1.7,0.4l-0.4,1c-0.4-0.2-0.9-0.3-1.4-0.3v1.2
			c0.6,0.2,0.9,0.4,1.2,0.6c0.2,0.2,0.4,0.3,0.5,0.5C121,90.8,121,91,121,91.2z M118.1,88.8c0,0.1,0,0.2,0.1,0.3s0.2,0.2,0.4,0.2v-1
			C118.3,88.4,118.1,88.5,118.1,88.8z M119.8,91.3c0-0.1,0-0.2-0.1-0.3c-0.1-0.1-0.2-0.2-0.4-0.2v1
			C119.6,91.7,119.8,91.6,119.8,91.3z"/>
	</g>
</g>
<g>
	<ellipse class="st0" cx="100.1" cy="100.8" rx="5.2" ry="5.2"/>
	<ellipse class="st1" cx="100.1" cy="100.8" rx="3.7" ry="3.7"/>
	<g>
		<path class="st0" d="M102.1,101c0.1,0.3,0.1,0.6,0,1s-0.4,0.6-0.9,0.8l0.3,0.6l-0.4,0.2l-0.3-0.6c-0.5,0.2-1,0.3-1.5,0.3l-0.4-0.8
			c0.2,0,0.5,0,0.8-0.1c0.3,0,0.5-0.1,0.7-0.2l-0.4-1l-0.3,0c-0.5,0-0.9,0-1.1-0.1c-0.3-0.1-0.5-0.3-0.6-0.6c-0.1-0.3-0.1-0.6,0-0.9
			s0.4-0.6,0.8-0.8l-0.2-0.5l0.4-0.2l0.2,0.5c0.5-0.2,1-0.3,1.4-0.3l0,0.9c-0.4,0-0.8,0.1-1.1,0.2l0.4,0.9c0.5,0,0.8,0,1.1,0
			c0.2,0,0.4,0.1,0.5,0.2C101.9,100.6,102,100.8,102.1,101z M99.1,100.1c0,0.1,0.1,0.2,0.2,0.2s0.2,0,0.4,0l-0.3-0.7
			C99.1,99.7,99,99.9,99.1,100.1z M101.2,101.4c0-0.1-0.1-0.2-0.2-0.2c-0.1,0-0.2,0-0.4,0l0.3,0.8
			C101.1,101.8,101.2,101.6,101.2,101.4z"/>
	</g>
</g>
<g class="st7">
	<path class="st22" d="M93.5,111.3l-2.1,1.5l-0.6-2.2l2.5-2.2l2.1-0.6l3.9,13l-2.6,0.8L93.5,111.3z"/>
</g>
<g class="st7">
	<path class="st22" d="M108.6,75.3c0-0.2-0.2-0.2-0.3-0.2l-0.8,0.2c-0.2,0-0.2,0.2-0.2,0.3l0.3,1.1l0.1-0.1c0.1-0.2,0.3-0.4,0.6-0.5
		l0.5-0.1c0.5-0.1,1,0.2,1.1,0.7l0.3,1c0.1,0.5-0.2,1-0.7,1.1l-1.4,0.4c-0.5,0.1-1-0.2-1.1-0.7l-0.7-2.7c-0.1-0.5,0.2-1,0.7-1.1
		l1.3-0.3c0.5-0.1,1,0.2,1.1,0.7l0.1,0.4l-0.9,0.2L108.6,75.3z M107.9,78c0,0.2,0.2,0.2,0.3,0.2L109,78c0.2,0,0.2-0.2,0.2-0.3
		L109,77c0-0.2-0.2-0.2-0.3-0.2l-0.4,0.1c-0.2,0-0.4,0.1-0.6,0.3l-0.1,0.1L107.9,78z"/>
	<path class="st22" d="M113.8,76.7l0.2,0.9l-0.9,0.2l-0.2-0.9l-2,0.5l-0.4-0.6l1.6-3.5l0.8-0.2l0.7,2.8l0.6-0.2l0.2,0.8L113.8,76.7z
		 M112.7,76.1l-0.4-1.5l-0.8,1.8L112.7,76.1z"/>
	<path class="st22" d="M117.5,73.5c0.1,0.3,0,0.5-0.2,0.8c0.3,0.1,0.5,0.3,0.6,0.6l0.2,0.7c0.1,0.5-0.2,1-0.7,1.1l-1.4,0.4
		c-0.5,0.1-1-0.2-1.1-0.7l-0.2-0.7c-0.1-0.3,0-0.6,0.3-0.8c-0.3-0.1-0.5-0.3-0.6-0.6l-0.2-0.6c-0.1-0.5,0.2-1,0.7-1.1l1.3-0.3
		c0.5-0.1,1,0.2,1.1,0.7L117.5,73.5z M115.8,75.1c-0.2,0-0.3,0.1-0.2,0.3l0.2,0.6c0,0.2,0.2,0.2,0.3,0.2l0.9-0.2
		c0.2,0,0.2-0.2,0.2-0.3l-0.2-0.6c0-0.2-0.2-0.2-0.4-0.2L115.8,75.1z M115.4,73.3c-0.2,0-0.2,0.2-0.2,0.3l0.1,0.5
		c0.1,0.2,0.1,0.2,0.3,0.2l0.8-0.2c0.2,0,0.2-0.1,0.2-0.3l-0.1-0.5c0-0.2-0.2-0.2-0.3-0.2L115.4,73.3z"/>
</g>
<g class="st7">
	<path class="st22" d="M113,104c-0.1,0.2,0,0.4,0.2,0.4l1.1,0.3c0.2,0.1,0.4,0,0.4-0.2l0.2-0.8c0.1-0.2-0.1-0.4-0.3-0.4l-1.1-0.3
		l0.3-1l1.1,0.3c0.2,0.1,0.3,0,0.4-0.2l0.2-0.6c0.1-0.2,0-0.4-0.2-0.4l-1-0.3c-0.2-0.1-0.4,0-0.4,0.2l-0.1,0.4l-1.2-0.4l0.2-0.6
		c0.2-0.6,0.9-1,1.5-0.8l1.6,0.5c0.6,0.2,1,0.9,0.8,1.5l-0.3,0.8c-0.1,0.3-0.3,0.6-0.8,0.7c0.3,0.3,0.4,0.7,0.3,1.1l-0.3,1
		c-0.2,0.6-0.9,1-1.5,0.8l-1.7-0.5c-0.6-0.2-1-0.9-0.8-1.5l0.2-0.6l1.2,0.4L113,104z"/>
	<path class="st22" d="M120.5,106.5l-0.4,1.2l-1.1-0.4l0.4-1.2l-2.7-0.8l0-0.9l4.2-2.8l1,0.3l-1.1,3.6l0.8,0.3l-0.3,1L120.5,106.5z
		 M119.7,105.1l0.6-1.9l-2.1,1.4L119.7,105.1z"/>
</g>
<g class="st7">
	<path class="st22" d="M106,87.5l-1.1,0.8l0.2,0c0.2,0,0.6,0.1,0.8,0.4l0.3,0.4c0.3,0.5,0.2,1.1-0.2,1.4l-1.1,0.8
		c-0.5,0.3-1.1,0.2-1.4-0.2l-0.9-1.2c-0.3-0.5-0.2-1.1,0.2-1.4l0.4-0.3l0.6,0.8l-0.3,0.2c-0.1,0.1-0.2,0.2-0.1,0.4l0.6,0.8
		c0.1,0.1,0.2,0.2,0.4,0.1l0.7-0.5c0.1-0.1,0.2-0.2,0.1-0.4l-0.2-0.3c-0.1-0.2-0.3-0.3-0.6-0.4l-0.2-0.1l-0.4-1l2.1-1.6l2,2.7
		l-0.8,0.6L106,87.5z"/>
</g>
<g>
	<g>
		<g>
			<path class="st20" d="M421,130.6c-0.4,0-0.7-0.1-1.1-0.2c-1.6-0.6-2.4-2.3-1.8-3.9l28.5-75.3c0.4-1.2,1.5-1.9,2.8-2
				c1.3,0.1,2.4,0.7,2.8,1.8l31.9,75.3c0.7,1.5-0.1,3.3-1.6,4c-1.5,0.6-3.3-0.1-4-1.6l-28.9-68.3l-25.9,68.2
				C423.4,129.9,422.2,130.6,421,130.6z"/>
		</g>
	</g>
	<g>
		<path class="st5" d="M492.1,50.8c0,23.5-19.1,42.6-42.6,42.6C426,93.3,407,74.3,407,50.8s19.1-42.6,42.6-42.6
			C473.1,8.2,492.1,27.2,492.1,50.8L492.1,50.8z"/>
	</g>
	<g>
		<path class="st23" d="M482.5,17.9C474,9.4,462.4,4.2,449.6,4.2s-24.5,5.2-32.9,13.6s-13.6,20.1-13.6,32.9s5.2,24.5,13.6,32.9
			s20.1,13.6,32.9,13.6s24.5-5.2,32.9-13.6s13.6-20.1,13.6-32.9S490.9,26.3,482.5,17.9z M476.9,78.1c-7,7-16.6,11.3-27.3,11.3
			c-10.7,0-20.3-4.3-27.3-11.3S411,61.5,411,50.8s4.3-20.3,11.3-27.3s16.6-11.3,27.3-11.3c10.7,0,20.3,4.3,27.3,11.3
			s11.3,16.6,11.3,27.3C488.2,61.4,483.9,71.1,476.9,78.1z"/>
	</g>
	<g>
		<path class="st5" d="M474.2,50.8c0,13.6-11,24.6-24.6,24.6S425,64.4,425,50.8s11-24.6,24.6-24.6C463.1,26.2,474.2,37.2,474.2,50.8
			L474.2,50.8z"/>
	</g>
	<g>
		<path class="st23" d="M469.7,30.6c-5.2-5.2-12.3-8.4-20.2-8.4c-7.9,0-15,3.2-20.2,8.4s-8.4,12.3-8.4,20.2s3.2,15,8.4,20.2
			c5.2,5.2,12.3,8.4,20.2,8.4c7.9,0,15-3.2,20.2-8.4c5.2-5.2,8.4-12.3,8.4-20.2S474.9,35.7,469.7,30.6z M464.2,65.4
			c-3.7,3.7-8.9,6-14.6,6s-10.9-2.3-14.6-6c-3.7-3.7-6-8.9-6-14.6s2.3-10.9,6-14.6c3.7-3.7,8.9-6,14.6-6s10.9,2.3,14.6,6
			s6,8.9,6,14.6S467.9,61.6,464.2,65.4z"/>
	</g>
	<g>
		<path class="st5" d="M458,50.8c0,4.7-3.8,8.5-8.5,8.5s-8.5-3.8-8.5-8.5s3.8-8.5,8.5-8.5S458,46.1,458,50.8L458,50.8z"/>
	</g>
	<g>
		<path class="st23" d="M458.3,42c-2.2-2.2-5.4-3.6-8.8-3.6s-6.5,1.4-8.8,3.6c-2.2,2.2-3.6,5.4-3.6,8.8c0,3.4,1.4,6.5,3.6,8.8
			c2.2,2.2,5.4,3.6,8.8,3.6s6.5-1.4,8.8-3.6c2.2-2.2,3.6-5.4,3.6-8.8C462,47.3,460.6,44.2,458.3,42z M452.7,53.9
			c-0.8,0.8-1.9,1.3-3.2,1.3c-1.3,0-2.4-0.5-3.2-1.3c-0.8-0.8-1.3-1.9-1.3-3.2s0.5-2.4,1.3-3.2s1.9-1.3,3.2-1.3
			c1.3,0,2.4,0.5,3.2,1.3c0.8,0.8,1.3,1.9,1.3,3.2C454.1,52,453.6,53.1,452.7,53.9z"/>
	</g>
	<g>
		<rect x="425.7" y="24" transform="matrix(0.64 -0.7683 0.7683 0.64 127.4014 341.3666)" class="st24" width="4.7" height="21.5"/>
	</g>
	<g>
		<g>
			
				<rect x="418.6" y="-1.5" transform="matrix(0.64 -0.7684 0.7684 0.64 129.6808 332.7528)" class="st25" width="2.6" height="59"/>
		</g>
		<g>
			<path class="st25" d="M391.2,11.6l5.3-3.2l12.9,10.7c-2.3,3-6.3,4.3-10.1,3l-6.2-2.1c-2-0.7-3.4-2.4-3.8-4.3
				C389,14.1,389.8,12.5,391.2,11.6z"/>
		</g>
		<g>
			<path class="st26" d="M398.7,2.6l-2.2,5.8l12.9,10.7c2.5-2.8,3.1-7,1.2-10.4L407.4,3c-1-1.8-2.9-2.9-4.9-3
				C400.8-0.1,399.3,1.1,398.7,2.6z"/>
		</g>
		<g>
			<polygon class="st25" points="442.4,46.8 443.2,45.8 449.6,52.3 441.6,47.9 			"/>
		</g>
	</g>
</g>
<g>
	<g>
		<rect x="312.5" y="123.3" class="st18" width="28.6" height="7.3"/>
		<rect x="312.5" y="123.3" class="st18" width="28.6" height="2"/>
	</g>
	<g>
		<rect x="312.5" y="115.9" class="st18" width="28.6" height="7.3"/>
		<rect x="312.5" y="115.9" class="st18" width="28.6" height="2"/>
	</g>
	<g>
		<rect x="312.5" y="108.6" class="st18" width="28.6" height="7.3"/>
		<rect x="312.5" y="108.6" class="st18" width="28.6" height="2"/>
	</g>
	<rect x="330.8" y="108.6" class="st18" width="10.3" height="22"/>
	<g>
		<rect x="355" y="123.3" class="st18" width="28.6" height="7.3"/>
		<rect x="355" y="123.3" class="st18" width="28.6" height="2"/>
	</g>
	<g>
		<rect x="355" y="115.9" class="st18" width="28.6" height="7.3"/>
		<rect x="355" y="115.9" class="st18" width="28.6" height="2"/>
	</g>
	<g>
		<rect x="355" y="108.6" class="st18" width="28.6" height="7.3"/>
		<rect x="355" y="108.6" class="st18" width="28.6" height="2"/>
	</g>
	<g>
		<rect x="355" y="101.3" class="st18" width="28.6" height="7.3"/>
		<rect x="355" y="101.3" class="st18" width="28.6" height="2"/>
	</g>
	<g>
		<rect x="355" y="93.9" class="st18" width="28.6" height="7.3"/>
		<rect x="355" y="93.9" class="st18" width="28.6" height="2"/>
	</g>
	<rect x="373.3" y="93.9" class="st18" width="10.3" height="36.7"/>
	<g>
		<rect x="397.5" y="123.3" class="st18" width="28.6" height="7.3"/>
		<rect x="397.5" y="123.3" class="st18" width="28.6" height="2"/>
	</g>
	<g>
		<rect x="397.5" y="115.9" class="st18" width="28.6" height="7.3"/>
		<rect x="397.5" y="115.9" class="st18" width="28.6" height="2"/>
	</g>
	<g>
		<rect x="397.5" y="108.6" class="st18" width="28.6" height="7.3"/>
		<rect x="397.5" y="108.6" class="st18" width="28.6" height="2"/>
	</g>
	<g>
		<rect x="397.5" y="101.3" class="st18" width="28.6" height="7.3"/>
		<rect x="397.5" y="101.3" class="st18" width="28.6" height="2"/>
	</g>
	<g>
		<rect x="397.5" y="93.9" class="st18" width="28.6" height="7.3"/>
		<rect x="397.5" y="93.9" class="st18" width="28.6" height="2"/>
	</g>
	<g>
		<rect x="397.5" y="86.6" class="st18" width="28.6" height="7.3"/>
		<rect x="397.5" y="86.6" class="st18" width="28.6" height="2"/>
	</g>
	<g>
		<rect x="397.5" y="79.2" class="st18" width="28.6" height="7.3"/>
		<rect x="397.5" y="79.2" class="st18" width="28.6" height="2"/>
	</g>
	<g>
		<rect x="397.5" y="71.9" class="st18" width="28.6" height="7.3"/>
		<rect x="397.5" y="71.9" class="st18" width="28.6" height="2"/>
	</g>
	<g>
		<rect x="397.5" y="64.6" class="st18" width="28.6" height="7.3"/>
		<rect x="397.5" y="64.6" class="st18" width="28.6" height="2"/>
	</g>
	<rect x="397.5" y="57.2" class="st18" width="28.6" height="7.3"/>
	<rect x="397.5" y="57.2" class="st18" width="28.6" height="2"/>
	<rect x="415.8" y="57.2" class="st18" width="10.3" height="73.4"/>
</g>
<g>
	<ellipse class="st0" cx="314.4" cy="110.3" rx="9.7" ry="9.7"/>
	<ellipse class="st1" cx="314.4" cy="110.3" rx="7" ry="7"/>
	<g>
		<path class="st0" d="M317.6,112c0,0.7-0.2,1.2-0.7,1.6c-0.5,0.4-1.2,0.6-2.1,0.7v1.3H314v-1.3c-1,0-2-0.2-2.7-0.5v-1.7
			c0.4,0.2,0.8,0.3,1.4,0.5c0.5,0.1,1,0.2,1.4,0.2v-2l-0.4-0.2c-0.8-0.3-1.5-0.7-1.8-1.1c-0.3-0.4-0.5-0.9-0.5-1.5
			c0-0.6,0.2-1.1,0.7-1.5c0.5-0.4,1.1-0.6,2-0.7v-1h0.9v0.9c1,0,1.9,0.2,2.6,0.6l-0.6,1.5c-0.7-0.3-1.4-0.4-2.1-0.5v1.9
			c0.8,0.3,1.4,0.6,1.8,0.8c0.3,0.2,0.6,0.5,0.8,0.8C317.6,111.3,317.6,111.6,317.6,112z M313.1,108.2c0,0.2,0.1,0.3,0.2,0.5
			s0.3,0.2,0.6,0.4v-1.5C313.4,107.6,313.1,107.8,313.1,108.2z M315.7,112.1c0-0.2-0.1-0.3-0.2-0.4s-0.4-0.2-0.6-0.4v1.6
			C315.4,112.8,315.7,112.5,315.7,112.1z"/>
	</g>
</g>
</svg>
