<svg id="Layer_1" data-name="Layer 1" xmlns="http://www.w3.org/2000/svg" viewBox="0 0 235.75 235.75"><defs><style>.cls-1{fill:#ffffe8;}.cls-2{fill:#03593e;}.cls-3{fill:#04a77a;}.cls-4{fill:#fff;}</style></defs><title>cantfindlogo</title><rect class="cls-1" width="235.75" height="235.75" rx="4" ry="4"/><path d="M55.86,31.48a4,4,0,0,1,4.21,4.22V48.65a4,4,0,0,1-4.21,4.21H44.72V31.48ZM54.79,48.82a.91.91,0,0,0,1-1V36.53a.91.91,0,0,0-1-1H49v13.3Z" transform="translate(-7 -6.5)"/><path d="M75.12,31.36a4,4,0,0,1,4.22,4.22V48.76A4,4,0,0,1,75.12,53H68a4,4,0,0,1-4.22-4.22V35.58A4,4,0,0,1,68,31.36Zm-.06,5a.91.91,0,0,0-1-1H69a.91.91,0,0,0-1,1V47.93a.91.91,0,0,0,1,1h5a.9.9,0,0,0,1-1Z" transform="translate(-7 -6.5)"/><path d="M100,31.48V52.86H95.4L87.53,38.28V52.86h-4V31.48h4.6L96,46.06V31.48Z" transform="translate(-7 -6.5)"/><path d="M112.94,35.46v17.4h-4.27V35.46h-5.59v-4h15.44v4Z" transform="translate(-7 -6.5)"/><path d="M138.71,36.41a.91.91,0,0,0-1-1h-4.28a.91.91,0,0,0-1,1v2c0,.65.36.86,1,1L139,40.63c2.31.5,4.27,1.9,4.27,4.27v3.86A4,4,0,0,1,139,53h-6.65a4,4,0,0,1-4.22-4.22V46h4.16v1.9a.9.9,0,0,0,1,1h4.63a.91.91,0,0,0,1-1V45.68c0-.66-.36-.87-1-1l-5.53-1.19c-2.31-.51-4.27-1.9-4.27-4.28V35.58a4,4,0,0,1,4.22-4.22h6.29a4,4,0,0,1,4.22,4.22v2.49h-4.16Z" transform="translate(-7 -6.5)"/><path d="M161.27,31.48v4h-9.71v4.4h7.87v4h-7.87v4.87h9.71v4h-14V31.48Z" transform="translate(-7 -6.5)"/><path d="M179,31.48v4h-9.7v4.4h7.86v4h-7.86v4.87H179v4H165V31.48Z" transform="translate(-7 -6.5)"/><path d="M192.65,52.86h-4.43l6.89-21.38h5L207,52.86h-4.6L201,48.05h-6.92ZM195.26,44h4.57l-2.25-7.84Z" transform="translate(-7 -6.5)"/><path d="M20.57,67.11V84.45h9v4H16.3V67.11Z" transform="translate(-7 -6.5)"/><path d="M43.17,67a4,4,0,0,1,4.21,4.21V84.39a4,4,0,0,1-4.21,4.21H36a4,4,0,0,1-4.22-4.21V71.2A4,4,0,0,1,36,67Zm-.06,5a.91.91,0,0,0-1-1h-5a.91.91,0,0,0-1,1V83.56a.91.91,0,0,0,1,1h5a.91.91,0,0,0,1-1Z" transform="translate(-7 -6.5)"/><path d="M62.25,72a.91.91,0,0,0-1-1h-4.9a.91.91,0,0,0-1,1V83.56a.91.91,0,0,0,1,1h4.9a.91.91,0,0,0,1-1V80.38H58.33V76.52h8.2v7.87a4,4,0,0,1-4.22,4.21h-7a4,4,0,0,1-4.22-4.21V71.2A4,4,0,0,1,55.28,67h7a4,4,0,0,1,4.22,4.21V74H62.25Z" transform="translate(-7 -6.5)"/><path d="M81.49,67a4,4,0,0,1,4.22,4.21V84.39a4,4,0,0,1-4.22,4.21H74.33a4,4,0,0,1-4.21-4.21V71.2A4,4,0,0,1,74.33,67Zm-.06,5a.91.91,0,0,0-1-1h-5a.91.91,0,0,0-1,1V83.56a.91.91,0,0,0,1,1h5a.91.91,0,0,0,1-1Z" transform="translate(-7 -6.5)"/><path d="M105.27,71.08v17.4H101V71.08H95.41v-4h15.44v4Z" transform="translate(-7 -6.5)"/><path d="M113.93,67.11h4.28v8.43h7.36V67.11h4.28V88.48h-4.28v-8.9h-7.36v8.9h-4.28Z" transform="translate(-7 -6.5)"/><path d="M137.09,88.48h-4.42l6.88-21.37h5l6.89,21.37h-4.6l-1.4-4.81h-6.91Zm2.61-8.84h4.58L142,71.8Z" transform="translate(-7 -6.5)"/><path d="M160.54,71.08v17.4h-4.27V71.08h-5.58v-4h15.44v4Z" transform="translate(-7 -6.5)"/><path d="M176.33,67.11h14v4h-9.71v4.58h7.87v4h-7.87v8.73h-4.28Z" transform="translate(-7 -6.5)"/><path d="M193.55,67.11h4.28V88.48h-4.28Z" transform="translate(-7 -6.5)"/><path d="M210.77,71.08v17.4H206.5V71.08h-5.59v-4h15.44v4Z" transform="translate(-7 -6.5)"/><path d="M229.12,72a.91.91,0,0,0-1-1h-4.28a.91.91,0,0,0-1,1v2c0,.66.36.87,1,1l5.53,1.19c2.31.51,4.27,1.9,4.27,4.28v3.86a4,4,0,0,1-4.21,4.21h-6.66a4,4,0,0,1-4.21-4.21V81.66h4.16v1.9a.9.9,0,0,0,1,1h4.64a.91.91,0,0,0,1-1V81.3c0-.65-.36-.86-1-1l-5.53-1.19c-2.31-.5-4.27-1.9-4.27-4.27V71.2A4,4,0,0,1,222.76,67h6.3a4,4,0,0,1,4.22,4.21v2.5h-4.16Z" transform="translate(-7 -6.5)"/><path d="M32.05,124.11v-7.4l-6.6-14h4.7l4,9.14,4-9.14h4.69l-6.59,14v7.4Z" transform="translate(-7 -6.5)"/><path d="M55.83,102.61A4,4,0,0,1,60,106.83V120a4,4,0,0,1-4.21,4.22H48.67A4,4,0,0,1,44.45,120V106.83a4,4,0,0,1,4.22-4.22Zm-.06,5a.91.91,0,0,0-1-1h-5a.91.91,0,0,0-1,1v11.52a.91.91,0,0,0,1,1h5a.91.91,0,0,0,1-1Z" transform="translate(-7 -6.5)"/><path d="M79.16,120a4,4,0,0,1-4.22,4.22H68.12A4,4,0,0,1,63.9,120V102.73h4.27v16.45a.91.91,0,0,0,1,1h4.7a.91.91,0,0,0,1-1V102.73h4.27Z" transform="translate(-7 -6.5)"/><path d="M94.69,124.11l-3.45-7.93H87.8v7.93H83.52V102.73h10.9A4,4,0,0,1,98.64,107v5a4,4,0,0,1-2.91,4l3.56,8.11Zm-.33-16.33a.91.91,0,0,0-1-1H87.8v5.43h5.55a.91.91,0,0,0,1-1Z" transform="translate(-7 -6.5)"/><path d="M121.46,102.73a4,4,0,0,1,4.22,4.22v3a3.5,3.5,0,0,1-1.87,3.21,3.45,3.45,0,0,1,2.11,3.21v3.5a4,4,0,0,1-4.22,4.22h-11V102.73Zm-1.07,8.55c.78,0,1-.18,1-1v-2.55a.9.9,0,0,0-1-1h-5.46v4.57Zm.24,8.85a.91.91,0,0,0,1-1V116c0-.89-.53-1-1.37-1h-5.34v5Z" transform="translate(-7 -6.5)"/><path d="M141.08,124.11l-3.44-7.93H134.2v7.93h-4.28V102.73h10.9A4,4,0,0,1,145,107v5a4,4,0,0,1-2.91,4l3.57,8.11Zm-.32-16.33a.91.91,0,0,0-1-1H134.2v5.43h5.55a.91.91,0,0,0,1-1Z" transform="translate(-7 -6.5)"/><path d="M151.77,124.11h-4.42l6.88-21.38h5l6.89,21.38h-4.6l-1.4-4.81H153.2Zm2.61-8.85H159l-2.26-7.84Z" transform="translate(-7 -6.5)"/><path d="M185.41,102.73v21.38h-4.6l-7.87-14.58v14.58h-4V102.73h4.6l7.87,14.58V102.73Z" transform="translate(-7 -6.5)"/><path d="M201.23,102.73a4,4,0,0,1,4.22,4.22v12.94a4,4,0,0,1-4.22,4.22H190.09V102.73Zm-1.07,17.34a.91.91,0,0,0,1-1V107.78a.91.91,0,0,0-1-1h-5.79v13.3Z" transform="translate(-7 -6.5)"/><path d="M218.77,102.61a4,4,0,0,1,4.22,4.22v3.65c0,1.9-2.05,2.91-4.22,4.22l-1.19.71c-.56.32-1,.59-1,1v1.33H212.3v-2.22c0-1.78,2.26-3,4.28-4.28l1.12-.71c.57-.36,1-.6,1-1v-1.87a.9.9,0,0,0-1-1h-4.63a.91.91,0,0,0-1,1v1.6h-4.27v-2.43a4,4,0,0,1,4.21-4.22Zm-2.19,21.5H212.3v-4.28h4.28Z" transform="translate(-7 -6.5)"/><rect class="cls-2" x="7.89" y="156.09" width="223.3" height="74.11" rx="4" ry="4"/><rect class="cls-3" x="5" y="153.21" width="223.3" height="74.11" rx="4" ry="4"/><path class="cls-4" d="M54.54,180.62v6.22a12,12,0,0,1-6.56,2.1,8.27,8.27,0,0,1-8.61-8.25c0-4.66,3.78-8.2,8.82-8.2a10.21,10.21,0,0,1,6.49,2.36l-2,2.61a6.77,6.77,0,0,0-4.44-1.8,5,5,0,1,0,0,10.09,7.39,7.39,0,0,0,3.17-.87v-4.26Z" transform="translate(-7 -6.5)"/><path class="cls-4" d="M69.1,183.65H60.18a3.19,3.19,0,0,0,3.21,2.5,4.41,4.41,0,0,0,3.14-1.32l1.87,1.89a6.9,6.9,0,0,1-5.31,2.2c-4,0-6.49-2.54-6.49-6.31a6.05,6.05,0,0,1,6.4-6.37C67.36,176.24,69.4,179.12,69.1,183.65Zm-3.33-2.1a2.6,2.6,0,0,0-2.75-2.7,2.91,2.91,0,0,0-2.91,2.7Z" transform="translate(-7 -6.5)"/><path class="cls-4" d="M79.14,188.09a6.62,6.62,0,0,1-3.23.85,3.58,3.58,0,0,1-3.9-3.83v-5.76H70.27v-2.44H72v-3.42h3.53v3.42h3.37v2.47H75.54v5.13c0,1,.44,1.45,1.2,1.43a4.1,4.1,0,0,0,1.66-.46Z" transform="translate(-7 -6.5)"/><path class="cls-4" d="M95.68,185.64l-1.27,3.14H90.65l7-16.17h3.77l6.9,16.17h-3.9l-1.27-3.14Zm3.77-9.22-2.57,6.28H102Z" transform="translate(-7 -6.5)"/><path class="cls-4" d="M129.43,175.17l-2.12,2.59a5.87,5.87,0,0,0-4.21-2.1,5,5,0,0,0,0,10,6.23,6.23,0,0,0,4.21-1.89l2.15,2.33a9.47,9.47,0,0,1-6.54,2.89,8.21,8.21,0,0,1-8.48-8.27c0-4.67,3.72-8.18,8.62-8.18A9.19,9.19,0,0,1,129.43,175.17Z" transform="translate(-7 -6.5)"/><path class="cls-4" d="M143.36,188.78h-3.53v-2.2a4.41,4.41,0,0,1-4.16,2.34c-2.75,0-4.48-1.83-4.48-4.76v-7.81h3.56v6.79a2.25,2.25,0,0,0,2.33,2.52c1.71,0,2.75-1.36,2.75-3.16v-6.15h3.53Z" transform="translate(-7 -6.5)"/><path class="cls-4" d="M155.86,177.58,154.63,180a8.42,8.42,0,0,0-3.79-1.2c-.83,0-1.43.28-1.43.92,0,1.87,6.56.93,6.54,5.32,0,2.54-2.24,3.88-5.06,3.88a8.68,8.68,0,0,1-5.38-1.73l1.15-2.41a7.47,7.47,0,0,0,4.32,1.55c.9,0,1.57-.3,1.57-1,0-2-6.44-.92-6.44-5.29,0-2.56,2.19-3.88,4.9-3.88A9.26,9.26,0,0,1,155.86,177.58Z" transform="translate(-7 -6.5)"/><path class="cls-4" d="M166,188.09a6.62,6.62,0,0,1-3.23.85,3.59,3.59,0,0,1-3.91-3.83v-5.76h-1.73v-2.44h1.73v-3.42h3.54v3.42h3.37v2.47h-3.37v5.13c0,1,.44,1.45,1.2,1.43a4.1,4.1,0,0,0,1.66-.46Z" transform="translate(-7 -6.5)"/><path class="cls-4" d="M180.34,182.56c0,3.79-2.67,6.36-6.65,6.36s-6.68-2.57-6.68-6.36,2.69-6.32,6.68-6.32S180.34,178.75,180.34,182.56Zm-9.74.05a3.11,3.11,0,1,0,3.09-3.42A3.1,3.1,0,0,0,170.6,182.61Z" transform="translate(-7 -6.5)"/><path class="cls-4" d="M203.63,181v7.81H200.1V182a2.29,2.29,0,0,0-2.41-2.54c-1.71,0-2.75,1.36-2.75,3.16v6.15h-3.53V182a2.28,2.28,0,0,0-2.38-2.54c-1.73,0-2.77,1.36-2.77,3.16v6.15H182.7V176.35h3.56v2.15a4.59,4.59,0,0,1,4.2-2.29,4.13,4.13,0,0,1,4.21,2.87,4.55,4.55,0,0,1,4.48-2.87C201.9,176.21,203.63,178.06,203.63,181Z" transform="translate(-7 -6.5)"/><path class="cls-4" d="M65.54,213.31v3.19H55V200.33h3.65v13Z" transform="translate(-7 -6.5)"/><path class="cls-4" d="M79.91,210.28c0,3.79-2.68,6.36-6.66,6.36s-6.67-2.57-6.67-6.36S69.26,204,73.25,204,79.91,206.47,79.91,210.28Zm-9.75.05a3.11,3.11,0,1,0,3.09-3.42A3.11,3.11,0,0,0,70.16,210.33Z" transform="translate(-7 -6.5)"/><path class="cls-4" d="M93.91,215.34c0,3.54-2.66,5.78-6.64,5.78a9.64,9.64,0,0,1-5.4-1.64l1.32-2.5A6.53,6.53,0,0,0,87,218.23c2,0,3.33-1.08,3.33-2.77v-1.41a4.37,4.37,0,0,1-3.74,1.8c-3.21,0-5.43-2.4-5.43-6S83.37,204,86.54,204a4.44,4.44,0,0,1,3.83,1.8v-1.69h3.54Zm-3.54-5.4a2.94,2.94,0,0,0-2.91-3.24,3,3,0,0,0-2.93,3.24,2.93,2.93,0,1,0,5.84,0Z" transform="translate(-7 -6.5)"/><path class="cls-4" d="M109.43,210.28c0,3.79-2.68,6.36-6.66,6.36s-6.67-2.57-6.67-6.36,2.68-6.32,6.67-6.32S109.43,206.47,109.43,210.28Zm-9.75.05a3.11,3.11,0,1,0,3.09-3.42A3.11,3.11,0,0,0,99.68,210.33Z" transform="translate(-7 -6.5)"/><path class="cls-4" d="M124.4,203.42V216.5h-3.65V203.42h-4.92v-3.09h13.51v3.09Z" transform="translate(-7 -6.5)"/><path class="cls-4" d="M142,210.28c0,3.79-2.68,6.36-6.66,6.36s-6.67-2.57-6.67-6.36,2.68-6.32,6.67-6.32S142,206.47,142,210.28Zm-9.75.05a3.11,3.11,0,1,0,3.09-3.42A3.1,3.1,0,0,0,132.23,210.33Z" transform="translate(-7 -6.5)"/><path class="cls-4" d="M156.6,216.5h-3.54v-1.83a4.52,4.52,0,0,1-3.92,2c-3.54,0-5.87-2.57-5.87-6.4s2.31-6.31,5.77-6.31a4.65,4.65,0,0,1,4,2v-6.54h3.54Zm-3.54-6.17a3.13,3.13,0,0,0-3.09-3.44,3.45,3.45,0,0,0,0,6.88A3.13,3.13,0,0,0,153.06,210.33Z" transform="translate(-7 -6.5)"/><path class="cls-4" d="M167.36,215a4.77,4.77,0,0,1-3.9,1.62c-2.66,0-4.28-1.62-4.28-3.88s1.69-3.72,4.74-3.74h3.42v-.23c0-1.32-.88-2.08-2.59-2.08a7.89,7.89,0,0,0-3.69,1.08L160,205.36a11.66,11.66,0,0,1,5.61-1.43c3.33,0,5.24,1.66,5.27,4.46l0,8.11h-3.49Zm0-2.79v-1.11h-2.8c-1.36,0-2,.42-2,1.41s.74,1.57,1.94,1.57A2.76,2.76,0,0,0,167.34,212.25Z" transform="translate(-7 -6.5)"/><path class="cls-4" d="M179.72,217.88a4.6,4.6,0,0,1-4.55,3.26,5,5,0,0,1-3.37-1.2l1.5-2.56a2.42,2.42,0,0,0,1.62.67,1.74,1.74,0,0,0,1.64-1.11l.34-.69-5.15-12.18h3.67l3.26,8.55,2.94-8.55h3.55Z" transform="translate(-7 -6.5)"/><path class="cls-4" d="M189.75,214.86a1.78,1.78,0,0,1-1.81,1.85,1.75,1.75,0,0,1-1.75-1.85,1.72,1.72,0,0,1,1.75-1.83A1.75,1.75,0,0,1,189.75,214.86Zm-.67-3.81H186.9l-.6-6.52v-4.09h3.38v4.09Z" transform="translate(-7 -6.5)"/></svg>
