<!-- Generator: Adobe Illustrator 22.0.1, SVG Export Plug-In  -->
<svg version="1.1"
	 xmlns="http://www.w3.org/2000/svg" xmlns:xlink="http://www.w3.org/1999/xlink" xmlns:a="http://ns.adobe.com/AdobeSVGViewerExtensions/3.0/"
	 x="0px" y="0px" width="109.3px" height="120.3px" viewBox="0 0 109.3 120.3" style="enable-background:new 0 0 109.3 120.3;"
	 xml:space="preserve">
<style type="text/css">
	.st0{fill:#F9C319;}
	.st1{fill:#082E41;}
	.st2{fill:#002254;}
	.st3{fill:#30E2E2;}
	.st4{fill:#F9E23A;}
	.st5{fill:#FFFFFF;}
</style>
<defs>
</defs>
<g>
	<g>
		<path class="st0" d="M78.6,34.1c3.2,5.1,2.1,11.5-2.3,14.2C71.9,51,65.8,49.1,62.6,44c-3.2-5.1-2.1-11.5,2.3-14.2
			C69.3,27,75.5,29,78.6,34.1z"/>
	</g>
	<g>
		<path class="st1" d="M55.1,107c2.2,3.5,1.8,7.7-0.8,9.4l-5.2,3.2c-2.6,1.6-6.5,0.1-8.7-3.5L22.9,88.1c-2.2-3.5-1.8-7.7,0.8-9.4
			l5.2-3.2c2.6-1.6,6.6-0.1,8.7,3.5L55.1,107z"/>
	</g>
	<g>
		<g>
			<path class="st2" d="M103,18.8L84.3,30.4c-0.9,0.5-2,0.3-2.6-0.6c-0.5-0.9-0.3-2,0.6-2.6L101,15.7c0.9-0.5,2-0.3,2.6,0.6
				C104.1,17.2,103.8,18.3,103,18.8z"/>
		</g>
	</g>
	<g>
		<g>
			<path class="st3" d="M103,18.8L84.3,30.4c-0.9,0.5-2,0.3-2.6-0.6c-0.5-0.9-0.3-2,0.6-2.6L101,15.7c0.9-0.5,2-0.3,2.6,0.6
				C104.1,17.2,103.8,18.3,103,18.8z"/>
		</g>
	</g>
	<g>
		<g>
			<path class="st3" d="M89.6,4.8L80.9,25c-0.4,0.9-1.5,1.4-2.4,1c-0.9-0.4-1.4-1.5-1-2.4l8.7-20.1c0.4-0.9,1.5-1.4,2.4-1
				C89.5,2.8,90,3.9,89.6,4.8z"/>
		</g>
	</g>
	<g>
		<g>
			<path class="st3" d="M107.5,33.9l-21.9-1.3c-1-0.1-1.9,0.7-2,1.7c-0.1,1,0.7,1.9,1.7,2l21.9,1.3c1,0.1,1.9-0.7,2-1.8
				C109.4,34.9,108.6,34,107.5,33.9z"/>
		</g>
	</g>
	<g>
		<polygon class="st4" points="52.1,102.1 49.6,98.1 34.7,107.1 34.9,107.5 37.2,111.1 		"/>
		<path class="st4" d="M55.1,107l-1-1.6l-14.9,9l1,1.7c0.1,0.2,0.2,0.3,0.3,0.5l14.8-8.9C55.3,107.5,55.2,107.3,55.1,107z"/>
	</g>
	<g>
		<path class="st1" d="M44.8,3.1c0.7,14.2-23.1,42.4-23.1,42.4l9.6,15.6l9.6,15.6c0,0,35.8-8.7,48.3-1.7L67.4,38.8L44.8,3.1z"/>
	</g>
	<g>
		<path class="st4" d="M93,72.5c0.7,1.1-0.1,2.7-1.6,3.6l0,0c-1.5,0.9-3.3,0.8-3.9-0.2L43.3,4.3c-0.7-1.1,0-2.7,1.6-3.6l0,0
			c1.5-0.9,3.3-0.8,3.9,0.2L93,72.5z"/>
	</g>
	<g>
		<path class="st5" d="M22.1,44.8L4.9,55.4C0.3,58.3-1.3,63.9,1.2,68l10.6,17.1c2.5,4.1,8.3,5.1,12.9,2.3l13.3-8.2l4-2.4L22.1,44.8z
			"/>
	</g>
</g>
</svg>