<svg version="1.1"
	 xmlns="http://www.w3.org/2000/svg" xmlns:xlink="http://www.w3.org/1999/xlink" xmlns:a="http://ns.adobe.com/AdobeSVGViewerExtensions/3.0/"
	 x="0px" y="0px" viewBox="0 0 290.6 290.6" style="enable-background:new 0 0 290.6 290.6;"
	 xml:space="preserve">
<style type="text/css">
	.st0{fill:#082E41;}
</style>
<defs>
</defs>
<g>
	<g>
		<path class="st0" d="M290.6,145.3C290.6,65.2,225.4,0,145.3,0C120.4,0,97,6.3,76.5,17.4c-31.6-15.7-54.4-18-66-6.4
			C-2.1,23.6,2.7,48.4,17.1,77C6.2,97.4,0,120.7,0,145.3c0,80.1,65.2,145.3,145.3,145.3c24.6,0,47.8-6.2,68.2-17
			c16.9,8.5,32.9,13.8,45.8,13.8c8.3,0,15.3-2.2,20.3-7.3c11.6-11.6,9.4-34.4-6.4-66C284.3,193.6,290.6,170.2,290.6,145.3z
			 M17.1,17.6c7.7-7.7,25.6-5.6,49.7,5.5c-17.7,11.4-32.7,26.5-44,44.2C11.5,42.8,9.8,25,17.1,17.6z M145.3,281.2
			c-75,0-135.9-61-135.9-135.9c0-20.8,4.7-40.5,13.1-58.1c12.6,22.5,30.2,46.8,49.3,69l-16.5,3.3l1.8,9.2l25.9-5.2l10.3-25.8
			l-8.7-3.5l-6.2,15.4c-23.1-26.8-40-51.5-50.9-72.3C51.2,36.7,95.1,9.4,145.3,9.4c75,0,135.9,61,135.9,135.9
			c0,50.2-27.4,94.1-67.9,117.6c-15.1-7.9-32-18.8-49.5-32.3l-5.7,7.4c14.5,11.1,30.1,21.6,45.3,30.1
			C185.7,276.6,166.1,281.2,145.3,281.2z M273,273.5c-7.9,7.9-26.1,5.3-49.8-5.6c17.7-11.3,32.9-26.4,44.3-44
			C278.6,247.9,280.7,265.8,273,273.5z"/>
		<path class="st0" d="M192.2,178.1c0-20.7-16.8-37.5-37.5-37.5h-18.8c-15.5,0-28.1-12.6-28.1-28.1s12.6-28.1,28.1-28.1h18.8
			c15.5,0,28.1,12.6,28.1,28.1v4.7h9.4v-4.7c0-20.7-16.8-37.5-37.5-37.5H150V56.2h-9.4V75h-4.7c-20.7,0-37.5,16.8-37.5,37.5
			s16.8,37.5,37.5,37.5h18.8c15.5,0,28.1,12.6,28.1,28.1s-12.6,28.1-28.1,28.1h-18.8c-15.5,0-28.1-12.6-28.1-28.1v-4.7h-9.4v4.7
			c0,20.7,16.8,37.5,37.5,37.5h4.7v18.8h9.4v-18.8h4.7C175.4,215.6,192.2,198.8,192.2,178.1z"/>
	</g>
</g>
</svg>