<!-- Generator: Adobe Illustrator 22.0.1, SVG Export Plug-In  -->
<svg version="1.1"
	 xmlns="http://www.w3.org/2000/svg" xmlns:xlink="http://www.w3.org/1999/xlink" xmlns:a="http://ns.adobe.com/AdobeSVGViewerExtensions/3.0/"
	 x="0px" y="0px" width="68.7px" height="59.8px" viewBox="0 0 68.7 59.8" style="enable-background:new 0 0 68.7 59.8;"
	 xml:space="preserve">
<style type="text/css">
	.st0{fill:#FFFFFF;}
	.st1{fill:#F7AD3E;}
	.st2{fill:#E6E7E8;}
	.st3{fill:#301606;}
	.st4{fill:#082E41;}
	.st5{fill:#051921;}
	.st6{fill:#401F0A;}
	.st7{fill:#FF2942;}
	.st8{fill:#CA3E45;}
	.st9{fill:#48D4E4;}
	.st10{fill:#FCD751;}
	.st11{fill:#F9E23A;}
	.st12{fill:#F9C319;}
</style>
<defs>
</defs>
<g>
	<g>
		<polygon class="st0" points="16.3,53.7 12,51 11.3,52.1 15.7,54.7 20,57.4 20.7,56.4 		"/>
		<polygon class="st1" points="49,5 47.1,3.9 45.2,2.7 39.7,6.1 40.5,9.7 42.7,11 44.9,12.4 48.4,11.5 		"/>
		<polygon class="st2" points="47.1,3.9 45.2,2.7 39.7,6.1 40.5,9.7 42.7,11 		"/>
		<polygon class="st0" points="47.1,3.9 49,5 48.4,11.5 44.9,12.4 42.7,11 		"/>
		<polygon class="st3" points="45.4,10.8 44.1,8.8 41.6,8.5 39.7,6.1 12,51 14.4,52.5 18.2,54.9 20.7,56.4 48.4,11.5 		"/>
		<polygon class="st4" points="18.2,54.9 14.4,52.5 41.6,8.5 44.1,8.8 45.4,10.8 		"/>
		<polygon class="st5" points="20.7,56.4 18.2,54.9 45.4,10.8 48.4,11.5 		"/>
		<polygon class="st5" points="14.4,52.5 12,51 39.7,6.1 41.6,8.5 		"/>
		<polygon class="st3" points="49.5,0 45.2,2.7 47.1,3.9 49,5 		"/>
		<polygon class="st6" points="47.1,3.9 49.5,0 49,5 		"/>
		<polygon class="st3" points="47.1,3.9 49.5,0 45.2,2.7 		"/>
		<polygon class="st2" points="11.3,52.1 15.7,54.7 16.3,53.7 12,51 		"/>
		<path class="st7" d="M15.7,54.7l-4.4-2.7c0,0-1.2,1.9-0.8,3.4c0.4,2.1,2.8,3.3,2.8,3.3s2,1.6,4.1,1c1.5-0.4,2.6-2.3,2.6-2.3
			L15.7,54.7z"/>
		<polygon class="st0" points="20,57.4 15.7,54.7 16.3,53.7 20.7,56.4 		"/>
		<path class="st8" d="M17.4,59.7c-2.1,0.5-4.1-1-4.1-1l2.4-3.9l4.3,2.7C20,57.4,18.9,59.3,17.4,59.7z"/>
		<path class="st8" d="M10.5,55.4c0.4,2.1,2.8,3.3,2.8,3.3l2.4-3.9l-4.4-2.7C11.3,52.1,10.2,54,10.5,55.4z"/>
	</g>
	<g>
		<polygon class="st0" points="5.9,28.2 6.4,23.1 5.2,23 4.7,28.1 4.2,33.2 5.4,33.3 		"/>
		<polygon class="st9" points="64,36.3 64.2,34 64.4,31.8 59,28.4 56.1,30.7 55.9,33.2 55.6,35.7 58,38.6 		"/>
		<polygon class="st2" points="64.2,34 64.4,31.8 59,28.4 56.1,30.7 55.9,33.2 		"/>
		<polygon class="st0" points="64.2,34 64,36.3 58,38.6 55.6,35.7 55.9,33.2 		"/>
		<polygon class="st10" points="57.2,35.6 58.5,33.5 57.6,31.1 59,28.4 6.4,23.1 6.1,26 5.7,30.4 5.4,33.3 58,38.6 		"/>
		<polygon class="st11" points="5.7,30.4 6.1,26 57.6,31.1 58.5,33.5 57.2,35.6 		"/>
		<polygon class="st12" points="5.4,33.3 5.7,30.4 57.2,35.6 58,38.6 		"/>
		<polygon class="st12" points="6.1,26 6.4,23.1 59,28.4 57.6,31.1 		"/>
		<polygon class="st10" points="68.7,34.5 64.4,31.8 64.2,34 64,36.3 		"/>
		<polygon class="st11" points="64.2,34 68.7,34.5 64,36.3 		"/>
		<polygon class="st12" points="64.2,34 68.7,34.5 64.4,31.8 		"/>
		<polygon class="st2" points="5.2,23 4.7,28.1 5.9,28.2 6.4,23.1 		"/>
		<path class="st7" d="M4.7,28.1L5.2,23c0,0-2.2-0.2-3.4,0.7c-1.7,1.3-1.7,3.9-1.7,3.9s-0.5,2.5,0.9,4.2c1,1.2,3.2,1.4,3.2,1.4
			L4.7,28.1z"/>
		<polygon class="st0" points="4.2,33.2 4.7,28.1 5.9,28.2 5.4,33.3 		"/>
		<path class="st8" d="M1,31.8c-1.4-1.6-0.9-4.2-0.9-4.2l4.6,0.5l-0.5,5.1C4.2,33.2,2,32.9,1,31.8z"/>
		<path class="st8" d="M1.8,23.7c-1.7,1.3-1.7,3.9-1.7,3.9l4.6,0.5L5.2,23C5.2,23,3,22.8,1.8,23.7z"/>
	</g>
</g>
</svg>