<!-- Generator: Adobe Illustrator 22.0.1, SVG Export Plug-In  -->
<svg version="1.1"
	 xmlns="http://www.w3.org/2000/svg" xmlns:xlink="http://www.w3.org/1999/xlink" xmlns:a="http://ns.adobe.com/AdobeSVGViewerExtensions/3.0/"
	 x="0px" y="0px" width="61px" height="36.4px" viewBox="0 0 61 36.4" style="enable-background:new 0 0 61 36.4;"
	 xml:space="preserve">
<style type="text/css">
	.st0{fill:#F9E23A;}
	.st1{fill:#FFFFFF;}
	.st2{fill:#082E41;}
</style>
<defs>
</defs>
<g>
	<path class="st0" d="M61,29.6L60.9,6.5c0-3.6-2.8-6.5-6.1-6.5L6.1,0.2C2.7,0.2,0,3.1,0,6.8l0.1,23.1c0,3.6,2.8,6.5,6.1,6.5
		l48.7-0.2C58.3,36.2,61,33.2,61,29.6z M50.3,18.1c0-1.4,1.1-2.6,2.6-2.6c1.4,0,2.6,1.1,2.6,2.6c0,1.4-1.1,2.6-2.6,2.6
		C51.5,20.7,50.3,19.5,50.3,18.1z"/>
	<path class="st1" d="M57.8,29.1L57.7,7c0-2.5-1.8-4.5-4-4.5L7.1,2.7c-2.2,0-3.9,2-3.9,4.5l0.1,22.1c0,2.5,1.8,4.5,4,4.5l46.7-0.2
		C56,33.6,57.8,31.6,57.8,29.1z M50.3,18.1c0-1.4,1.1-2.6,2.6-2.6c1.4,0,2.6,1.1,2.6,2.6c0,1.4-1.1,2.6-2.6,2.6
		C51.5,20.7,50.3,19.5,50.3,18.1z"/>
	<g>
		<path class="st2" d="M17.6,21.5c0-0.4-0.2-0.8-0.5-1.1c-0.3-0.3-0.7-0.5-1.2-0.7c-0.5-0.2-1-0.5-1.6-0.7c-0.6-0.2-1.1-0.5-1.6-0.9
			c-0.5-0.3-0.9-0.8-1.2-1.3c-0.3-0.5-0.5-1.2-0.5-2c0-0.7,0.1-1.3,0.3-1.8c0.2-0.5,0.6-0.9,1-1.3c0.4-0.3,0.9-0.6,1.5-0.8
			c0.6-0.2,1.2-0.2,2-0.3c0.8,0,1.6,0.1,2.3,0.2c0.7,0.1,1.3,0.3,1.8,0.6L19.2,14c-0.3-0.2-0.7-0.4-1.3-0.5
			c-0.6-0.1-1.2-0.2-1.9-0.2c-0.7,0-1.2,0.1-1.5,0.4c-0.3,0.3-0.5,0.6-0.5,1c0,0.4,0.2,0.7,0.5,1c0.3,0.3,0.7,0.5,1.2,0.8
			c0.5,0.2,1,0.5,1.6,0.7c0.6,0.2,1.1,0.5,1.6,0.9c0.5,0.3,0.9,0.8,1.2,1.3c0.3,0.5,0.5,1.1,0.5,1.9c0,0.8-0.1,1.4-0.4,2
			c-0.3,0.6-0.6,1-1.1,1.4c-0.5,0.4-1,0.6-1.6,0.8c-0.6,0.2-1.4,0.3-2.1,0.3c-1,0-1.9-0.1-2.7-0.3c-0.8-0.2-1.3-0.4-1.7-0.6l0.9-2.4
			c0.2,0.1,0.3,0.2,0.6,0.3c0.2,0.1,0.5,0.2,0.8,0.3c0.3,0.1,0.6,0.1,0.9,0.2c0.3,0,0.7,0.1,1,0.1c0.8,0,1.5-0.1,1.9-0.4
			C17.4,22.5,17.6,22.1,17.6,21.5z"/>
		<path class="st2" d="M22.2,11.1l8.4,0l0,2.5l-5.7,0l0,3.3l5.1,0l0,2.5l-5.1,0l0,3.5l5.7,0l0,2.5l-8.5,0L22.2,11.1z"/>
		<path class="st2" d="M32.4,18.2c0-2.4,0.5-4.2,1.5-5.5c1-1.3,2.5-1.9,4.5-1.9c1,0,1.9,0.2,2.7,0.5c0.8,0.4,1.4,0.8,1.9,1.5
			c0.5,0.6,0.9,1.4,1.1,2.3c0.2,0.9,0.4,1.9,0.4,3c0,2.4-0.5,4.2-1.6,5.5c-1,1.3-2.5,1.9-4.4,1.9c-1,0-1.9-0.2-2.7-0.5
			c-0.8-0.3-1.4-0.8-1.9-1.5c-0.5-0.6-0.9-1.4-1.1-2.3C32.5,20.3,32.4,19.3,32.4,18.2z M35.3,18.2c0,0.7,0.1,1.4,0.2,2
			c0.1,0.6,0.3,1.1,0.6,1.5c0.3,0.4,0.6,0.8,1,1c0.4,0.2,0.9,0.4,1.4,0.4c1,0,1.8-0.4,2.3-1.2c0.5-0.8,0.8-2,0.8-3.8
			c0-0.7-0.1-1.3-0.2-1.9c-0.1-0.6-0.3-1.1-0.5-1.6c-0.2-0.4-0.6-0.8-1-1c-0.4-0.3-0.9-0.4-1.4-0.4c-1,0-1.8,0.4-2.3,1.2
			C35.6,15.2,35.3,16.5,35.3,18.2z"/>
	</g>
</g>
</svg>