<svg version="1.1"
	 xmlns="http://www.w3.org/2000/svg" xmlns:xlink="http://www.w3.org/1999/xlink" xmlns:a="http://ns.adobe.com/AdobeSVGViewerExtensions/3.0/"
	 x="0px" y="0px" width="87.9px" height="42.3px" viewBox="0 0 87.9 42.3" style="enable-background:new 0 0 87.9 42.3;"
	 xml:space="preserve">
<defs>
</defs>
<path fill="#000" d="M32.8,42.3l-6.9-27.9l-6.9,27.9h-8.4L0,0h9.1l5.8,30.9L22.5,0h6.7l7.6,30.9L42.6,0h8.7L40.8,42.3H32.8z"/>
<path fill="#000" d="M79.6,0c4.9,0,8.4,3.4,8.4,8.4V34c0,4.9-3.4,8.4-8.4,8.4H57.5V0H79.6z M77.4,34.3c1.3,0,2-0.7,2-2V10c0-1.3-0.7-2-2-2H66
	v26.3H77.4z"/>
</svg>